<mxfile host="Electron" modified="2023-09-27T00:49:01.401Z" agent="Mozilla/5.0 (Macintosh; Intel Mac OS X 10_15_7) AppleWebKit/537.36 (KHTML, like Gecko) draw.io/21.7.5 Chrome/114.0.5735.289 Electron/25.8.1 Safari/537.36" etag="Tnwo-KPCUW6V3ZV4y3tr" version="21.7.5" type="device">
  <diagram name="Page-1" id="pk2FP1RZ6JZ27LBQ9j_d">
    <mxGraphModel dx="777" dy="1732" grid="1" gridSize="10" guides="1" tooltips="1" connect="1" arrows="1" fold="1" page="1" pageScale="1" pageWidth="827" pageHeight="1169" math="0" shadow="0">
      <root>
        <mxCell id="0" />
        <mxCell id="1" parent="0" />
        <mxCell id="k2nyes9qOIdSVH-O3ABF-46" value="" style="rounded=1;whiteSpace=wrap;html=1;fillColor=#f5f5f5;fontColor=#333333;strokeColor=#666666;" vertex="1" parent="1">
          <mxGeometry x="40" y="-210" width="620" height="850" as="geometry" />
        </mxCell>
        <mxCell id="k2nyes9qOIdSVH-O3ABF-13" style="edgeStyle=orthogonalEdgeStyle;rounded=0;orthogonalLoop=1;jettySize=auto;html=1;fillColor=#dae8fc;strokeColor=#6c8ebf;strokeWidth=2;" edge="1" parent="1" source="k2nyes9qOIdSVH-O3ABF-1">
          <mxGeometry relative="1" as="geometry">
            <mxPoint x="148.5000000000001" y="239" as="targetPoint" />
          </mxGeometry>
        </mxCell>
        <mxCell id="k2nyes9qOIdSVH-O3ABF-14" style="edgeStyle=orthogonalEdgeStyle;rounded=0;orthogonalLoop=1;jettySize=auto;html=1;fillColor=#dae8fc;strokeColor=#6c8ebf;strokeWidth=2;" edge="1" parent="1" source="k2nyes9qOIdSVH-O3ABF-7">
          <mxGeometry relative="1" as="geometry">
            <mxPoint x="548.5" y="239" as="targetPoint" />
          </mxGeometry>
        </mxCell>
        <mxCell id="k2nyes9qOIdSVH-O3ABF-15" style="edgeStyle=orthogonalEdgeStyle;rounded=0;orthogonalLoop=1;jettySize=auto;html=1;startArrow=classic;startFill=1;fillColor=#dae8fc;strokeColor=#6c8ebf;strokeWidth=2;" edge="1" parent="1" source="k2nyes9qOIdSVH-O3ABF-4" target="k2nyes9qOIdSVH-O3ABF-10">
          <mxGeometry relative="1" as="geometry" />
        </mxCell>
        <mxCell id="k2nyes9qOIdSVH-O3ABF-29" style="edgeStyle=orthogonalEdgeStyle;rounded=0;orthogonalLoop=1;jettySize=auto;html=1;fillColor=#dae8fc;strokeColor=#6c8ebf;strokeWidth=2;endArrow=none;endFill=0;" edge="1" parent="1" source="k2nyes9qOIdSVH-O3ABF-26">
          <mxGeometry relative="1" as="geometry">
            <mxPoint x="400" y="9.999999999999773" as="targetPoint" />
          </mxGeometry>
        </mxCell>
        <mxCell id="k2nyes9qOIdSVH-O3ABF-30" style="edgeStyle=orthogonalEdgeStyle;rounded=0;orthogonalLoop=1;jettySize=auto;html=1;entryX=0;entryY=0.5;entryDx=0;entryDy=0;entryPerimeter=0;exitX=0.5;exitY=0;exitDx=0;exitDy=0;fillColor=#d5e8d4;strokeColor=#82b366;strokeWidth=2;startArrow=classic;startFill=1;" edge="1" parent="1" source="k2nyes9qOIdSVH-O3ABF-3" target="k2nyes9qOIdSVH-O3ABF-26">
          <mxGeometry relative="1" as="geometry" />
        </mxCell>
        <mxCell id="k2nyes9qOIdSVH-O3ABF-31" style="edgeStyle=orthogonalEdgeStyle;rounded=0;orthogonalLoop=1;jettySize=auto;html=1;entryX=0.49;entryY=0.954;entryDx=0;entryDy=0;entryPerimeter=0;fillColor=#d5e8d4;strokeColor=#82b366;strokeWidth=2;startArrow=classic;startFill=1;" edge="1" parent="1" target="k2nyes9qOIdSVH-O3ABF-25">
          <mxGeometry relative="1" as="geometry">
            <mxPoint x="210" y="210" as="sourcePoint" />
            <Array as="points">
              <mxPoint x="210" y="170" />
              <mxPoint x="443" y="170" />
            </Array>
          </mxGeometry>
        </mxCell>
        <mxCell id="k2nyes9qOIdSVH-O3ABF-32" style="edgeStyle=orthogonalEdgeStyle;rounded=0;orthogonalLoop=1;jettySize=auto;html=1;fillColor=#d5e8d4;strokeColor=#82b366;strokeWidth=2;startArrow=classic;startFill=1;" edge="1" parent="1" source="k2nyes9qOIdSVH-O3ABF-3" target="k2nyes9qOIdSVH-O3ABF-18">
          <mxGeometry relative="1" as="geometry">
            <mxPoint x="170" y="310" as="sourcePoint" />
            <Array as="points">
              <mxPoint x="190" y="320" />
              <mxPoint x="287" y="320" />
            </Array>
          </mxGeometry>
        </mxCell>
        <mxCell id="k2nyes9qOIdSVH-O3ABF-33" style="edgeStyle=orthogonalEdgeStyle;rounded=0;orthogonalLoop=1;jettySize=auto;html=1;fillColor=#d5e8d4;strokeColor=#82b366;strokeWidth=2;startArrow=classic;startFill=1;" edge="1" parent="1" source="k2nyes9qOIdSVH-O3ABF-4" target="k2nyes9qOIdSVH-O3ABF-16">
          <mxGeometry relative="1" as="geometry">
            <mxPoint x="221.61944" y="254.14999999999986" as="sourcePoint" />
            <mxPoint x="390.95" y="400" as="targetPoint" />
            <Array as="points">
              <mxPoint x="248" y="254" />
              <mxPoint x="248" y="302" />
              <mxPoint x="391" y="302" />
            </Array>
          </mxGeometry>
        </mxCell>
        <mxCell id="k2nyes9qOIdSVH-O3ABF-38" style="edgeStyle=orthogonalEdgeStyle;rounded=0;orthogonalLoop=1;jettySize=auto;html=1;startArrow=classic;startFill=1;fillColor=#fff2cc;strokeColor=#d6b656;strokeWidth=2;" edge="1" parent="1" source="k2nyes9qOIdSVH-O3ABF-16">
          <mxGeometry relative="1" as="geometry">
            <mxPoint x="420" y="380" as="sourcePoint" />
            <mxPoint x="504" y="278" as="targetPoint" />
            <Array as="points">
              <mxPoint x="420" y="321" />
              <mxPoint x="505" y="321" />
              <mxPoint x="505" y="278" />
            </Array>
          </mxGeometry>
        </mxCell>
        <mxCell id="k2nyes9qOIdSVH-O3ABF-39" style="edgeStyle=orthogonalEdgeStyle;rounded=0;orthogonalLoop=1;jettySize=auto;html=1;startArrow=classic;startFill=1;fillColor=#fff2cc;strokeColor=#d6b656;strokeWidth=2;exitX=0.75;exitY=0;exitDx=0;exitDy=0;" edge="1" parent="1" source="k2nyes9qOIdSVH-O3ABF-18">
          <mxGeometry relative="1" as="geometry">
            <mxPoint x="398.25" y="412" as="sourcePoint" />
            <mxPoint x="482" y="280" as="targetPoint" />
            <Array as="points">
              <mxPoint x="301" y="313" />
              <mxPoint x="482" y="313" />
            </Array>
          </mxGeometry>
        </mxCell>
        <mxCell id="k2nyes9qOIdSVH-O3ABF-40" style="edgeStyle=orthogonalEdgeStyle;rounded=0;orthogonalLoop=1;jettySize=auto;html=1;entryX=0.49;entryY=0.954;entryDx=0;entryDy=0;entryPerimeter=0;fillColor=#fff2cc;strokeColor=#d6b656;strokeWidth=2;startArrow=classic;startFill=1;exitX=0.5;exitY=0;exitDx=0;exitDy=0;" edge="1" parent="1" source="k2nyes9qOIdSVH-O3ABF-9">
          <mxGeometry relative="1" as="geometry">
            <mxPoint x="430" y="200" as="sourcePoint" />
            <mxPoint x="465" y="50" as="targetPoint" />
            <Array as="points">
              <mxPoint x="514" y="200" />
              <mxPoint x="514" y="130" />
              <mxPoint x="465" y="130" />
            </Array>
          </mxGeometry>
        </mxCell>
        <mxCell id="k2nyes9qOIdSVH-O3ABF-41" style="edgeStyle=orthogonalEdgeStyle;rounded=0;orthogonalLoop=1;jettySize=auto;html=1;exitX=0.25;exitY=0;exitDx=0;exitDy=0;entryX=1;entryY=0.75;entryDx=0;entryDy=0;entryPerimeter=0;fillColor=#fff2cc;strokeColor=#d6b656;strokeWidth=2;" edge="1" parent="1" source="k2nyes9qOIdSVH-O3ABF-9" target="k2nyes9qOIdSVH-O3ABF-26">
          <mxGeometry relative="1" as="geometry">
            <Array as="points">
              <mxPoint x="496" y="150" />
              <mxPoint x="370" y="150" />
              <mxPoint x="370" y="33" />
            </Array>
          </mxGeometry>
        </mxCell>
        <mxCell id="k2nyes9qOIdSVH-O3ABF-48" value="" style="group" vertex="1" connectable="0" parent="1">
          <mxGeometry x="458.5" y="200" width="190" height="128" as="geometry" />
        </mxCell>
        <mxCell id="k2nyes9qOIdSVH-O3ABF-12" value="" style="rounded=1;whiteSpace=wrap;html=1;sketch=1;curveFitting=1;jiggle=2;fillColor=#fff2cc;strokeColor=#d6b656;" vertex="1" parent="k2nyes9qOIdSVH-O3ABF-48">
          <mxGeometry width="190" height="98" as="geometry" />
        </mxCell>
        <mxCell id="k2nyes9qOIdSVH-O3ABF-7" value="Information&lt;br&gt;Systems" style="sketch=0;html=1;verticalAlign=top;labelPosition=center;verticalLabelPosition=bottom;align=center;spacingTop=-6;fontSize=11;fontStyle=1;fontColor=#999999;shape=image;aspect=fixed;imageAspect=0;image=data:image/svg+xml,PHN2ZyB4bWxucz0iaHR0cDovL3d3dy53My5vcmcvMjAwMC9zdmciIHhtbG5zOnY9Imh0dHBzOi8vdmVjdGEuaW8vbmFubyIgd2lkdGg9IjM3NS41MDQwMTg5MTYxMTE2IiBoZWlnaHQ9IjM3Ni40MTEwMTA4NDIxNTg5MyIgdmlld0JveD0iMCAwIDk5LjM1MjAwNTAwNDg4MjgxIDk5LjU5MjAwMjg2ODY1MjM0Ij4mI3hhOzxzdHlsZSB0eXBlPSJ0ZXh0L2NzcyI+JiN4YTsJLnN0MHtmaWxsOiM2NjlkZjY7fSYjeGE7CS5zdDF7ZmlsbDojYWVjYmZhO30mI3hhOzwvc3R5bGU+JiN4YTsJPHBhdGggY2xhc3M9InN0MCIgZD0iTTcwLjc2MyA0OS43ODZhMzAuOTkgMzAuOTkgMCAwIDAtNC40OTkuNDQydjI3LjA3OGgxMXYtMjYuOTdsLTIuNjg2LS4zOTFjLTEuMjc5LS4xMzEtMi41NC0uMTg2LTMuODE1LS4xNTl6bS0xNS41ODcgMy43NjZsLTQuNDcxIDEuODcxLS4wMTYuMDA2LS4wMTYuMDA4LTYuNDk4IDIuNTIydjMwLjg4NGgxMXptMzMuMTc2LjEwNHY0NS45MzZoMTFWNTguMTk4Yy00LjEzOC0xLjc5OC03Ljc4My0zLjMyNS0xMS00LjU0MXpNMCA1My43Njh2MjMuNTM5aDExVjU4LjAxMmMtMy40MzYtMS4xMjYtNy4wNTItMi41NTItMTEtNC4yNDR6bTMzLjA4OCA2Ljg2Yy0zLjcwNS40NzItNy4zMjUuNDc4LTExIC4wMDd2MzguOTU3aDExeiIvPiYjeGE7CTxwYXRoIGNsYXNzPSJzdDEiIGQ9Ik0wIDB2NDEuNzM0YzQuMTA1IDEuODE5IDcuNzQgMy4zNSAxMSA0LjU3MlYwem02Ni4yNjQgMHYzOS4xNTRjMy4xNzgtLjQxMiA2LjI4Mi0uNDczIDkuNDM0LS4xNS41MjMuMDUzIDEuMDQ0LjExOSAxLjU2Ni4xOTFWMHpNNDQuMTc2IDExLjUzOHYzNC42OTRsMi4xMzctLjg5NWMzLjE0LTEuMzc5IDYuMDY5LTIuNTM5IDguODYzLTMuNDl2LTMwLjMxek0yMi4wODggMjIuMjg1djI3LjIzYy4wMTEuMDAyLjAyMi4wMDQuMDMzLjAwNiAzLjc3NC42NCA3LjIxNS43MDcgMTAuOTY3LjA4VjIyLjI4NXptNjYuMjY0IDB2MTkuNjQxYzMuMzg4IDEuMTQ0IDcuMDE1IDIuNTk3IDExIDQuMjlWMjIuMjg1eiIvPiYjeGE7PC9zdmc+;" vertex="1" parent="k2nyes9qOIdSVH-O3ABF-48">
          <mxGeometry x="130" y="18" width="42" height="42" as="geometry" />
        </mxCell>
        <mxCell id="k2nyes9qOIdSVH-O3ABF-8" value="" style="group" vertex="1" connectable="0" parent="k2nyes9qOIdSVH-O3ABF-48">
          <mxGeometry x="20" y="8" width="73.12" height="70" as="geometry" />
        </mxCell>
        <mxCell id="k2nyes9qOIdSVH-O3ABF-9" value="" style="rounded=1;whiteSpace=wrap;html=1;fillColor=#008a00;fontColor=#ffffff;strokeColor=#005700;container=0;" vertex="1" parent="k2nyes9qOIdSVH-O3ABF-8">
          <mxGeometry width="70" height="70" as="geometry" />
        </mxCell>
        <mxCell id="k2nyes9qOIdSVH-O3ABF-10" value="Security Server" style="image;points=[];aspect=fixed;html=1;align=center;shadow=0;dashed=0;image=img/lib/allied_telesis/buildings/Secure_Building.svg;container=0;" vertex="1" parent="k2nyes9qOIdSVH-O3ABF-8">
          <mxGeometry y="10" width="73.12" height="50" as="geometry" />
        </mxCell>
        <mxCell id="k2nyes9qOIdSVH-O3ABF-43" value="Consumer" style="text;html=1;align=center;verticalAlign=middle;resizable=0;points=[];autosize=1;strokeColor=none;fillColor=none;" vertex="1" parent="k2nyes9qOIdSVH-O3ABF-48">
          <mxGeometry x="71.5" y="98" width="80" height="30" as="geometry" />
        </mxCell>
        <mxCell id="k2nyes9qOIdSVH-O3ABF-49" value="" style="group" vertex="1" connectable="0" parent="1">
          <mxGeometry x="238.5" y="-190" width="281.5" height="269.5" as="geometry" />
        </mxCell>
        <mxCell id="k2nyes9qOIdSVH-O3ABF-22" value="" style="rounded=1;whiteSpace=wrap;html=1;sketch=1;curveFitting=1;jiggle=2;fillColor=#dae8fc;strokeColor=#6c8ebf;" vertex="1" parent="k2nyes9qOIdSVH-O3ABF-49">
          <mxGeometry width="281.5" height="269.5" as="geometry" />
        </mxCell>
        <mxCell id="k2nyes9qOIdSVH-O3ABF-23" value="" style="group" vertex="1" connectable="0" parent="k2nyes9qOIdSVH-O3ABF-49">
          <mxGeometry x="161.5" y="160" width="90" height="80" as="geometry" />
        </mxCell>
        <mxCell id="k2nyes9qOIdSVH-O3ABF-24" value="" style="rounded=1;whiteSpace=wrap;html=1;fillColor=#008a00;fontColor=#ffffff;strokeColor=#005700;" vertex="1" parent="k2nyes9qOIdSVH-O3ABF-23">
          <mxGeometry width="90" height="80" as="geometry" />
        </mxCell>
        <mxCell id="k2nyes9qOIdSVH-O3ABF-25" value="Security Server" style="image;points=[];aspect=fixed;html=1;align=center;shadow=0;dashed=0;image=img/lib/allied_telesis/buildings/Secure_Building.svg;" vertex="1" parent="k2nyes9qOIdSVH-O3ABF-23">
          <mxGeometry y="20" width="87.74" height="60" as="geometry" />
        </mxCell>
        <mxCell id="k2nyes9qOIdSVH-O3ABF-26" value="Central Server" style="verticalLabelPosition=bottom;sketch=0;html=1;fillColor=#6ABD46;strokeColor=#ffffff;verticalAlign=top;align=center;points=[[0.085,0.085,0],[0.915,0.085,0],[0.915,0.915,0],[0.085,0.915,0],[0.25,0,0],[0.5,0,0],[0.75,0,0],[1,0.25,0],[1,0.5,0],[1,0.75,0],[0.75,1,0],[0.5,1,0],[0.25,1,0],[0,0.75,0],[0,0.5,0],[0,0.25,0]];pointerEvents=1;shape=mxgraph.cisco_safe.compositeIcon;bgIcon=mxgraph.cisco_safe.architecture.generic_appliance;resIcon=mxgraph.cisco_safe.architecture.secure_server;" vertex="1" parent="k2nyes9qOIdSVH-O3ABF-49">
          <mxGeometry x="11.5" y="155" width="90" height="90" as="geometry" />
        </mxCell>
        <mxCell id="k2nyes9qOIdSVH-O3ABF-27" value="Proxy Configuration" style="verticalLabelPosition=bottom;sketch=0;aspect=fixed;html=1;verticalAlign=top;strokeColor=none;align=center;outlineConnect=0;shape=mxgraph.citrix.proxy_server;" vertex="1" parent="k2nyes9qOIdSVH-O3ABF-49">
          <mxGeometry x="168.25" y="10" width="76.5" height="90" as="geometry" />
        </mxCell>
        <mxCell id="k2nyes9qOIdSVH-O3ABF-44" value="Local System" style="text;html=1;strokeColor=none;fillColor=none;align=center;verticalAlign=middle;whiteSpace=wrap;rounded=0;" vertex="1" parent="k2nyes9qOIdSVH-O3ABF-49">
          <mxGeometry x="11.5" y="10" width="60" height="30" as="geometry" />
        </mxCell>
        <mxCell id="k2nyes9qOIdSVH-O3ABF-28" style="edgeStyle=orthogonalEdgeStyle;rounded=0;orthogonalLoop=1;jettySize=auto;html=1;fillColor=#dae8fc;strokeColor=#6c8ebf;strokeWidth=2;endArrow=none;endFill=0;" edge="1" parent="k2nyes9qOIdSVH-O3ABF-49" source="k2nyes9qOIdSVH-O3ABF-24" target="k2nyes9qOIdSVH-O3ABF-27">
          <mxGeometry relative="1" as="geometry" />
        </mxCell>
        <mxCell id="k2nyes9qOIdSVH-O3ABF-50" value="" style="group" vertex="1" connectable="0" parent="1">
          <mxGeometry x="48.5" y="200" width="190" height="128" as="geometry" />
        </mxCell>
        <mxCell id="k2nyes9qOIdSVH-O3ABF-11" value="" style="rounded=1;whiteSpace=wrap;html=1;sketch=1;curveFitting=1;jiggle=2;fillColor=#d5e8d4;strokeColor=#82b366;" vertex="1" parent="k2nyes9qOIdSVH-O3ABF-50">
          <mxGeometry width="190" height="98" as="geometry" />
        </mxCell>
        <mxCell id="k2nyes9qOIdSVH-O3ABF-1" value="Information&lt;br&gt;Systems" style="sketch=0;html=1;verticalAlign=top;labelPosition=center;verticalLabelPosition=bottom;align=center;spacingTop=-6;fontSize=11;fontStyle=1;fontColor=#999999;shape=image;aspect=fixed;imageAspect=0;image=data:image/svg+xml,PHN2ZyB4bWxucz0iaHR0cDovL3d3dy53My5vcmcvMjAwMC9zdmciIHhtbG5zOnY9Imh0dHBzOi8vdmVjdGEuaW8vbmFubyIgd2lkdGg9IjM3NS41MDQwMTg5MTYxMTE2IiBoZWlnaHQ9IjM3Ni40MTEwMTA4NDIxNTg5MyIgdmlld0JveD0iMCAwIDk5LjM1MjAwNTAwNDg4MjgxIDk5LjU5MjAwMjg2ODY1MjM0Ij4mI3hhOzxzdHlsZSB0eXBlPSJ0ZXh0L2NzcyI+JiN4YTsJLnN0MHtmaWxsOiM2NjlkZjY7fSYjeGE7CS5zdDF7ZmlsbDojYWVjYmZhO30mI3hhOzwvc3R5bGU+JiN4YTsJPHBhdGggY2xhc3M9InN0MCIgZD0iTTcwLjc2MyA0OS43ODZhMzAuOTkgMzAuOTkgMCAwIDAtNC40OTkuNDQydjI3LjA3OGgxMXYtMjYuOTdsLTIuNjg2LS4zOTFjLTEuMjc5LS4xMzEtMi41NC0uMTg2LTMuODE1LS4xNTl6bS0xNS41ODcgMy43NjZsLTQuNDcxIDEuODcxLS4wMTYuMDA2LS4wMTYuMDA4LTYuNDk4IDIuNTIydjMwLjg4NGgxMXptMzMuMTc2LjEwNHY0NS45MzZoMTFWNTguMTk4Yy00LjEzOC0xLjc5OC03Ljc4My0zLjMyNS0xMS00LjU0MXpNMCA1My43Njh2MjMuNTM5aDExVjU4LjAxMmMtMy40MzYtMS4xMjYtNy4wNTItMi41NTItMTEtNC4yNDR6bTMzLjA4OCA2Ljg2Yy0zLjcwNS40NzItNy4zMjUuNDc4LTExIC4wMDd2MzguOTU3aDExeiIvPiYjeGE7CTxwYXRoIGNsYXNzPSJzdDEiIGQ9Ik0wIDB2NDEuNzM0YzQuMTA1IDEuODE5IDcuNzQgMy4zNSAxMSA0LjU3MlYwem02Ni4yNjQgMHYzOS4xNTRjMy4xNzgtLjQxMiA2LjI4Mi0uNDczIDkuNDM0LS4xNS41MjMuMDUzIDEuMDQ0LjExOSAxLjU2Ni4xOTFWMHpNNDQuMTc2IDExLjUzOHYzNC42OTRsMi4xMzctLjg5NWMzLjE0LTEuMzc5IDYuMDY5LTIuNTM5IDguODYzLTMuNDl2LTMwLjMxek0yMi4wODggMjIuMjg1djI3LjIzYy4wMTEuMDAyLjAyMi4wMDQuMDMzLjAwNiAzLjc3NC42NCA3LjIxNS43MDcgMTAuOTY3LjA4VjIyLjI4NXptNjYuMjY0IDB2MTkuNjQxYzMuMzg4IDEuMTQ0IDcuMDE1IDIuNTk3IDExIDQuMjlWMjIuMjg1eiIvPiYjeGE7PC9zdmc+;" vertex="1" parent="k2nyes9qOIdSVH-O3ABF-50">
          <mxGeometry x="20" y="18" width="42" height="42" as="geometry" />
        </mxCell>
        <mxCell id="k2nyes9qOIdSVH-O3ABF-6" value="" style="group" vertex="1" connectable="0" parent="k2nyes9qOIdSVH-O3ABF-50">
          <mxGeometry x="100" y="8" width="73.12" height="70" as="geometry" />
        </mxCell>
        <mxCell id="k2nyes9qOIdSVH-O3ABF-3" value="" style="rounded=1;whiteSpace=wrap;html=1;fillColor=#008a00;fontColor=#ffffff;strokeColor=#005700;container=0;" vertex="1" parent="k2nyes9qOIdSVH-O3ABF-6">
          <mxGeometry width="70" height="70" as="geometry" />
        </mxCell>
        <mxCell id="k2nyes9qOIdSVH-O3ABF-4" value="Security Server" style="image;points=[];aspect=fixed;html=1;align=center;shadow=0;dashed=0;image=img/lib/allied_telesis/buildings/Secure_Building.svg;container=0;" vertex="1" parent="k2nyes9qOIdSVH-O3ABF-6">
          <mxGeometry y="10" width="73.12" height="50" as="geometry" />
        </mxCell>
        <mxCell id="k2nyes9qOIdSVH-O3ABF-42" value="Producer" style="text;html=1;align=center;verticalAlign=middle;resizable=0;points=[];autosize=1;strokeColor=none;fillColor=none;" vertex="1" parent="k2nyes9qOIdSVH-O3ABF-50">
          <mxGeometry x="41.5" y="98" width="70" height="30" as="geometry" />
        </mxCell>
        <mxCell id="k2nyes9qOIdSVH-O3ABF-51" value="" style="group" vertex="1" connectable="0" parent="1">
          <mxGeometry x="240" y="400" width="217" height="229.5" as="geometry" />
        </mxCell>
        <mxCell id="k2nyes9qOIdSVH-O3ABF-19" value="" style="rounded=1;whiteSpace=wrap;html=1;sketch=1;curveFitting=1;jiggle=2;fillColor=#e1d5e7;strokeColor=#9673a6;" vertex="1" parent="k2nyes9qOIdSVH-O3ABF-51">
          <mxGeometry width="217" height="229.5" as="geometry" />
        </mxCell>
        <mxCell id="k2nyes9qOIdSVH-O3ABF-16" value="Time Stamping &lt;br&gt;Server" style="sketch=0;pointerEvents=1;shadow=0;dashed=0;html=1;strokeColor=none;fillColor=#005F4B;labelPosition=center;verticalLabelPosition=bottom;verticalAlign=top;align=center;outlineConnect=0;shape=mxgraph.veeam2.time_clocks;aspect=fixed;" vertex="1" parent="k2nyes9qOIdSVH-O3ABF-51">
          <mxGeometry x="116" y="20" width="74" height="74" as="geometry" />
        </mxCell>
        <mxCell id="k2nyes9qOIdSVH-O3ABF-17" value="Certification &lt;br&gt;authority" style="sketch=0;outlineConnect=0;fontColor=#000000;fillColor=#005200;strokeColor=#005700;dashed=0;verticalLabelPosition=bottom;verticalAlign=top;align=center;html=1;fontSize=12;fontStyle=0;aspect=fixed;pointerEvents=1;shape=mxgraph.aws4.certificate_manager;" vertex="1" parent="k2nyes9qOIdSVH-O3ABF-51">
          <mxGeometry x="17" y="109.5" width="59" height="78" as="geometry" />
        </mxCell>
        <mxCell id="k2nyes9qOIdSVH-O3ABF-18" value="" style="shape=image;verticalLabelPosition=bottom;labelBackgroundColor=default;verticalAlign=top;aspect=fixed;imageAspect=0;image=data:image/png,iVBORw0KGgoAAAANSUhEUgAAAbcAAAG3CAYAAAA3lxvrAAAABGdBTUEAALGPC/xhBQAAACBjSFJNAAB6JgAAgIQAAPoAAACA6AAAdTAAAOpgAAA6mAAAF3CculE8AAAABmJLR0QA/wD/AP+gvaeTAAAACXBIWXMAAAsTAAALEwEAmpwYAAAAB3RJTUUH4wIOEDMhYj8xwQAAgABJREFUeNrs/Xe0ZVlW3on+5lprm3POdeEjva2qzKxKylGUBQpKeAEtFdJTqxFILSS1EDL9ZJ4o3nuNTI9+A0lPalDTSHqiZaBbAnmQEEiYoiiLKW8yyaz0Lvw155y99zLz/bH2ufdGZmTcmxWZFRk39zfGzciIe8w+e5+95ppzfvP7xP7X/6RFU9PYBJUF46jbRGg7QmFhqUTmngEDBgwYMODlBh0b2Gwpm4CtHO3EkDTiXFiiLT2CQEhARytAbRAU5u3VPvYBAwYMGDDgkpBZAmvxE4sHaEFwmNamq31sAwYMGDBgwIsKgxuC24ABAwYMOFgwV/sABgwYMGDAgBcbpmiHzG3AgAEDBhwsmKEqOWDAgAEDDhrMvJSrfQwDBgwYMGDAiwpDoVf7GAYMGDBgwIAXFUbaIXMbMGDAgAEHCwNbcsCAAQMGHDgMwW3AgAEDBhw4DMFtwIABAwYcOAzBbcCAAQMGHDgMwW3AgAEDBhw4DMFtwIABAwYcOAzBbcCAAQMGHDgMwW3AgAEDBhw4DMFtwIABAwYcOAzBbcCAAQMGHDgMwW3AgAEDBhw4DMFtwIABAwYcOAzBbcCAAQMGHDgMwW3AgAEDBhw4DMFtwIABAwYcOLirfQADBlwpVHcMd0We609oEFR2Hqey/cT+Ty56vi62fNI/Rgog7TxWARKi+fGJZxv+6uLFMAqa9rjNxO8c0/Yb7zr+xXEDuvh8kj9Z/jNedGyyeLGk+TO7Z+1h067zpYB5fk9HEbno/A4YcK1gCG4DrnlcKqDthqpeFH5E+wDXP884u/04SYpE3XmeKiMJACQBlURURQUSiio4rS56L2A74Ckgrrv8B4guB5n+2J7za9NhyIHSIvn/E0CEpMyM7HwmAOnPic1BnZQWJyoHZGO2z5soRE0v+JwOGPByxxDcBlzzePZCvJ9MYxFEVCB5v/Nc8oJvsDgRxAjz0PWBUAALxua/92+rcYZi8vsKz8rCQJO9/MEYv5NFysUBTkhgxiQRUIiqOfNKmp+jSmksihKTopJQdPtYSArWYraTVN3JYFXze10ijqnqEOAGXNMYgtuAA4VLBTaVyzxOwRh70b+pQiQR+wyO2uVyH+TMThViyg3rpHhb58ctynvSB7M+O6yby2duTVVvHwuaA9Ti7wq4Ltcb1QgYRQ2kRalRoGvDrvcziCjG7JQiU9opnD77/OQgdunW+1COHHAtYwhuA6597O4h9X9etDA/q6ckCrIrXTEh9YFDSNI/QBUWASJMc9BhkWAZECEqiBW2b6PUZ5HqLzqGxj237HcRQnjOP+3OmpJLfZkz7WR4cefDSjFBF78nZ58pJYgJSX1Q3PW6KjuvL8agcY/jM0MGN+DawxDcBlzz2CvD0JS2+2u5DHfxYp9CQKxBNZchtQ8SQsKIMIprQO6jRcm9t2TSgmKCCR1GQUzu2RkFNG4fV1tOLnt8dZhtH4ti8utrAu3/35YAWDWYnqRiFaRnvsztfDv4ZhKMoEkhJTQptigvOk/CIknMJUrTn48hUxtwkDAEtwEHBpfqES3YjNv9JZ61yKtSVDVJcpkxpQgpYhMUqlhj2NC4eDHQhKiiPZlDNJLKmoQgCIUYrAGLwUp+zyNxdtnjbouChJIwRASvEDXmoKyKtLP8OcSSxO4wJhFQZdlHokBAiE7AOMQ5RASDJSa/ffzbASzpNhtUjLlsj20IeQOuRQzBbcCBgzwrM1tkJgtqvPZEjNT/2fqYK43GUBpDZUsmhWW5KKic4zYXqF3Bqis5VNUccRUrrmTJWAqBFWdwVqisoXaWkXWURihNZjZW6fJlvUZy2TEgtDHRpEgT8k9MMI0QSMxSYj16zvmGs+2cDd8xj56HfEkbI5vBsxE8sxjpvAdNuVK5YIb2P8aY3JMzkrPFmJ4/sA3Z3IBrFENwG3DFcNaQUiLGmBfSBZsw5czCRiVagaKfy4oBfMKqYI3g1OTMQ5SIgBqMgtPM8mvqBgkJ5xMiFnH59ZOQ+0ri0L6XFDWRYt8zw+S+WdrCAEsY1oxwrKg4UZUcm0xYqSu+YmIZO8eRcszhcsSqLVhxBWNrKa1Q7/H59woALzXrMCk0CrOYWE8hB8BuzvlmyqzzfLqB9bbh9HTK0/OWU75lPSqbMeFVsd4RF4wZYxAnGGdJkkcdyrgYg9hVykRwksukc99fV6MIgsvMG5IqURQ3D6TKkUqTg+3i2qiBmMBlJqhJCZMioEQDahSsIGHQmhjwwiHyS788bM0GXBE0c84xYrDQDy4HiImUEm5kSTEinWKTwbmSVDimBjR5oCKTJRIQQBJI6JkfCdeWIJbkLMkaQDKhIigEAbMFojiJrApcVxTcNppw22SZY+WIr5isMqlKDk8mHB7XLAuMyTs7q0qMgl3MQ+uuHwADSS5PuHjJg1e6/PvbfkOgAmL68QYg5rYbtShJBC8wBzYV1hvP2dmUadvxmRA408x4aHODB6dbPN00bHhooxITaDECEmJM5tgYJUoEImjgEEJjhLmkPmAZiA6TDAaLuoRILuFKjEiKiIXkIFpBo8szeH2WLUr+7oT8/dFq2IMPeOEYgtuAK4Za189ehRygJIEFbM4CdMtDVYG1EFrwAVQQ57ACwThMzBmeSYqKIVohGvKu3htIEaLHxoYlA8fqipuXJhytJ7xp6TjHyopbJkvcPKo5UcBEwOQuFK2pcmJBJokIEVQzlV8E9ZIzFhESkSA9M1LyMyq9fPC66pmb9J9l0TdTIJmdWbgyf17dViOxxF55LwGGDQyOREFHwRmvPDFveXQ25Ww75xOnT/FUaPjdbotHQ8s8CqSCUXCMQ8HZat6fP0sllqIfKG8kEYyCtjnoSQ7CLuWgmyRnZmXnCQsajzFZUcW4PNagFoL/Es/MgFcyhuA24Iqh/UCW2Q4hqWf75RKTczUSExoTqkIU+gUsD0KLb6F/pi6GlIHCWIwx3LNUcuNowj0rh3nt0iqvmoy4qSw57gxWhWjTttoGpPwafYksATa4vu/UH+9iBrpvQ3nTYXtCSGYSSs6GesgeEqwvdV9qr+AYyT27xYC2irLQZEko41TvnhHf+WSJHAjLBGkX2cSYHB9lMVyQQ+DMK8/MOx6YTvnk1gaf3jrPY82U+zphFjpmoc1jDSIgFmstGGHiS+ZEvNH+mu+owBhjSEWvpNKfZ0mCxEAKMW92ij2G4AcMuASG4DbgiiHETKNXwWqBFYdjQb1PbLoZJMEYixQlSQzaRkynVEFodYNR7Tg8rrhpXHP3aMybl1Z50/JRbh+NWakjlZq82uY37Ke68hLuzJycKvYlS1z+vebSHMwwYhGzeAzoroBlt6n/5AxD+ycu5ueqq7u47pkZLmbezO7zk7Zj1259dOk/q+k3IEkjhY62n5fRZ98a0RSQUIE1O6d3V6xXEqc6xxOzli9snuezm5vcN53xwGzKw/Mp622LTI72zM+AJVH1zwuSWZ6psxiEov/WqEaSjaRCSEbJu6EBA14YhuA24IoxIdEBHtPT1PuUqO+jSRiBBlQbkAZDx0lnuWdpjdvHa7zx2AlurJe4a7TCbS7PcGESuEiDp45lJjMA3lgCeQjbAoXCeYECqFQpYt/zc9LT46GmH5LO0iM97d3mEpg8O2A+l/pur3LZ8QWVPXd/iMXznPTpakI19rqTbH/2dRIleUtQ9IFEreARAlBiyTm4EPr/syiVKkYFNLDYXCQcc4FTAR6bt5zp5nzg4Qd4LMz4bLfJA11LSBZkjNERhVq6qkPUID0BKaWEmpCP2yjSDcFtwAvHENwGXDFcF9DSEZ1FLRA78C02RmoSvlrmdlvzxnqFNy0vc+/RVe4+vMxNrkCCz4Gsl44CCCmXL0Xyjt5gQPOaHQRUIkaUQnt9qliAhWBYhDEcCZcUYsS7crcU5HOKjJKj5fbPoqS3YAZa+/IuizV9Nmb7suriz0WU3t0yXFBTlNz3Us10HrXg2ZkcKBWk/4dQ+55jk9M2m0y+ZD3xRgvN/TXyrKADSvqMPkTEOSIFp7vAF9fnfHZzxm9tbfLRjTPcv3GBzsxyD1AKsCVIiVOhDIoJiWk1BLcBLxxDcBtwxVBZlPI8pvMcE8NrJsu8/sgRbl1b42vWDDcvHea4KSDmABX7eBHagHF5HqwQs6P01NP6VZVocmYhWRok/9Jka5oEWPz2qrwoN4rsCkgXWQLsZh7mwmaiuOjzLIgn26xJ8zKnom+r/uejV7JrwaLnKNr1RBOzk+WpufTzTR4nzwlgHk23sdrJBqWXRzF59s6jjBbnb3G++muRBFqjuKA4Z3oWZH9tLawnz9lmiw+dSzywsc5vnj3FJ6ebPB092AJwWffSxKt9hgdcgxiC2ysANnjEGpLp1Tq21/c80OtMwkRBg6JRUZub/FFS1kk0ZHq3ljipsFHQLhDpUKMsywZ3rhzibUeO8fbVQ7xhZY1bxxMmi8qkvbKv2NVWp3+28uNCvgpyCRTx21qVzyGf6D4Coyw0IRdIuzIsxVLkquIlMrCEUnN1z8+VEmpEMwmlxfJo4/nM5hYfvnCOj5w6ze9eWGcDpcMQigJc/2mDRzRhHSQ/xboSFUvUfqIkm+1lEeqUxwyQtHOs/d8RgWB3tDafJUU2uCNcuxiC2ysAWoy27VFAcSrYFDFdBB+ZjzMtzkpBciYPz0aPicqSGjacpQwJ6zvaNCO5lttWJrz78PW8de0E7167geUC1goYC9vjABGYq2ey5xj05XHVF5fQhxJjuGQcuSgz7P9p17/tNYNsF44D8qzX04tfMxunXuIArvLpudLgNtVEiaFcfGYRgoEthWmCXzx7is+eeYYPPfMEn59OWTcO7BhMARjqUmlShBAhWYpkkaR0FnAJ12XPPrWGQN7AoZlNa8URpb26J3DAS4IhuL0CoNpbtqSE0TyUrE4yG8P1JUUf+xJcifNC6nKfhdJRzNY5tFTz2iOH+Pqjx/nmQye4d1JRCMxpUOx2n0WTx6gB69BeK9Fd7dV3z/OzFxtRdnpy/QZBewUOAHuRxU3/mv1zc9n08kPYz45hmbG565eLCqvqTia4/Qaar+Xljv9qbw72wKLlaVSR1AKJaBIBxStMdEKyhgZ4aB750NNP8Sunn+Ij0/M8EhvoRhAUMQ43yhu0GFtICSdCsL0SSkigFitZdzMiKIrIMEd3EDEEt1cACrNwjda+LJm2swAxhrJzFJp9whqZE2lYdgX3jle5Z3KEP3DjTdxRr3B7LYjAFE+UyCQV2GR3RNwkoRFUBWNkZwF+efMx9s48+uCwE6IuDlbxEnNwu0uMxR7Sw+Gi4G8u8Wq7RhX6x+zGy/z07omwmHmTXAKUZ+0QWsljGSYECrHgLNHAU43y1NYW/+GZM3x8eooPbz7DOd9CKim0oiKPnYgJBE1ZC8CZnQ1d7L359GI/vwVe7puCAZfHENwOAGSvK6gBUkLUUFqHMYagiQAk1V7+qOOwCbx2XPENx47xnhMnee3yMqvWQJegELzJw8IlBaJFT18kZ33O9hx+UCNs+1/2MoJfbuxeqK50kQrsMCgXY14G2ba1EXE5oUu7rsVuGa9qjzdYVMV2ZFR2/g5EFplFHnxPsE0YUSSX8/Z5LvbC1VnQ+56jCtprh5ntcQYyjbMGLRIdkUCHVUPRzz5aA/MID8zm/PqZ0/zS2TP81nTGk36R9vosGN1rYUpIxJAH952xtPbywU2HGHdNYghuBwB7BbcUbb7HSwdEaBvoOibGsVTWvPuQ5a1HbuI9x27mVRND2d/M2Wk6MDNCheK2/TATESHaLOO00MKAXIIzJAyKTf0/u71W9xcXL7ZiiIhcZIi6HXUSkJS2bHt/U8WSFfcN/UKtipfLs/1Ksb0DN9sKI3HhXgBUjJ79CS9rxvqifN4vJxZMV0n4Xm1lRxkFakw+1T271anBiCNiCIBRD1LkMYQ8ysjDLfz6uaf5rXNP8O9Pzdho52xGD4WDMmuVkgwmSpYHYwhuBw1DcDsA2Cu4FeUSbZhCnEFquaFwvGv1ON9y3Z285eRR7rQtVmwub6khtQnEoS5Ttn2K1JqlrhZi7krEbOtY0TPTQGSHhr5TnCv4cuKFBre9hInzWMBCmNhuy1ItYv1IPQtvNRWTRZ773wf2Ttw6dkqLlrStIkIva7YhRRZ57n9k8fhebiztWVV9Yavzlzu4xZiDvzEGkYXjeC/fJopK0ffHsj+d3X3yVQnlrgl8FGs164dGYD7j1NIqHzs14z8+dh+/cv4p7o8tSE9KcRXS7BBKns2WzAc2RLdrEUNwOwDYM3Prtjhpa96xeoRvuf5GvubkCW6tocRDavCyjInk5cMmomQquqN3lRaXB34x27NlKDhNGJNAn6vavkjaFmIYX048O7jtFezMHnNskUSH0sXAPCWalJjHwLTztCHytDeEqLQx0KrSAXNNtCkRojL33WVff1yX2fdNhMoYRsZQG0Mh4MRwokyUzjJxjnFRMDaWkTFUYnFGcHuc4Rca7L/swY2+SqD5u6x9S9gsSrT9HkrM7u96wtuc51V901f7hxOVpJZgLUFgHNZzIKPgVIAPn9rg5558lF879wwP+hlSjC/5uXe0Nofgdi1iCG4HAFo14GtIShk6qGv0VEs1Mbz55Cp/cmWZe45fxz1rhygVgmYVdmcKnMp2PwleooUtZq67GiFukyNSvxcHiQUY6CQTXwQoSH1fK0GMYLOkl/bPEgXZNUMWJTtZq2ZnASOG1K/5TsP2gDPkIJ2AoEqMkSfVsNl1nGlmnGrmnOk6znQtZ9uWra7jIQqarmWjbZmFQKOJFmhVCVH34EKyJ1V/D0cdVJSiNz+tFSoxTJxjeVQzLipujJ5JVXG0qjhaFpwoC05UFcfrEatVxZqzFNZSsMj+EtKLWoMQpMCknaCiklAjFNsZeOoTU92WJdmm2MQEZoSmRDIQxfQyy5k9S4TGdmTzm8VGJ/v/5SzXvCSbn90BfXtWLfUEEmdpgcdmcx4+e5p//PiT/GK3xfmzc+xSTXRQTyvSSOj0PMLSS3CEA15qDMHtAGDcWvxkTOcvsDo7y+0nj/JdN93Le46c4KsUnhnBMjDpfbLUKlEkDxxHvUiA46UIbp5e1GJRp1ss5o6sdBEiTnqXgNTnfJJIVmkkUqfxQhayX2T7/p5oHuQVm33X+trUIih6jXhNPNhWXOg6np7NeHQ25eH5jMfmM55pW7a854k4J0TFx0QUwYvr7VlyuWtkPDFGvPZqLM4ixqEms+7sntFtr1tsD9V/yTNZRsjWPyEiGrGqGGOYB4ds+8PmwCWiOGspjOFWGbFUWE7UY24cVdw6GnPzeMSJ8YTVquAO01IZR1kUPUklq5yYvtQXTe7xRRVUTCZm0F9PwBuPI2H9YhYijzJov+GwttdFC/3QtBNwbGt/vlQd2e1B7D5I5+HvmEvMhTAHtpJyPAqfKeBjj5/h5x7/HL+2eYGtuEyoJ1RdRyfdlRzGgKuEIbgdACyIC2+bLPOjd72Bm44WrAFlChid0doVqkQ/yxYITlBnc/+CF5dZeCm0Pd8QwGK3VTwMEKMitunp9BbBbTPl1OQFUHrNwrxsmu3YuMg9gsJZ3/HYfMbDTccj8zkPbM744uYGz8xnnImCj4qPgZASSQQ10jMPDVpatiVAFAw2s+qwiCpd2ewMwSuZjADb4sR7ZR575nZ7MBZS6mt0i12IpIumxMv+eJJK/lloX0l2Ly2baX8csb/WOSg6Z7DWcmMBx6qaW8cTbp9MuGVccft4zC2TJY4VZc8OvZjIudt1QNVsb15ivsgooQ+TCZcqkCy7lvc2abu3KDFR2Csb8r/sqe3HXxb0XQt9kDXbc4lTmSJUjDuHL+C+qfK3Pns//+zph6EuETMskdciBovbA4CjEjhrAkuu4M1rBYZAB6hPYPuGuSt6lfUCK9ClkBdmcS+5wkW1mAWICWIWs0pWCFbACi5kNqA3KY99m6yQiCpGE0kUSULsDBfawCNNw+dmm3x2eoHHuzmfmyrr7YzzszmzEPBioayJzuXPD1l1xdisU2i0X+Wy47dpdgS2VCBpJC3kmIyAL6GnkefPobksanJ20+1ZmNxjcdyjJ1aJzSMbIe2MASwyXaAzW7tGDwxGLVYzE1DU0CzHfvjb9c3QnJV2WFDL5+czPj+f8sELU2xM2BgZOWGlqJkUJa9fLbixWuLe8Rr3jJe5sa5YrQy2TKhRkm9wrkJslmwOWERdDngevAs581ShSAFJObhi3Us+JiIi2N4YNdNWBOvIvnO9C8FEy3x+XEuUjruXlrn1kGF8PqJFohksd65JDMHtAOBMmMPYci55TAB8g45GSFkyExi7xRxRHtxOQGnKbVV3eIlJBFOBSojOEGw/+paUMvTMNOcxKHXqeYAKjSpPtjPO+RkfPuV5rJ3y6fkFPjuf8oT3JC8QHAQLZcgL/aTCySgrosRE9B10AV3yWTQ45cXeBoftBJKF5PJQL7nPlE2sc4EzG3FntRYR2cWk681R++xo73O3h5P3HsEvSraBSQtR0N5lVfqMr06TbQeD/CshGfB98Ku2SjDaB3hIxqMmoT0zMaUC6dkbwVk6LHPgnCRMbPnsYx3YDXCPIi5xfVVwT73E60dr3FSNeftxw5FqwvFixBKOUgNYzdlxBUVyCzIp4srFh872Qx5kxEsMQVSJGlFjshmtXVw3ITUG40BdxTxuUmjFU36TWerAG8TsNUk44OWIIbgdACy7E2x2gWdSy7kSDktFImLUUgkElJgiKSWMMTmwLZ4sXwZ23Lgfg9ZMTHDkHbs3ieQTUPN0N+O+9Q0+vzHl81sNn5/O+cLWJqfaBieGuAgBVsAWOFtSOEOBYSodEc0l1yBozBJLdVEjI0vjt7YPZdH2izazwUUgON0pDaaUqXkpZiKMQlnlxS2hJFVSWshx5RXa7DHqcKVszWB8r2tpFxesz4Ty75u2pxRKdrnGpJ6Ak4Nh6+x2ZicKEi1GDXahvOIqrPaTZKJ94IuQAikqy5PDRIFOPSEGntjseOL8Of6LXMjyVp/zHB2Nec3ShLvrEXcv1dyzusRda2ucrEaoyUXnUgRJml9XsmdcclDsOYZ+eewpbqwJEUNh3MLMiNAXxyPQ1ImRGiR0jNwSUPLwrINZyfWT4zxlLlzR8Q24OhiC2wHArG0Y2Yqp73hqM3J4HDGFRQ20GhiJw5pMulj4fGlKmS8hYPeoDV3pUPRcAhbFektpKmYWHvAdnzj/DA+un+VXH4+cDg1P+BlbKWS1E1dCMYJyjPUtIgnV/pg1ktKMRiOtJjQez9O7RkECseh6MdwZufR4tP8giaxW4VECSOZeEno2hoIRwYrFmB1FzCYsCAWLPtbCjBXAoHGPOTm5sswNit3NLohZ1zKRe28yqhDNgcOo5PPkdxTwU9H1F92ialEpSFL0qamB8jwhpBzxk4XocjrVlzg341OIMYi1ORAbC0WBobfQMauc0cSZWcsHtzbhmcAkGa6zNUdcxdfcYLlj+QhvWjvBa6oxK8ZiTKSVREvCvQhD95cNcCmC3RE2kzwxTupLFxUNhdSQDNYn1MAFFJmMecYOosrXKobgdgAQl2cEr8xjy2alYBwmeCQUjF1/iResh95PS3qF+0B6yefQZt2IR6YNv7V+mg+dP8OnNjZ4dN6x4VN2ZR7RO2QKUFImwcaAdhtETbTG9uW/xZGW6PbCKlh3nqT9ELkaXDSYVCBSZ6cePQeSbU1UirzAU6CaF3eXsrxV1NyXi2LxQu8xo1gnfaAw/QgCaMqlz5TSSz6jXrSLEYZe9FoF+mAjIsQ2oZI98ZIaVPsMxdisu+xDtn4hD9kj/eReFgKlnC5jNGs7RhMIEkimy0FBEsjhTIpJ9LYxEVGIksW26zDN2a4RorN4a5hq5AE6HpLIx74ArthkqXqEk5XldUtj3rZyhHeuHuOO8QTGLw5h43kDXNHLa6EQdjYbJvXjDh1oZUilIWAJc9jYPIdBiWWL+C+vCMGAFwdDcDsAME2BLwpoLWfPbuJvWMOlRKjB6vaIbL6pd13xHEoM68BKADykEZiUmW5BPDNxrIiQNJAFSmyeL1NLJ0InUDPDUUAqQOFChM/M53zo7FN85vzT/MdNmLcN864FI0jhkF7A1rJL2aovDXoBL5kdqKpYUxG7OVomqApoPXQ5w0tiUK1z8NE8S9dZyPz8XvbKTCCC8QETOoRIaYSysFTWsbY4H2JJRvAo85TYCp4m+N6ypi9FGpOzGBHU9n2spBRFgWIIXQckXOEwJELXgqtQV6JSQgxI6HCSEGOIVtBLSIzsXqSDu5R8l/YETu2JgNqblO7OIj3bMXr7WYv/WAQLAt49m+ouWUxYbD8J1+18YRbHJjv/0FpyGRRyJtm/PmTtUlmzxJg4nyLnZ4HPb835V0+dpbBfpC5KvvFQwWuXj/DVh67nzStj1hZkH9vgCRBXMjmlb8kuGJeF5r7j1ATGROZEahwm5i95YyMFCdsPGxh4zoonCKkcI3TYUOJd4AwF5+KY5BLWOxKDWeq1iCG4HRT06+Nsx4l03yTI1fkUXImOLDMMtbEUHlwsWK57SxLJQsmRiDEJI4EyQuk7zpYTHprP+ej5J/nI2bN86sIFHpl71pOAWMY2CzVL4RBr8jB2T4DIa+Tzl0VFhEIaXOEIUYjrHlBMXSMOYtcg0uC0wMQKb0cko6ANoh2TFLnFVhyva+48epw7V1a4ZXnCdXXNMedYMkJZ98eTJKvHqzILgalvaULk4a3Iw80Gn9w6x2enGzzRNUyjgWSxyRLrGr9gRzgocQgmZ5wTh22maBOxeErrsM7hibQae6uW5+bOB8kkM4WQS77GYIzkge+UlSLbFPhXT17g39jTLBX3c7KuuHu8zDsPneDrjtzMPUtCaTeQRXqcBBcAqUgu+75NGgfiGBfZU7fpjSqqZBDP/gfpFEBoYuyHzPWqe+UN+NIxBLcDgOw2nMtm675hZyKsJ9btUfWZjiwTQEJgkiKhLLLArMnrtZcGcSXOGJxafLQ85OHDm2f5xMYzfOCpOU/P1nmimRKtQFGBqTFicVjmaSuzC/usJweSPgjvYwGP0w4/KqByuMJRR0sbAynCkpmwVU8yMSW1uOY8J0vhDWurfO2Rm3n90iHuPTJhbC1jV+a5PtL2lFYmyPcL5yLGCsQC4miZBLz9cKDk+qw57eHBRvnQxmnef/5JPrd5ls+dP0tnDVqOkKKk64C2A2uxk4q4UkGrxC4xF0/WTgQoKOyYoNNLX9eDEuDSLpNVI9tszwgkTRT1cUiJTd+x0TTcf/4Uv/DMWQ5VD7JclHzDiZrXr5zgncsnuK0qGZdZEk2ImBRIRU1nM+FnhFC3bM+wNY49rXKzO9PCQy9xoevokubVMelVcbUYcOUYgtsBgSioCKf8vPfUzAv3froZojWdQGnAmEgEWpRKBA1zRnVBl4QvbG3x/tNP80tnz/CbW1Oeanye+aLMvZ1iQm0NBqXTlmATnQM6t+OJFuPOQLTJCvp7Cf/6lRWWsMR2zjyts1VUjCiIAbZcwFyAUue88egSf/BVr+WbV49xUyfU1qEjSLQUKKIdGhKhH9R24sAImseedxZhEayA6YeeO1G8BqwKVWm5pxTuWT3OH77uGE30fHxjxi89/Rj/5tTjPNA0UEwoxmNs9MT5lNj2E+nielWWPDBuglB5JVzmLnyxHQ6uBqRng2ovd5ZHUsjnXoTkNzHGUhWClDVBC7oYeGbe8czWjAeeqZFqnROjL/L6lQlfd+wo7z5ylNcsTVgzDmYBN84ncU5DmTxuVABCi6Xe7zJnssjAed8SNIuIHYTz/0rFENwOCHJws5zy054R2UsgbesAPj/GDYQRtHRUWlIpzBSeNvAJM+eDH3+Mj2+d4qOz02xqBFMzMWPW7JhgYKvczAaSYokhQKcUaqm9I3rBFz0fMOlOg830BA9kW07rebOU0LGliokwtoehEGZmC5sarrclf+jOk3zTDW/k3SurlD7itSEujXKnZAZlWe2a5wPnMjEj9oY9fqGZsuj1sKMqoqrUqe61MRfDwKEP5olJAe+o13j3sTX+wuxefvHUk/z0Mw/ya+unaaJD7IgJZWYqhkQMkVC43j07MdMpB732tVtpf6GQsptxWkoADXSp32Y4AeuQqqBQYeRrrCaaGPkvZ87xi888QmkNb1g6zmtXj/HtN0y4rTzJ64ylNDWucszpGHnNfoT7yLwWepgO4WxoiD0zdghu1y6G4HYAoAKuJ7Od6mYX/S7Jjgbg86LsmNGxLAJa8stPneUXnz7Fx9bP8oHzD8P4JohKYY9RjxwdgamfAx7rLK6rCYGeak/u3zlHEwI0DejOHJPIDstRVXMmdwmbkYsCnayDmVDFEb5J+GaD1WX40696NX/+prs5YRqSsZnWX1gKRhQkAh1xnJiRB7uLHTZFJgHGhCQwptipmtEfzkXxJvSLcbayMWqxYeF7I2jPqr9u4vmjtx7hD1x/lA+sz/mHTzzOv33iUaajDkyZFTmCYHxCQiI5g44E/AEpPz4PUkoXDcFDL3/WZ/DdyGbuTzSZB+RN7xyf8GroqjNZUUQs1GNqPUHqPB+bzvjY/HH+j6dOcXd1jK8vj/PaY6v86Ztuph716ieLqLUHFo45Vg0XQpO3Lwf4mrwSMAS3A4BtM00rnO9nsl5Qm6C3TRGB8xZ+7PHP8nOnzkJxGA7dTqlZzsuniO8iRQQbHb6E6CwmVBSmHyQOLXHeEE2DlAZdcTDT3G8DFsHFIAsVqD0x0WWCD8zNOoeP13zPkbv5i8fv4MYRNFXHnDorzvcT2kYFTMK5iCM7IAimJ65YIrlMKqbEKsguhuGOAfTOgS0MVYSE00yIicWOtmXVgq+UQKSQyKRyfNPxVe5cXuVP3XAH77vv/TzeNpxCoBqjWiBdh4bYUwDNwemv7RNmIdWZFJnbLHZtJGfHmoWiiyQUCebFBNGAxiwp19gGTC4lTzQytSf5/FbgPn2Um8XyzdfdyEnMtgTonsqVvVdO0vwdWg9dVoMx0o8/DtnbtYghuB0kqNCksOvvWSx3T0e1WCDOwTSwMoaJ1mBHWHFEhdg0Wc3CWhRDtAkpQIiob6jMlLn3mQ5ejTCjCvGJFARifpwhLxQx5cHjBJk5aW3WnLwMpmEF057jO08c4a/c8zresTIBPC0JS0mt9DNZEAposBhKKi2RNs+EbyOL+vd9ttSr+vclsm3frp25MoCIy4sxOw/JjuOZVRcrKLAUsSYkmNms6HXnyHNnFXnX8W/iJ+97hB//4hf4gm/QsgZrMCGhUbbf56AGuEXWtiASCYKYrLKSjY8yPWSnwhBRAW8gGkG3ElZcFrSOhhiyNmmUyJbRTGDy2TgwucSJwjDCkzRgQk+O2gML/8ECmEffV06H4HYtYwhuBwCqhmg7Ck083i7TaGJiLSoJm6o96ZLRQRlhPrGMWjixMoZTZ4iVUrebtMVueaRFLwoWs1KNgLiebx0WARXELt5XejsawO4EjrzQgaZlKC+A8UzmI6Yk1HVUdkK3CTfXj/Fn3vwWvu+GmznsgXaOrxwlBeJjbqIZm21ayMzvzBRVqMiST9bsmGLGXni494NT223PyRmxQCLu6gNaLbaVXfqPQ4Sse28M1fbQtGJNnknPBpsWGFGo58+++ibefeMR/udPfpyff2adZnSEZBVsh2iLaQ2mHhNSSxnnUAitqYAJEi4uNV+LWJScF+SS7e+D2Taj2ZafFtz2uc5euTZXLbdD0PZlyEGonZNKSEm4c1rkWEeBSQUULap2+1peCq1ApSZPcxvDg7MxWE/RVQRrGGLbtYkhuB0ESC4JJpSQIj4GsCVg9mUibIAkPalCoDQLy+Ns+/JSowzrxFRSBmFadtTlMklWabce5ztPHuFv3vtebhnDcgJo8BYSBZ5MQCwgDw/3H3Yn/8rDxsmGi2xncrnK4EnMo2dZRz3DNFvswE65VIGUNihsmRVSVCAqNmZmHcZs30XPJh8sFtNCCuYorzY1//QdX83ff/o0P/TxDxLLMSMdE4LB14EYZtC2tGvL1NEgpy+gR5WBi74P9IPlhXULJbUvAflZIexYNO0OpgOuLQx3zUGA7Ox82+BpY1roVeyrJ54tYXIehoWJK7dZFfHL8A3REZi6ZD6uWQ416hPduSf4oTtfy0++9R28TmA5JpLpCKWhcCOqBKVXbK+Tya7Ats0HUSApJlhsMlh1vbG39qMShtpWdNLiacB0WDwWjwstrpnhmhmlHQEWnwKtBrwVYlmgpUF3K7705bfnZAgzzygJMjLE+QZ/8fgx/vPXfiP3dA3z5hx+VGNC7leaw6sQa5otKA6vUQ/qGHtCtTdWVaiKgiwv3X/399HU3dm+GaJCE4ZzfhAwBLcDgEU/CGPxSWlj2CFE7GcLu6vXgcDE5hVbkH0RPq4U3lT49jw2eTaXa2K3zj9685v5m695NYeTwVdzZrZji0TCZcmUBki99NSz0lNVzWLGC+q5CkkMrUBnHMkUSGexM6WcKiUVlpKQLF5tdpy2Duoa6hqdF0gsKBhRmhqrjhQDof+5FHYHujS2dCjlPDGuR8z1PO8uC37+G76D71o5DNOzVCjVaELa6pDNBkYFXaHZxnzA/qCRyprtOc8XBMnSbQGlCR6MzbJlew1hDnjZYghuBwC7+xkt0PXq+fEF3OAJkH64dmItaMRq6ie6XloU05aleoWonuX5Wf7V7/kGvu/G64hhkwsIyYxw1IypKDXPLWkN80qZPyuzUc2zdItxA4xAEYEOSZFioXNcALWFUZZostFQqqEQQxSYE9lSz5Z6wigbB3hJePUgEWcNhXUUdu/K/hSP9R4qh0pBFUo6B4ct/NSb38Wfu+UOwuwcrUApNeo6TBVgc0ojg5fYfiB9ll5Y289ThlyefCGbM+MIYmhj2u4ND7h2MfTcDgCk53MlY/DB0yVdiP/vD0lRK6ARjKM2uaG/qOq81Mmb1oGttuHWquL/etPX8DZr2DJzrNSsIXStUtq+2Nhr+kagVhCNqDzra9wrX0DuoXU0FOIoxfS1W/AovhY8km3btunn4MRR9bRwALVtz6xMpBgRsYgtSSKEJBS7CDuXIi2szD3T0RIOKDcVszTBAJPQIeOS/+W1r6YLM37i8YfpRiuMqppuuomUBdYURO0YsA8kpbIuz1v2slk9y39/Tye787UxZFufSO+wevAYrK8EDMHtgGAhaeST0sU+31rIHO0FkW0FETWJ2mQbR1msDC9x8hZSx6uqkp98zZt426QgushSWO7ft80KIwCScr8sGuyC7LLQANx1HsSY7Xm1JnqW0hKdgS8GeHA+4wvr57lv4zSPtVus43km1oTOo76jUmHVlhypxxwbLbNaj/m6seWGw2vcMpmwYqBMQEgYyS49u7ODSw2ih2rEJCYQJS5bbAIJ0BUWR8u4Ff4/r38Dqso//uIDmOVjYCrUJujmz5plGPBsqCpGhIhSut7Q9QXA5hdBewuoue9echujAS89huB2YJDLKHGhaM4LuMUXrOz+z6J/LdsP1r7UnIYT6Rh//557edeJkhbFa8WSATQxtZFRChijJA1Y6+jpAjRAtLJtB7YILD2VhkY9867lHzxzik+fO81HzjzNg6EluBpMiekU6SIUiUTMqhlGITQw30LOPY0o/D1TsybCvVXJOw+v8nU3XM/rjx7mCIKkFtG8Ej47a1scj0uWKB5Mg6qgMsEaYRQsOCVUgdXO8/fe8EZKu8SPffELsHqcys9pi01EJy/tBTggEARrL94I7Ed+bvdjo2bCEcUwAXCtYwhuBwAGQ7IR09U4N+eRmHgT0GFhZ7rreeEN1ARaW1PiWascxlS0cQamRDVc0XCxpgIXLiCTGu9LnEwI/izL1rIZPP/6Dbdwy1HHjIoRUGnvCGpgREX28YYqBZDIzBSUgJsn6ioPYM9jRI0yMo4mwa+f2uCfPP4gv3D+SdZ90VPFC8SWeaBcBSkNlDbLQ+EuXgR3LZKFg/WofMB3fOCpp/lbjz3Cm+oJf+jG2/mWW27hrpFHooUoqA0EoxQIREcwvVSiLeiwiERCbClMnetgc4cbQVcECix/59Wv4vTWWf7lhWfALYOOcGLw+Ox+3cI4lnSF0OkMJCL6yr6NxWm2xPHr3FxXRDG4/vpJKvbc5UmvaVmIEFvP2TJhgyXGgAxZ8zWLoWt6wLAjTvulQXgWnf3FEI51Ceox0nmsDQS/xUl7jM2t0/wvr3sd91x3C0ftiAqIIWy7Xi9ksEQDVZtobUVnSsY+l5JcbdgyDTQXGCWhVsd/ePIM3/7rv8J3/Nav8LPnzhHicnas7g1Gd4v4xhiJce+01LdzXBcZq6OuJ8TJEr/JlB987ON8/Ud+jh+470G+sJ5VLbyJbGFpcESTcDS9qjWZsBIthS2ZSmBmNU98B4dKBTEyreCvvfFtvNZCWwZggnYBSQIhkkxi7jxeW9BEYV7ZgQ12Eaq2Gapfwmv0z4mqOwPmA65pDMHtAGB3MHtOcPsS7nQRyT2tL30a9lkH2JGikIyj9HNGTni6W+dP33Qvf/7mGzmEy+SQELGSPd8WWn8GKMQzMy1FMBg1oFk6a0MCS76mGa3xX+bn+W8/9ht894ffzy9vebrl64m2ZBrnl5w/W5ynfW0EVmt8bWhiC9OWogPShC6OeXpW8I8fPcXXfvpX+WtPf545FYeSwXZgUwINBDrm4omxgzZlgeBe9XKBwgtqC8Z4Xl10/Og730M138QlwFgKW0DICh2x8Kh6imxT8KJ/n65VXCq47aviYGS7Rxs1ETQbqQ5EkmsbQ3A7YFDV3HP7EjKuxbjYJQeRrwQpkUIkmApSBbHhjlX42697HSMatPMQY35fa/oxhsx4E80yWa4Y4R24oGgZiUTGc+G8MfyVRx7nT33oY/zMqbNsnbwRxiuwvkkVPZOJu2QQe96B60thJnlUwBjURFQjFQUTWWbZHqKdT9nsRvzwp+7n2z/4fj621VFY2AotU1PhjCEhtK7MNc6UJcKWVKDrCCSMBZvAtR3Rer5uNOGvve6t1PNzBCsEWyBpN4NPKbD4MGQZsLPBM+ZLW9JEcoCLmoi77h/dj8TPgJclhuB2AHDZzG0fMNuEjP7vvLhlyTFlphV6i3fLRKb8+GvuZVxBG0doYVFnSdbgUSKKKFhZ6PpVFAmCQigihAbbWR6xlv/uwx/mx3778zxpVpFqDdY3EOlwqwVtaphubaE9ozGh2/+vvVlmHhvgsj+myVJbsXK0tRCqRGsbpjJnM005NBqhKmDW+MC5db7xd/4rP/rEY1TlhIoCWoWUTWBDz8KTqFhyQ846TzQgM9BigtWSxm/xF268ge+8YQ26hhQbsCUVWSTYJJMDvxnm4Ba41GblhWzSlJwIxywyyrYm24BrEkNwOwDQfhZndz/pxcCePnD7REoJrMO1iRC2+JN33MM3Hl5jLlsEC9Hotn1MTBGL5B34oiyqMG8DkwR4D26Z/zrd4j2/+vP85wvrHFpbpWuniAnUE4fONwmbU1y5DPXRy2Zp+zlXaVLROcVHn9/fB6wmCgdFbTivgSZtwXKiXj7O+tmKv/TJz/AX7/sCfg6YkkmsMN73AU5JBFQMrSmAhPGBdin3EsNWxFRjnE/8lXtex73WQruFOqUyZSauqObsdiA8XBJ5k7fPB6fnZvXQ95+H2HbNYghuBwjbN6VcNHi17+df1Krb9mG58uNqJCEBjGt563LB+269i6AdI6kogJQihohJiRKT37uXFIsomxoZF47WRFIx4l88eZbf/7Ff4RFV3HiF8915zEgwKO28Q4oRUlVEH3A+XOHRgwsdxkckgEsFpZZIMHgf8bGj8hWMxpiNGatbLasnjuGt4Sc+/xnee99H+ZSNdAVMKHAkApEk+RwHTQTvEHG5A5dAl2rKZGgL+IrxMn/69tdwrAS0zQ+QhBYQ8Bd50b3S8ewKxgt5nqHXJF1shBYUy0F+65rFENwOAJ7PwfoFtc20t4bRFy/zW6AoSzQFOjfnL93+ao6nDutGoAVl21AZh9HsSpAJI/SWMaBWqAqlTVtUYvknTz7On/n4B9kMKyxNbsC3UyiKnBG5Ai0nmA4KH7FlJExmly3V7qdspRpIomhhCHVB50oCDqHEyphQCbRCqpd5pu5Y33wYWylu5Ri/9PAmf+ND/4lHYj63En0ujwYPASbJUEiBOpjMZ2w4n3ufHYwwBFH+2Ktv5vZxDWlOSD7PFlSQUocNg3oJ7Jpx/BIC3O5vgEj2lcsB7sW/FwZ8+TAEtwOAwpheXaRBtETSPM9xadz2LLscogFEKZ1AjFSuIhqIRLB7BwBRg9ii92gLYA1WTBYvBkLbUCC8e/UY33X4OmwVaQWYJmZVCcEABkwk0GTT0RB7L57InBmVLPHTT7f8+Y9/kvNSsOSUrbABrkJSfwwhIrEjlYIvLDEYpK2umCCTxCJi8vv4gCSP2AQmkrSj7GZIbbJ8WQeMVsFNmMdEPDTmX60X/IVPfIh1ByE5HEJRKODpFHD9Ajsas0JWtacmG6mqoQ5b/PU735Vlw6yn9C3MhLSylAfOX/EwIJakeYhb+w2atbK/4GSyE3pSMOIQKUgh5vEROxBKrlUMwe0AYMEGT5J/FioNIl+Cqr+a3FB/QQegpBB6TzWHTb0NDZmQUZQjTNjiz9zyWtoCEpYaJU0M42ToHDkwBCFZRxRwRTaodD6y6ld4P4H3ffg/4Uc1bjJhSz00PmsiX2XMK4c2AZcctijzPN/GFtW0wc5m1HXJhx95mr/8uU9SWosJCWTEzEf2NabmKl6zOub3XXcLvtvEuHG+0F6zBuIAgG23b5EXRiRZPNdIr8oD2+nckLlduxiC2wGA5mZBf2PvSBClxe/2gOwOZkYIMe7c1PuYoxILxIBLUInFpDyOIDaTQrqgvOvwIb7r6AoqHSlZwOSXDoqSSL1TqsX05qmaVTnE8XgL7/vIL/NoDTGYnNWNRzCbU9UvAxFAJzBrqMWSjKAaYFLQTSyMCoJ2nB8f4icfeoK/9+AXcVrSRIOMa2DvnmCg4OYK/tTNt+IIRONAHGVQ0pfBTPZlj/6rKiL4lP26F4Fuf89XhEXfLWHQPtjJwJa8hjEEt4MCI9v+ZdbanRt+38p6sk2P9zH0QXGfX4+e2CgiaEz4FMGaLF2kCk3D99/5OtCWUhQnlhbFxQ4KodJEQJg6xTYJSYl5ClTR0ZSGH3zos3zo9AXq0THKWIAYaFpW1w6x1U2v9pmHGJisrrK1tYnDYmxF13a4lRXitCMQGS8fIaaa9z30KT54fjMPrQM2PX/quS28HEHwvOfwCl936AQ+djjXz+8NtzDQsyON0HmfdVVfwLyb7krWRMGkOLAkDwCGO+MAYMdrNCFJKVweFF4Mpu6FRQDsOQ+0Pux4we1j5xpNFh0WEYJkqdo8/KrQttw7GfNNxw7T6iYGJQqUUSAZmt4QslQl4noWjDKWApeEf/bUQ/zUEw9QHr6OuNHl8YRksLbMXm4vA0KFpMQ0zjGTEc4nShwUNf7CjBVqKMZw9hSMLPP6EH/58x9jZsHFOeLNZTMMEaFM0KQ5Tlq+9/pXQ5iRTMCTGG7hi+H9jrurqu4rSIn0plG9wYQRgcWdMwxxX7MY7owDANn1XyNC5Yqde3Mfz99d2FIxOXPrg6PZT+aXyMPQJjteYwUkQddhY+B7br0pK/cXI5IYAtnyJRaORMqP3wqMgVAJs+SRCKcb+Lv3fxbcCl3j8UuWxnWY6ZwlV9HNp1T11VfMXw4Goic5aE2kkQZMoEgNG6MW2xkaabAu4HzJh6db/Mijn8MxApvLqpcLcMZAqwrG8I3HT/CaUYXGDuyLrCRzjUMFWt9lL8MXUpZk5/wXViiMIL3SzyDBde1iCG4HACml7dkcZyxVkVUrXujFTf1PFwM7+eB+XkUwSYgLKSgrEBIjhevHS7z3hmPMg1IxoUGxxO2GfaWJBoGyxCVoSRhRWuDvP/EwX1j3LJkRpAgmwshirbB+7jzFyipBr/6cVxuhOnQUzl4Ak6DwfKUKf/bV93CSdczco2vLFDERNs5T1kf48Qce4hNNZF8tMxMYyRIpFRyt4b3Hb0C6KViXz8srHLsD2cLLUNkRN9gPFs8vXUFVZOeI/G9DcLtWMQS3g4DUE0mMwYmhdLtsPr6EhnhKi4CxvxvbSbaL0Ri3B7CJgSVjuXn1MLdVBisCCRKCUyWUZHHhvhSaZ8UikUBNwaPe87899knM6Dhb7RZLZYXM5uAbGBc450itJ3L1y5Jt5WgvbHB45QjVbMqr1PIPvvIb+Ds33MoP3/56vEvoXOmSMF6p6LqWtlvlxx69L7tG7wGvLWWyGMAL/J7j1+FCh2ByhjwA2HF6eKGq/gujXoBCDKWziFyZu8aAq48huB0EFI5RFwgJygncOC2IZcIEIe6rM+5pcUCDI3A+WTBZFms/mYFNAUmKLnlStFTW4sqSZ1rP956sUGpKq6hRlihBXDYSLAHjqGhwEXxlWVELxvE/Pfw5ZrMSJ7lsuZUC6mokFoSYiLUjodmv6yWGlmWWBPMBDULpDlGmCTqf4ootlrsOkyznSs/rD6/wH17/Vt403mJmLvBHb72Tv3f3a3BskTwkD3Xs2Ji0/LuH7+d3N822rU+rnhTzfiThIXoaAFMyc0ATicz5ysOHePXKCjJvSC4ruuz+WeBFF8B+mcKZEqQDE3nCrDGOEa8ehxD3VVVPOCmJSbHAjVVDTIaSUX7dAdckhuB2EKC6PQ5QAUVhyYyS/T19R2woN9bnsV9hc26wJ9p+cBu1GIG2bRHvOVSOeN2h6/Y+fMrMuDQ5a/xiUu576hSpKOlSe7XPLszmBB9hNAaXaKdP0RYbyMoydr7EbLJEKrf4uvmMn33n13LT2hrzomBsVygSfN9tt/A/nbgTWzSEoqapDgEjLpjIzz78GUJPqnEiSE90FTL7Nau2aN4MSLZUnRjh9SvHQSLuMrMer5TMY/tzitAED2bXvNp+sevhtWQD28U9NeDaxBDcDgI0K+mjiWU11NXuX+7n5lwsokCCC13LC/pqiKDGQrAYTZASEhP3TpZ4/dLqPt696P3bWsRW/OfTT3H/mS1CUYK5cm3IK0XtDFKV2ZaABGuJgpZiy9OMV4nTTb7DLvHvvvVbubGZU2vK1j7WgHrK9ZYffP3dvG/tJMGfz6NtM88o1vyT2WlOJwDT+42Djws+kGDJkmQFQGEQDCbBNx27BZGIfWXEr8tiEYgslg3foWIQyc3M/ZyexTc9lyJhzRSvmI3BQcYQ3A4CNHugoZHD4jJZ8QVkbnmIFYxxoI4zoQUVrO6iRF8O1hITFNGCehiVYITXLY8Y7+PpmkAJSGhogZ977DGmbkIUA8XV/4q2EtDYEW0vAbNlqbTK6iKbp/njJ67jn73ra1lpZ4RRIraekcBMAKu4SUWg5Yfe+mZ+8PrbqXSDkYVpXfHweccnTp0G67KGJfTXzYCRHLwWeptuZ7F+5+EjjN3evn2vhEVaNfajJ4YLXcec3g5IXtism0i2uTlWjSGFvqQ5ZG7XKq7+yjHgyiGS59KSctJV+XbU3CvbT3lGJWdtfZ7AqTAHYzEi+zJ6FrI7tqUkqQfnCCh3rU32RZiwKRdEC2N5tIGPnj6HWVrphZyv/uKi2veuxGPMhMMcY6tLpGLGX77hJn78Ta9nTICqJrYO6opWwIUWg5IcCIGqbXnTHa9CU4v6FnEV3id+9cnHs9ZmTCiRwpDnrvrbU22e/QsAmvW6bhvB9XX5smCLXnX0AVzUsB49G8Rc1t1vSVGlLwXnc3ldsYQoqKTB6fwaxhDcDgDysHamKZ6sJjmcSQKzP7Kk9jd1IseiU74jl8lkf2WdEED6zM9E6DylOu4+vAx2b0KKAYJ6MBUfeupJzoeEFganIdforjJqV6MuUXoYeTgnDaUTvv/oLfz1N76WQi6QLNkxXCo8UOApg+YSZNzEhZr3b0a+/zf+C7J0iM4aJmfXkZWOD144xwUAk0kyWcd6YZaZGaYLpogRgycgwOuWVrfHQF7JyBsPg1HYSpGz3Sx/mQXMPr7B2yo+/Xk8UY0RkxVPXtln9trGENwOAASLSp4POzlaImncvqn3c3MmchBUICQ445vtjEv3wbY0KYJTupQoCwOzjuPFMq9ZXtl30yMKIAUfPXsanCXRgHbkqHF10QUPM8/YFIS0jmmf4q/echs/cu8bqPGsU1JhiK1CCWPAqEDhSFSoHfN/bk75g7/9Ydbbkna+SVlXbI0NxVbD50PgoQsdmJ75qTslstxLylfJpIDVvlBs4M3LRzHx4Jcd98ZCBxUagfPz+c5v9lmWXWyhBDhS1tnVQth2thhw7WEIbgcIBmGlGvUzO9IPsu79vMVDIhBjYurbiwX39oAYBWsIwVMVFuOF46NljuOg83s+P5EAS+Ph4W4OfQZoSFi5+sEtxcDSaI0LYYu2bvk7b34rP/TqV1HQQVTW/Ji5GmIt2K5Duo5NUS5YhxH4j198nO/5rfdzKo3RUYlIpGlmMDpEqFZZF+Gxs+dImJxFxHwtlV6zs9ehlJ5pYmw2Kr2tXsEuSnKv4OxttwO9B2ad31er+GLsPGHsyvyag/TWNY0huB0ACAG0ItiO2+pAhSNQMydmEdg95p2KVCOmpYpzHnGG9Zjn3BoNFLK3J0uXHHRQyoz1zpHGJa/hfFY8ceN8jJc5BqNQqeF3gY9OZxiBuku0Zb3tdHCp5y9MSNXlfkvVCXWXkNChlUFdiWvKPY9fqyllSKhUaDHCtp6ynZF1nxXnjrClLSvz8/zvd72RH7jhZmLbEEwJnaUpWowkysaDdTQlLHtHDfz4Yw/x3zzwAKpjxDUEAiojEIe0c1QC0jV8oJtiEzR0UCToGjyGSEIl0ZGQMl9jl6AJlttXS0gQNRE1MwZVds7LKwUJRUj4qiBsXuDpNAbrSTIj7WOJawUKmdNFg5K4fRQ46koIc+Bl4Dox4EvCENwOAkzuORTOcnS8BAayZojdd1M9ZaVlzs47YoyYXlV9X4tk/x4LCTA0MR6NeguRy2NbIklgqwn4lO12Qor7eHb/8eeBOiSaiTBfgXptBda3YLZOWt57Cz/yK7RElhtPGTvCssGPanwy1NUKwZxh7dwp/unXvZf/4fqbCU1HXTkktWyOhDpGqmTAFUSECmHmlB/99H2873Of3/P91VjWW9/3iPpM1WQqkOnFkYU8AJfPqVBYobSOUTEsvqp5g2RMPk8XmkyI0rRPdbPFn5ofPy4qDhcFqOTy8oBrEkNwOwBICQiBVYST4yWCRAh9oWU/8kzSS26J4/GtTXyIGJNfOO0juEnPfNBFGScqRyYrWPbZ8+tV2U/PNugW7t0xB7f99PykNDQjg+0SnPXMNufIZEIxqYm6tyXOvDGslKtsli3dfAPUkWzF8izRzM/xKr/O//Ut7+U7xiU0gbo2mX4O1CjRjmG9ITpoLYgW/Nj99/NXH/8864z3cf4LTk2n2XsUlwkkRrbn8HtJ7IvOeCnCxBlWyv24nR5w9JmqiCDW8MR0C8Vg0v4MgfK4RS4hSxKWy5Ib6xFExQ0r5DWL4dIdFMTAcWM5XoMnvrCegwIYojgemW3QJc2Z2z5LW7LL1NEgSFJWx6O8a9bn7wctssLYP/1cM6fTRdaouH2yNWMUUhJcENYmhyBYUEtoEnY/ZqvOsaEzsFCsrOE2BM7N0WXhKwT+4Tu/iW8aO0yMNGNoCYRZi5OKwvcZ7iGH+ExC/x8//ll+8LP3o+Vhqv3M6dmCU/MpDVDQW+D04xmXONp8ThVGzjFxV78nedUhvW8gCTWWR2Yb5E7v/pY3JYEaxOZNngVuHtUQImkwdrtmMQS3A4Bcjom8ql5iTE8lsaaXbNrHC0gOSgF4aD4DY/Nogcj+xsz6IJXIO2gTldoWeW5oP35w5AC4Fbt+pMBks9Oo+zr+kSxB52nrxAWzCaVFGqWQmtjtY/E3M7ARa2viesRNlmDZcFPc5J+/4z187dIajYlQQa1gKSnHK9BCUwjEiETDZrHC93/k1/l7T34RXTqM8YKJ873fH8OF0OH7sljsxwC2P/qu07C7TOxQqn28+oGHNUhIWanEWh6az2hhW6VkL6goSIEn9y+FwK2jCpKSzMCWvFYxBLeDADWoJO5eOoSlb4EL+w9ugDGWADzSbIFYUopY2d8M9SLDSJJAFCPaMzZT/re9Dl8zIcRL7jJZBGyBxLSvb2gVALfJkbDJn7/h1ZycnicdNnQSELv38u+0Y5wccTaF2tLMT/HOUc2//urv4N5lRzdvKLCkbKyGjYZOINRgPFiTOB8M//1vfISf2tgAWzOqIY06/H5GGTThTSTooorc69ovzr0szIj6meLtoWX257d30CG5P6mqiHE86mdcaMmqL+w9J7moD2R2qmBQ7lhZpsDtqyw/4OWJIbgdAGhKYBJ3LR8hhA4bEx3ZEHR/SJCUaYKnmj5zS4nC2n1lXmaXGoSIYK0l+o5smn3p4LY7AzFKjqKZnkhKOfPUEPdFiPG6yaom/u4bvoq/dcMt/J23v5PywjMgTTZu3QOllsy6hkOjNTSc51uOrvDT976Duy20RKq6xkWlRWnqApF842wQKS08pAXf8/EP8W/W1ynMMaq6Zr51BokQdO9bTFJEnKAatx3UI7rz0bUPbtJXkHfJSg1VM0B6JR4jqHU8EzrOTrM+qt9Hfd7mSXkEcDhEI3eurbHkym2lnwHXHobgdgAgCjjHTctrWTJIDLEf/t3f2pdQFWatst62mcygmkkl+925imybRIpI76vFvixHpNdPFJv7fCnk8QWS7mvWaDyGf//G38sfOXY9drLFHz58hP/3bW8A9eh8b0LJ1EBZr3F+/TTvPXQdP/GWd3HLCoQwpcBC62mtIBjqPs64LnII4YHmNP/dr/0aP3/uGVie4DpP27SUy8dgo6Maj/Z8f5MSxhlE4655ZCVJn8OJ9nJcPXlnSNaeg9zXVcQaNAbW5w2RXkJrT6R+ijv051Y5OR5T2eJ5+p4DrgUMwe0awG6nYRHJuncxZ1tWDNpajleBe5YLrKlRKXHSMnMdos/PplvMQyVRkjU8trXFowbKOAIrmLnPzfo94C0Qt3Bak6zBe89GAdbPKJ5nTuiiuTWJQMNSMabWMWAwXvHLI1zboU2LjvJYs3rB6JjlNEZmG3xVbfidr/wa3nTUECQgZglE+at33cn7TtxKa+b53FlBU0RNQitHHRTapqeKr9I1T/LHbjrKT73tLRzDc0EUV0+wSYk1VG2gjjkQBrsFds5vnm/5xo8/wodDBLcCTcvctWCFbt7ApKIL8+d8XkG3f4xAjJYTI8WUJVokCi99MEuYpkARiq7cltFQlZyWN5ZTJpK9AmTH0+0V4uO2jRSxwYELiG9xepjfnJ4lMcfoTln6ecdaUsW0jJTqUKCTgutJvP5IQzWfbM8PLrB77vIVdZ6vMQzB7RrAgub8fEgucddojbGRbV1Cg6XE7Ct1C5pwanlovt7bh+QaTTSwnzRBFDC9EnvKIwFbXQARgu49K1eYPDR+1FjUBBIxl1pjQMVSTSZwYYotDJUFZcZGeYZvuf4ov/jWr+PGusRIgYSEdNBaQUPHX3r9V/BH1k5SNEIZskSYhAKZJuZlpFhaImCR8Dh/+eRd/Mib3okFRsaw1mSlkNYIwUdC5UgGJu0WLhZ8bL3kj3/mYzz19GOXPicvYNEzohzTihG594iRXsQacBAxWS85TwcQe2m0KYnGX31LoKsO1Swc3kuRBU081m7icPvLvFLadtGQXsQbhVetHCM6v7152Hk7fcUNyl+LGILbNQZ9ltxS/vuct02OM9qtowXb/mB7IZEFfn/nwlk0SZ6TA7zsUzg2CRiHSQYTItEJZ2YzMCW6D9V6AVQst7gRZZFIzvTechEwtF1LZSt8CLTOk1zL71u+jn/+hq9mVAWwMCJirCVJNvh2TlgOgb/9lW/hdceWqTc7Sh1RtB7aFlOt0s0aiBv80A038MNvfC1H5x0xzaHPmhQoph2Vq/EBUmqgqvmVs3Pe+zsf4oEtoTm0tPfn23WtLrUgJpRbixUmgTy0aHcRReyOlmS+Ww1Rc0A7FxOz7mVg5nq1YQzRKaLZyQKrfGq+jqQCu58Vzhgq7Db1JJEgwVtWT+ClvaQyzqX+f8DLC0Nwu8aRZ6JmvHXpGMUOXzxry6f93Xjalx4/vnEO6ZmXKEQx+wqQtldlh4WIsuHUrAVTYO3uIPxc5N4aeIRb64Jjtc0EATFAIiaFsqAdWWgCS7GELnJ6tsHUQKUwjS1ED6JIAXGjI8SO5CLHLfzkG97M8orDeMWNS4rlmjQNoDP+9h338MN3vxkLbIwTpXG0sxldbegsmLrEtzASD7bkZ05P+Y7P/zaPh0DjAvj60p/pMn9/7vVruWNpDYCkSugJK0Z39dn66+qwvSi24bT3hDBQ1RFLtIpVyZsiA5/b2uBcs//gs92fNuTNmiTeuHSEsQ3bLYDttxtKkdcEhuB2jeFSmdtyYblnaQVMry9ohYTJ7tjm8q8DUGA5E+DBedPPmOUVYr+b0iR5CDaLRXlwlmeayIXEvsawU8rvd6iA15QVeA9GMBbAUKhF2oQUJXPjMEz4jdkG3/tbv0wzdUykItmEEJEGZKVEbUEJzFLHGxz81Fe9kyRnmJnMJGX6GD997zv4/jvvwBYGNFJTE1qlqpYoQ8RrS2PBuTnBFvz7x0/zhz72fqZtAaMSkxJl1130WfYMZM/6ew5ukVuWV8GCl0xeN0h2hk5gkvT6ofnSWAOo4ZHpDPah/XngEfuRk7joRyZOzVvu3+z2RShJKZchNStWY5MBgdvHhruWR7lErrrdz1Szq9e2zw3kgC8/huB2jUNT4g2TZU6Mip6YAd7kWbcEe075aO/C/elZ4GyXUDFgEiZlK524Dyq1GiDlkmCyCsZxugk82jT7/hyGvKC8bbIGIRE0IRKx4vDTGVI6FCWScHbCxBzlV89u8sc+9zt0DpwvstlnndnbBQ6wjCnpaPjaVcdPfcVXYZuGUYj87Ju/mu86McFKtlyrZoaiA1dloeV5aHBSUc8Sm87wk488wR/8+McodISRgMwSRgW3tIvos4cSywK7H6uq3FqX3L40IUrYkUtLi8cu6P4x128TmL7Wdv+FCyQ3BDdSZtIkEVT6kZJU8VvT9cXE4GUhJp9Yp5nd6yQr5IyBr147fsm+3eBh+vLHENyuAVxqx797IX37yglWSoDY72K349y+5qAE5be3TuGDWcjKZ9llBZW953yS8bgQ8y65yDvc8z7wwOZ6DlrP8zkWMCaXk1Q87z56A6OiIAnEFLBYqGqSjeBb1uaJzrdMo8eM1/jZ9ad538c/xawo8FGYkvLwuiot5GBQVKSofNv1N/ITt9/FT9z5Gr7jlhsoC4enw/kAhZAWBgIOTD1hFgI6MvyD332MP/Xpj5CKFWRSU4UOZyKhMMxmzb7KVM/OuHf9greuHOWOqiQSKYSsOpL68WOzGPUL2wt1INGmxP3nzxLdsMqahXSWaGY1Gii15iMXzhL203fuFb5FU+92LnhJeIWvPXQSK2bb0T6hvfnhYDX0cscQ3K51qPK65aN9qSohmvJtGHOvZl/qWSHyxfkmmnpdQ43Y1CvU7y864mK/m7U5uDU+8cxsSoh7s/lyYqJ4El9x6BCro0lfewuQlBKD2/DY1Yp1O4cyQW0oZoEE/PjTD/EP778PV9aMmkSw0EkAIrEE5wNGazTB9911jO+5bYXQAVox8S0UynrZz+h1kY5E0XnG1vEjn/1t/spnHmapPAJFRxuVuXN4twWmoyyPv+BLdhEZSJV7l46wBETaTIhIQIzZXw9IJi+qUXrPPRKtRp6abg6eY4AsSoMJYswbvMo7vrB1LlsI7YFs1Ku5YpBfkYQhGuXeQ8dxYnbGcVLKPwOR5GWPIbhdC3AOtYHCeyq3hJKIZoOxablJVvn9J5ZpU0BljDqXd/5OsZo5d5FceiN0tATQiMwgihCNYe5KfuGpJyjGa4gJ4DrA0RXl/pyeO4MvDZE5hDEuJKgD/2m+QYHDi9CJIFt5IW4J4PshW+idwwWTDGsu8m3X14zWWyiOE90GnXTEqiC2Bi2r/ImCp3WgsWRuj/E/fvGT/JtnTmHVYVVpSZQhYBvAVgQHybTMcagZUVmPWojFMoGC1QjOQ3QWg2NqC973ic/wVx9aR5YMU0lIsogGRAySlpFQ4Nna8/SobViSEVCgOifSkBDqVLDqAt99cpkN01Kw0j8mQVlS9tLRNoHpGqJ02ARzRjx4oeWxQsDHPPDd/7wSHVrUGtRHlp2gNmHmlq1D8PH5kzx4YYKIMNPU2zGBp0MJeaQi9Y5RFFBWjFVRq5TqqBVur5SvPzwmRYO6lmNMoSxBJ6hRiiFze9liCG7XAmJueFdiabstKEcQa2ah4y2HV3DO5Z3l7hLMrh291Z1/EwxRLBRZKNkAv7u5yVbwBM1KJaS+J2T2V3bZfozmxSPGCEXJo2fO8FSI5A4GMOpFkjEgebhbEsSeUWmj0DrLe9duxY8DLiSkfR625cKmGiCeY8me5C/+5m/xyemcTpQ6WkTHhCzujkuwHCtGwSFesBSILo4nE0fWi4Q1iTSHP/3JT/B3H3+AYvQi7NCTYcvPKJ2hwDGKNbiKxgXePl7j8Moqta229RF3f9aUUi6vuhEOQyhgEuCDF57ibNeC2SXF9QpdaMUoiMkegD3hw6ZMFPnMhfOgUKTMAEYVpxbBZEbus07Zpc7h1xw5SWCOjRUbPkFIYCKSwKeBrfpyxRDcrgHUIWW9RwGSx2KAMRIT33HyCM46nMklRb1UjyElEgGkwGIIQCiVhMeS+PDpU5wLkWhMLkXGvjzJggV5eUjvHpDbHVl6S4oRD569wMe3NnEp547qcjAxUcD2QwYKiQ61ICHPGn3D2mHeemiJMDtLaVd2KqPPomMvflxh2YrCo26V/9un388T00hBSSwETyIRoc27dHWWrrCZ++0DLgU6GoTACoZuy/DeL3yQnz5/DuojeHflwc1Q5mHsZoZQoJ2DZLBpxnffcicjU2LpjTUXdkOL5xpDMoBUOHV4lCLCfzzzJImqH5l45Qa2HRh8zEo0iKUIAlrwq2efQImUpkBFUekH5PvvddhH2f1bj11HWUTqVNDaMYSAiQ2lQBq00F62GILbNQAxgJRMTcTWFu0SqHBLNeZrT6xsuzNfPNjNLlX5SNCswGDTgnSnjNSAGn79zNneIFP7kpvNAUHjvuaERKT3wbI7IsrWMcXwa2dPAUKV8nCsADabbS107nEa8AIYwaWIK+HPXXcHMCWNRtmwc/GR9LnvrTrGjhUtO+7rDN//sY9wXkAJlB5SIcQaMFmDOAEdkErBCJRMMKFDLsB7PvFr/Pwz60hZAnOWmuUrv35qEWdJeLoU6VbHML3A26sR33rjCUxKEGPW1DTbDJLtc18SCJID4kgDp0h8ZHMdyjGqgwRUImLFkLSft5SERAEp+dD6WU77LmuDo9neRnc/87k94Wefz9eMC756dY1p8lCv5WJxnBEl7UuebsDVwRDcrgF0FmwbocillJQ8hBnvPnKSG2tLTBFFkV0yQSmlbdNLehJkBIhs2+JItJxrOz65ubnNOe8LNvnG1TxxtRekVyFZ6F6KzSQVxst84Kmn2FRBksOkhO2PU4XMZDMJp1UuXVa5fLhFw+87fiPvPH4dTXsmvzY5sGk/b7QNI9hQEP0M/DorZsIvxjnf++FfBRzWgCfQiAebMDFRNx0FiUii61oCjo3Nmrs/+0v8xlbAmQky34SuI7wIZSeN4EKgXBpnCa2JoQpTvv/mu1hjx7pmd8aWNPuTpf6cdanXE42WXzj3FBe8YlPeVLzSoRoxGNRkuTlVzcxdW/CQb/md9fMg4GPM5yv2WpG6w4J8NnaPazib+G+P3ABxA2yZv4eiBLc/ebsBVwdDcLsGEAVS56EoCZ0iJlFLx++97uYcFPo+zeX2704XO8yE4LfHqT50/hyPtB6MBW37MQOL2hzshL3nqEyvh5gwJA1gEnQtVCM+e+E8H9y8AOT+mukHZRO5F5hEQQtMzG1+cRabFFcm/u+33APteSzynNmwBTKDbQaMEF/SlnPK5Pi59Rk/9KnPgzEst5ZRBzF5KCJUBnygSAWlm/DJC5u87fO/zgPNMhQGlQZNjkmxTFPt7SqwF1QSJiqtV7AlPPMo33TyKO+98SZCDDufbfH5+hXTGIMzFqLiDKgRgjX8i8cfB1MhYZ5nui6DV0ZWl8dfEMkNVhPxJoKxBIQPrJ/HG3DO4UxmA7cACmYPeTgRIWD45sPHOewE5g0JRYoiR8g0aHu+XDEEt2sBKc/xuM6gqUQl8PbVEW87fJioBVbMRcKuz1UsF5z2PS6Teu08pVX4D2eeYA5Y6yAFUkr9QpvpznY/i6PmwW0ViCn1Vjl5hzw1lp9+4kE2AIwloiC5LlksjtnkIFWoR4CKCpXENx86zvfceEs2kLzMDrmrlXGrlKuHaTfniDhG5RF+5LHP8P97+Gm0tBhTEX1iA5hKREJBY+BX2jl/4rMf5YGzW4SupUqG6BtqO2aqcWdg8AqgVvEGmEdMtJwI8H133UVpEsHabZajoqR+sTXG7Fw/k2WUjRV+/cImHzp3gcJVYJrcY3oevDICG1lbEgVjcSE7LYSil8xSy6+cPc05v5Axi2BCDm4CJuxdVozADZOS33/yJqSbkzDgKugEM3jivGwxBLdrAVEwdUE9DRSuBlredOQQ1/duMouF8CKm3S5/NTDYvkKZbFb5QGBd4SObZ0Aspc0SVNkYs58C14juQ4ohW8qYniASMBYqayBE7GjMLz31KKf7PlsgEUwOGIt1oU2AM1lLca4kk+1txhb+4r1v27FxYafndlEvUEoaaWinW1Bdh8wt83SB5eWj/InPfIqfOf04jYXSjnAotRZghA9vzPjuX/8ZPjWDZWuo3JzWGFbcTbkcqD7LvVwpTA5aa9UypvH8N69+He85fBJliu1LtCwyNyMX0fmjD0QRQtuCJn7tmcfY6PK1TtZDuHTm8IoJbPnDsvim26iIaG4ua6LE8PFTpzgzhRB7M77FsDaA7qNnFgAX+bYbbqOUfnYAg2s1O1oMeFliCG7XAKqUkCKyVczp/BY36Yg/euIeMIEUd8pmF3uG7fzQGbCJoJt4CmhGQOA3Zo/z2XMTxFkaHxFTEJ3N0lexQNQS7N5ll2AN0jUgAbETQnB0JiJGCSqc6lb4d09+kU3TUFGArbEBOtNiglBZsDgwFYxyIVTVoVa51yk/dvfdhOYcsTQ4oLTCWCu0jUiVA3IqSsQahA2augEKNpsEleX7fud3+OI5BTw1HTYYfv7MJu/96K/xlDmBYNgqajoqJAU25QKdiSRbIPtYvNQGXFJqClQs6gpQhzYBnEVSwIjjAhd4x4ry/7zjTsYROltT+iwSvbhWu+1VVBXjLHMclbU8lgz/5vGnoCgpKEi+hOLSfnmvJFsWSQvVskRXGpIaxOdr522iLY/zf576AhWGLtXgRqxoAt8Ryr1fP9swwbccPsxbascIi0pHWYZhFOBljCG4XQNobcS2DuNGYFt+z+Hj3HKoJnWRylV7v4ADT6KUGktP8JKK958+RUp7KzhcKawY/tlDn2OWRkx9xHXQOiVh88FdArszjz9x40n+wh2vgXaKHy3TbbbMxlOO1wVpKki6mGTy7Kxly434vZ/8eX43FJi4xE+fO8W3/86/Z25KTNrH+dsDpVZ455j7GQ6hmDa4tmH50DI63aIMS6TVkpObG/zY27+eYwam1mPFQtx7cVxqWjCOf/nkI9x/4SyMHHM61uplaPYeIn/FIwU++syTbApI7IgCRVRCabH7CP41jiS5NfBH7riLmb/AJC0xcwarV162HvDSYAhu1wKKRGos2BF1mvHHb7t9x9hyH5cwGgjJIz03rDQdT3r4j0+cQ/aRmV0pylHJp85v8U8efYoJBZg295dwl2WbLYJUpOFvv/Z1fNd4Alub2LVjrJz2nLJT6mryvM/dzmTNhIe6xPd9/IP8yMOn+e9/+4OwdIzGVrwYHz+1CptziskyQWKejZuUbF1YZ1KMaRMsPXOBH33XN/AVFirbUgGui3T1Pm7ByvKgh5/83H341RXKtgNruNBssjzIb+0JMZaPrq/zm5tTCuPIY/GWGRbZU1qczH5KECXw3ptPcntdEGcR7BKegVDycsUQ3K4FWCG4gjSf8U2Hj/HOI8vgW6QqiPuQx4pAoQLJoMmDKr949gwPbkSK+qVXlW9Ni4yP8r9+8XM8HgFjUALjBMnuzVabmgpPyz9/yzv4BtdhttbZOHoSmppmtp6JA4ufS8C1ShGW+PDmjP/HF3+bVB+lmJZM5gk/ufKyXRBltLqCn8+h68A5fBegKpnaxKqb8sN3vp4/cOwQuIak4OaALQj7cF3YksSPP/wgT8cxuCW6FPIc1+oyzWBWuidKV7BlCv7t44/kskVs2Tap309VUcBFA0SOmMD/cNOrafwGy7HMsysDXpYYgts1ABsNqYwQp/zAq98AcY5zvXzWPhvajgJC7yYgFT/z1GOQavbB9L9ipNkW5XjCU13H333sMyAFMSYIMDd775xXVCjnQlsbfuId7+TdaxbCFGzF8eriIetLCU4oc/zIIJRIGlF0QIr4OIfyynfezilzGrCJsRkxaQQjgpYOgucH77yFP/naWwjtnCgOkyqCKWgtjPfhVG6C4b8+dh/nuykTO8rjCkEZhQpf76Np9ApHSgnKJX7uyUd4vI0UdoQaGPne2XQPeJMVgkqgpeEP33wHtx9apt26AG44/y9XDMHtWkCrSHOe77zhJF+/ukIQUJFM6d9HVcr6kHesJmHF8TsbM95/4RSVdXj/ZegZqCNGj5Q1/+T+z/Hz58+zRE20sSeP7JE9+QakRIJjeWmJn33ru/hm45EycCoGjORgsk2medbLFbUD7+msx/nAXKeUhSGtVTDbv+fc8yFuTUEEMRXdvCGuFCQ75dj5M/z91301P3D7LSwRMHVJ45VogQrsQvJ/D4yT47tvvRtGLdP5WerOYaxlfn4dV072fP4rHTF5KuN4JLT8wlNPoRR06ilN1qHcC2lb4MASsZwcwQ/ccjven8V2A1vy5YohuF0D0GS5zSX+3B2vwQSIdkRSodS9zUgBrBqCgcZ6CPB/PPko86Bo1fHl6IdbtwQa0BA45yv+14e+yGkPMwNVVlS8fIArLV0NKxGOJYPqlF/4mt/DDyyvYvz57YftXqa22YIobevBJ2gD/vqauiyZFpGw0YK5cnmtyeFV7GaLbDUUhyY0m6d5jRH+0de9hz9zfMKklx3TRqmKgmkK2BRwCp3dxy2Y4PvvvI2/8ZVv5sjmJi4Gko2YpYK4eeXB+aBDVdHYQVXxL598jHMerChYT7uPkQmL5mHt5MhcSfiDJ07wjusOvzijIgNeEgxX5hpAsgVvPH6Mr19aIdmFIH5m2u2rYyQwBzoiNImff/pxsBW+6HD7EEa+UsRg0UIwPsHR6/mNh57mJ+//AstqswtBj+cLcFMclra34oHlchWaGT/6xjfyd97yjudIKD3H3LUuMctLmHpC8dgWPmYvAEYTxu3oij/fVpxTlTVuMmI+2+AbTtzKv377t/Odk1UaOUVLwdwbbOlwCVZMRGQObp/Xz2bngh9cup6/+cZ3s2XmYOaUGlA33MJ7QQS6OAdX8hvnTvHQmQaH0mbzpT1he9ED6GczY+KGWvl9t99FlMEJ/eUKK3/ke3/4ah/EKx61Q9sOCqGMECVh1fT7feE2Pc0//apv5LBXUjEHsdhkUDE4CTvK/dK7epDFYXN5LlvYVDJHTc2PPvwMP/PkU7ilCcl3YF/6skoVwduIOkPRBrqlgg+cfpTX3nIzd2vFpnSZxeazY4DakANGdCBCKYKozaXV3n2AogCBty1N+Pbrbma+dYZPrJ9C7ZiyWMMFQ9IWKQNlVyFB0RhJhUWMwVmLiZGOBq1sv83rSSmasDHrbDqEUJNtToLDmBGYAlUP0lK4CLJGNz/F9XXD37jnLn7k1a/lBhIkTywmVOIorOwaPHQgFewhbrZge0YLUROVafnK5QlHneM3Hn+SxkxQt5Ox7nb71l2Djq90PqVLkVQaDodltrA8Hdb5AzfcjNFEhUPFI4ttRuqlDzSr7agxJEzubWtHMIlkFNuU3LO6wv1nP83ntYYI4yT42mTpOVFYnrC0oS+Ks8SAF44huL0MoE2A0mJCJFjDSMZ0hXLUC7PuHO97/Vt4z6FVClFaqxgKXLawImrI2o6ys4rtOATkfwgaEGs4Eyz/ry/8NueiIQVPsgmj7iXXfg0mQQyY0hF9ojJjKAs+e99nedNtr+b2Qmiko1JLNAmPo7IlU6tUPu3ZFzleGt597Ea+YvUoT3TneHTjSSIwLpbwwRKLdZLtet8vSCmSopLEgCspNjucF0oczhaIdQRjSMYQEdjKvUFnI2qafjE0WF+SZgXL9jR/9sbX8r+95l188+EjOAudFZKziBiudPsQFeokeCtMreGNa0dZKg/xX849nGWgLuGUsDuivdKDWxTFlSXTjU3KpSU2N07ztutPcqsZEe3Crd6QYiRpwliHiqDG9Dqfkvc+IZEsdBjKaKgcTA4d5t/d/yBrtmJdBOnAVQWpdNizW7STaltYfMCXF0NwexmgTBXRdtQKKRm8WkpbselP8XuPXcdfv/t1rCgECXixOM1yWlntP2DUZj+1Xf0DWfxHFS8dTir+xVPP8BOP3EddLKOhI5YWQ4Xuq3N3JVCKwhHbOYUUqDf4Uc3TF87yRIRvO36EkSreecQUFJoXHCvC1LaUe1A6DYHKJb5ieYXvPXYLd42WeTyc59H5OmWjxHIEySHJ5QAmNi9akrAG0tgRCggSCaEjhQ5ixKaU33nJEo2QrMOYAm1bRvMZr1oqeftNJ/jp17yR33/D9RwfQbAw7xpqFRymd3m+MlhNeCsU+RUZRXj90SUenjd86twpjCn7632xQs3OZucVjqLA+UA0AShYjw02er7j6A1E6zGpz5KNIYqiz7KxiYBDQAVrHS0GJVKo4Y56zDQoH3zmEcLSEXSeUEmUEgi+hapEXgEqMS9HDMHtZYDC1IQ4RwoLAdSVxGbG2nLgH93zLu50DlJHcGAoWJCPk2j2chN78aLGQoQ3C/Jak5i3ju/73G9xOhZ0KLYSXLR42ecg65V8vgh+bGDesGxqZsmDJuojx/jCU0+w4ef8nutupiL3RopYkQy0SRn17uGXQwrZSS6ZROMCb1w9xPeevI03Hz6KH095ZssQ247gW6JRostBwGIo1ZDaiEkGaxzWWox1iLF59y5CCk0Wh+46at/ylaur/Im7XsUP3X0Pf+766zheWCgSrUQqtZQ4xBoCEULC7Ic0cjmI0gLFPDtMT80WEyPcPDnOv/3ig8ys66/9czO2V3xgAxCHNA1ptULnAUYjnt64wLsOXcfNkwL1ijGu3xwsAlu+t/Ld0eFkRzBBBDAGGztsCLz+xEl++ewTPD7roFqC0JG0g0lJ0ZnsfDHgy44huL0MEESpvJKcEEVwIiQ9x//35jfznTceQWgJTimkwKW8gEUDMQRcL+IKFxMpFqUpFcFS8DOPPsM/eOR3qevDhG5GHFlMoyQkC82+hHDREIlQ5l1scoL6FkmK1iWfOnWB0074tpVjFB3MiznGFkjMtjTPF9t2FEjA95Y7lVp8SqgT7p6M+YOHruePX3cL37h2iNsqQ20iPnbM24bQRlKbiCUoiZRCLteGgCSlUChR3lUf4Z3VMt93w8389Te+iT93x628e+0QJwUgMbORDnDJ4Hw+l9qbPVurewbnvTAFJi0EK5gCCquE9gKHR8v8yjPneci3O4oskK+76itLPPkyMEEQA8kknC1ITS7vhnaDb73+Jmza0eG0ptf5TJo1K0WQ/nwak72abEiIFYJVILJkLNetnuTfPXI/3llKJ8RSkU4RYwbLt6uEgerzcoCNJCMUnSA24run+e5bXs2fOHEzotBaQcnlSJoI42xf4zDoJewWZdsRIP/msRZ+7PH7cG6VJjQ44wjR4EnwZbDsCIXBeQgu0ZSWqg1EC95PWZMRW/Vh/vcvfJojQfnrd76K0hoUTyUFUS+ObZdasI3MQYUoJVYMlZpstU1gGhuWxwXvGi/z7uteR0zCmU55uJnzaGg5T+DM1hYaIxIShSpLruLIaMyxyQpLVc2rK5i4bPKqCk0zz4HGFUhSxr4Cgc7BRgU1UIaEi57GJWp7ZbeZRSAGphUYDMtqKcoyu4gvjWG6cVFJEs2doiHAZVgNROug8yQbKAL4suTfn3maP3Jui3cfXsoV/Kho7M28pbdtBwyO6D2+SBT/f/b+PNyy8yrvRX/ja+acq9lNdSr1ki3Zcgu2MXYgMZhASEJIQkhDckgL5MANae45pLsXwuWSkD45uSQhIeeQhpMc7snDzXMTyA3BGGOMG2HZsq2+b6okVb+71cw5v2bcP761SyVZUpVVVapuvXpW7dKutdeea645v/GNMd7xvtZAG7He0YkhO49o4Heuj/nrd30VP/rg3fTDVYZxyDy0xFpZJm6XBsvgdhlANBOcJWfDIAbevrrC37rt3bhh0bNzuLJWZ8AU2xinClgCxVX7TKbcLhLFyfk/PPsCd083GTfXMem3wduyEhvw0hP14i6AyWUGCWKvYIUuZ5z3eD9g88QOst/ThDX+1rOPcrIy/P3b7mBgeqbMGfrRObgdO6ougomkqmLugJRojGNUjUkhgjNEIySTWXeJ9w8tH9QRoLBvfwnyUjK44mquC/+vwA4TZllwqWbgBwzqQTmmGIGEeod0UKVMVZti60PE+Qp/AbQfm1T+ECJ1GDBTYehrFHhitlk+9y+7puAif6xXDLJXchaMNOR+i7oeEqJySir+xdOP8J71r2JoPM7KaRNfKOaweXHTOfEkMh2Z2hdbe+OgwqJisF3gr955O1868Qz/ZXMLkxSt6jIfJ8txjUuB5Vm/DGBmE5z3JG/pbOJv3/lbuW1siTbQkbDRlKzNgDa26BGGALn0pV5pWipqJoRAG3p+9qmHAM9E56wYUxbeaLFqEQ0X//3lwNxEVv0IthM0NdEY4jzD+hoaTtAOwOhe/tV9D/PXHrqXGZaRqQn57P3AFk9qBuArrAa8zsB2JAkQAtY7rBhcprDc8BhqolS0ydEj9BhaDD2OHk/IlhwNRFjJe1hlnaGtkdyRaAur0zuirwlAV4PWQOwL9dw5OiNcCF3dDKhRfJhSCdSVhR6emnScnGy94s9cC1Y354pkQ4lE2WKcpzMBDIgb8vNHnubJIy+wGXsSC3PttGDVihBFSApkkKT0ZJIv/oWNGkwvzFNErFCnzA9/9Yd4h1th4jONPf8ZyiVeP5Y9tzcAGipq70kmoSaCwjA6jLFEE/BSLwaL5/zNt3wV33vwAISTZO+pcw12Ybi84As4DNhSJ6tEkCgEG3E5AA66oqfY+QF/5cEv8ZFpQIxDFPrFzJjauPCpegPkg9QgYuiJiH+xn4GUrJVqDTZ3WK8t88bz2cNHuHfS8859N3BzNgQrOJNI0tOTcepK0IgJbMCpIpqQxYsatfhUYbIFt2BGwpcxLAzgjGCF0+Y7p7+KIEbAmPL1tKGow4jDsHDHppS9hEgnQja+sFlbxZlcskgVTAZMRPoAYtkWIYdcBK3PssVMRrF4vBnCokybvCfnyHft2cNJUzHvJpyczxB1DBhgpPiQqQnU80KSSZLLtWc8kjIpd+DcVV82k+wKaUoi5RO27JqWYhrunk743tvfjE0dPjpEEtn02OiwRnDlpkOMocZgFvOWhdILki1WIbnAjc5y6549/MqxJ9nqAtaskPMWNQNUxuQQaCTgXCQq4NaQN8B26lrEMri9Aaico++nIBlnDTlDoEhDVdmiMiRzih/adws/fOdbyC4RqwE5Cy6bc1j8wM9hWlVIn9Em4fB85uQOP/7IfczNZS7uOu+o968w6SYQhcGB63j46CE+9+xj7L/pet7RWHaype4qfHDgYGYD2QFSYdQixtJRgncSU2bjjKKyW158/Thr3yoZsrVYhCqWrCB6gxhLtZOJtWJNRtrMpDJ4Y2l60EqwnFvZSgpLZLEgG1TKdVUPar7rhuv5zn03cXsz5Im8w5G0TTKG2g7QLIQqkyQxiIpXZW4iqpYBwzeELXu5Y7KzzUo14MOr+8AGjlvLeGahEvqcF6StV4eVTLQGlxynTObOZsjbzB7+43MPoPUQr5beZryFlDuiF0Rr3E5PahKyrB9fFCyD2xuAJBE0UnlH6iKqBvEV2rfUdU3X9vzJvfv4p+9+N5VridZjMKAGV4ZwXvP1hQ4xHpOgr4Q2blPbAd/32bt5sAc5Xyr6xcbAQdcjKaEIMQH1iKMCv/T804zMmHeM1hgZaF1HZ0DwKErd9XSmqLlYY3AYKi3OdSZHTEqIdS/xd3v542w423PUgO0X6ire0go4zRiUWAv0U1yfSYMaI0WCCwsxznAOztb6Ph2cFbIUotBuMtkYiw+R8SDxgf3rfM/Nt/M2X3NocorD0xbfNfiUcc7TjiCaBL2ijSXUhrXe0J2DM8PVjKiGz21t8Sf2vwkZdjgq8ILLmYjh7ApnPUEcmqDBUGvm7atjTHJ8YnKMOF6B6ZwUZ7i1VXK05E4ZrA3J3TZ6uW8+r1Asg9sbAQkYa0ldZDBaIYSE9Mqe/evsnHye37V3P//yqz/AuO7pXUeVGoyUspeY3VLKq0M1gThshN71rOYB//CpZ/hXJ57D23WyXPy+2vmdH0G7QOU8eI9GaLQCWzGLgV965BD3hFPcsNZwVzWmwmITVGpIHpxRnIDJpfynColEskqygj3P0uvZgpvEiPrCak0UdqOIIpKwuSe5MdZUiBGcZlrp6CUxwDMzFn+21Hy3bGhkURpVNGUkK1ZhWy1eBCM9tfS8Z7SHP3vjnbx5tMaT6QUO9T0albqzRFND5fB9xndTpm4H4fzdyK9k+KZmOjc82p3kj910K45InQ29Rmprzz4sqIrLluCgStCZFrGWb9p/HUfbCZ89+gKjqiGLJ23PcNTkkadPU3yUwuRc4oJjGdzeCCiIqzDi6NsAoyG4AKdO8lv3XM8/fd87OTiu6SQyyCNEDXMLFdDHGda+9uLTisEHAeZUonxxlvhj932WVO+lClPSZe7WXLeOVEHywhDDICnTMCVLZjRYIeyrefrYBv/tmWc5bgxftX8/KwJb/ZSBbZjIZGH/oyTJBFPm+yocTs9hcToLzhbcooFWO4x2NKKUQQYwyWFyxb8+epwvbW/wnuEqgrLFFmvZQ66YW3P20LLrcGAW0moIxphFRic4F8tzWo/NDdFbpg7euub5npv2s2/vzRzafI4X2hkDu0LulCRQDWpi7BC5toOb5sCqabhvtsmt1ZgPrFnY2YThKkrGnOXzT2KJfUdtFFwmii19bQMf3nMdp9rIvSeOEIZrVAwIdBiv6OYMu7KfnC/zzecVimVwewPQBEswgliHzgL4CEz4oK35qQ/8dt65EtkmsZYGkIRUgel6cEpvlEr8a75+QPA5gwRaN+RPfuEzPBEcdtIhdU++zCc+Bq6mDz2IEiTRpTmmcdhBRTfdQWZz7MoqnR/yG0eO8B+ef5boG969Zx/eBIY6xFNUSkQUg8FjCn+gBfUXlzFhg6EyHmsSOcwwyeO04r9uz/mfn7yPf//gw3zk5HPUfsxvWV9jiAebiT001p6t6lwy24WYLwJmMcW4S2qI0qNiMN5jLJgItUAjihXDb/UVf+z2tzKqHZ879QzzrNhqQJ8yuOE1r31ogRg6bL2Hj28d5jvG6+zfu46Jjs5G/Fkyf6MUdqQuPiA1eDFsxzlrInzjjTdweHvOFzZPkoYNtSbSbIIfrkGuySzd1C8GlsHtDYCIQTWh7YzV/euYrU2+zjf8k9/xu3iPgW3bsa41BEPXQJd6BjiiyVipXmFM+6UwQMhzoh/xD554kn/z3DMMzSp9PyMP3DkZYl5KdNIXX7ckqDcwqNA2kmctrK6ArZG+I6UZrl5hu6/46NNP8dFjT4GFA34fRoUmC5INKoFeIBkD1cWfd4lO6GJRkAluwEe25vzlh7/IP3j8AR7amjEdj5jZhl9+5gkO1gd4974VNkPHuK7RnrNVnU8PaO8qZ5ThgBeRpMYhGCJZYtEbZfG5R4eRTBV6vmn9Ov7QDW9hO2/z0PZzxGTA1Nc8oUSqCul7rHdMu44n5zO+7ebbyd2Myks5l6+FFBBTkbC4ZIsAsxOGxtGmwAj40M03c3xzmwePPIvzHnE1wUOe7BTZvSUuOJbB7Q1A8pkmW6qmZrJ9jA/vv4l/+r5v4D0Got1kwBpEoa0Lpbw2lihQZQdZMGdjSypU1vLrxzf4wS98lmDXidozGlT0ifNmC150SE+qHCIW3yo2gq0rjK1w24lsFGcqnDgCPTQ9flBzrLf84vPb/PzRe3m8nzMajbh+2FCrKbNmFIXA8106zjYz5qTlhRz5uedP8Je/8AD/+LEneKjNZFeRTbFv8NuGvLKHX9x+kv3U/PbVA2zHbaQuGedrIQoYdgkwimiRdUKULOCDwWgmmJKz2uJvjlohW6XLFlt7Wjtnvc783oO38LWjgxzd3uKpyQbiX7sycLVDsyN7qHRKTJbH45B61vKtN61jUoCzET5Mi+sqcMKWgZFRkrR0YhnkmtbNWMmW33HzzZzqlE9tHiMNR9h5j4y57DefVypEfvmjV/mUy8WHrwz9LNBQI9YzNz24RJUjur1DXDmIxgRhmz92/Y38o7e/lxsGcDxPWHWrVK+gLnImEpBCorJCImDEIVgmoWdQVdg+8kXn+M6PfYQns7JXB0x0Rl9H6r6mv8IVEs4WXCyZ3M5ZFXj33n18w/U38A179vPe0ZjrnKGzHe40rcSgORN1MRxtDSkHnLiS/WSD7P5beTpZI8a6YloZFRbO5o/Nt3h0+wT/4kjgsc3jPDnZBOtxVYNFCDkV0VxXUW21uJUxM6asT1r+zrvez/fceQP0m1RmhaPOch2ZkLeo8hBizVwg15nR+eaeGZImsBbJmRwVKssLCh9/8Iv8iedP4FPCEIlWUBw5A9YgVUUThHlswZkyDN0pIuBsJoQJ4kaX+hI5L4xay2SUISaGpmFGR9Vu8b9/0zfzR6o11GTmC9bysFeILZvDmiGeqgdeIfa9ROc1CpM8ZewrOjw/ct8X+KnDh5lVK2AryNsYsYt8vAh6iwo5KiYr6dree7xuLIPbBYDGiDiLWoUITTJELfYndVUTYyR1R/iB297G37nrq6kr6FHWskAb0MFC1f1VglsH1H1kInO8X8ErzLvEyFqS7jCtVviez36SXzy5hddVJnkOQyBbXCiMwSsZZ1XbMH5BGkkQOuhmrIvy5r3r3LpvH99R72PvcMQtKyvcOPTskeJUwMKdQKsilqtomTkSIVG0NxPCkMzRFHii63l0p+WhnY4vbsy5e2ODrZ1tDlbKtoW2suA8JijaBbIVTFNhUybkHqxnaAfMui1q2/J/fdNd/Pgdb8f3GfEGWthsWtZxoA5SBt8B56l0oRByRKzDAWkeEO9pHZwk07WJv3bv3fynY1sw2oeXgMYpooYQDZiAHzaEroeYcYNxUcnJPQxqZHYBZFguNTSWgf8OKtNgfc9dkw3+zbd+J++poDOZOsA8duhgQBOVaDIVZdD/FV9ycd1uS2BNHdtdy0ozRAL8w6ef5q8/+jkSQ1y1hkomhRlIgsrDLJaSzN5VpF325F4PlsHtAkAtmKA4IFeCZsF10OPRxiDz4/y9t7+Xv3TTzVR1xyaG9VhDqzB8UQPwVVl5KTO3kSYrwdTEBMO8uOFs4ocfeJa//fg9sHY9w21hNshQKzJVjPNkrmw21tmCW4MnKAvz0bLN1RQgdkCGec+4qtnfeA7WngON48CwYu+wZlB5bjaj0zNvGaHNke3ZnI3pDjvtjGfyOs/NNnluvsV2CqhKyWAGNWYwQLc2UWuLZicGExUTM9mWuTdNPQw8tBF6A42HOGUcI984OsB33XErq82QUe+4uz3CjbXwR266lRGJWUoM7XlmRi8LbkQt5QAvJANWZ2ga8tPPPs+PPf0wR7uIswNUE+KU6BKkkqBIFoJSBs+zkkNGqiu8MmAVI0IOc2yqcXlAGFry8Wf5A3e8k3/5vney3gWqumx6shqMAUkBY3vg1T8fVWU7bzK2a9hYdEc7FxlpxS8+t8lfePhTPB1GQMZaxZviFddB6bVmw8t7rEucG5bB7QLAhkweeCRC6npwQl15RhmmueN/eec7+b69N+F9ZMvNWKOGVBcR1oXb72vSzVNPtK70ZmZzZFhDEHor/NujT/GD99xHMjV2ZY04m1EPKrpuDmqx5soPbmeDpmmZbhaLtWVQmlxEowFSXRVlj0zJhmIAVYwYjDGYdgaYoqJvTSlViix8uBTDqJxDDwwcRgRp5xADxhi0WSHmCDEX/zYRvLFElKQJ5zwmRJJGkrE4alayZUpPzw6EDqkdq26Ndrtn31riia/7NhqfQU2pCHAOSimveoIorEpKv87Cou4qpNBjBp5pbhmZIV+cdfzwlz7Lfzt5ChnsIStAhFnAWQPeEGOLWMfANKRJRz+6sgkRkpU8EpjOWdUh21ICymg8YnrsCH/+TTfwD97ztVQ5kjXg0gA8qEbEBM6aWWskdgnrPb2FXuespIopnnunM/7SF+7lsekWO5XFyxA/VWZVhkbw045YXd5s58sVS0LJBUC2iUH09NnAcMjQW9qdQ7xtbPm5930zf3DPiOiUzjpWtAYc0QSMcWUm9zUWLVVlZgxNb5AEVIrEHfCe/8+RU/zQF7/EZDSmCoaQAgws9bwn9B2MKmyf0St7Y31WOC9YV2FtCVAxdWQNqAcdWEjbIAFcMQ41zmKsRZxDjcWMG7Sp0MqTvSNbgzpXSoxVDXWHuoSgmD5juogNgmQLVMQQAIM1FrNwP8+qhScgoNEgXc/AOagsIcxpjVIPKiwO71YICTocNeuc8h3vX9/LXYMhG+7FpfN1B7eUTzMu+xQRUzIPDBhvkRSJtmETuMM5vvvgzeytlXs2jzGdOaxmBs0KIVtSTNjak00kpI60NkLilZ1Z1L0QNeHqBlJCa4u2s6IG0zi+cOwY3g/5xj17UXpUEqYVtHL04s86aNOJKQa2LhJJjNIArCVYuLO2fOiW23h25wWePH6c4EeElQH0MG4j7bhky0t85VgGtwsA30e6Shn4AambEOJJ/sztd/Ez7/h63jl0ZD1JdqNSn+9KZarShIlKsK/O5tstxxkxxAzWUvo42fLJ1PJnvvQZju8MqJuGXnswmVGG0HXkUQ0IXiFd5fdGDo4chZwsTiyVa0o5NgFdT80QmxzSC4SMiQmrRfSqMtDOJiXLM4IVwYhgckZShBjI0WByRaUeoxa1nlQ70tCSK6BXLAaHLsgoC6cGU4SWEUVrh1OlDz1aOfCG0M+Jsylx5PHGkDVQp0TWji22+e6VWxlIB+bFK+T1BbgMYspGauEwnpGFtQ/FTDVGVheCwJoiH9xzkG888CaemjzNk2lO0IRaj1QVNYp2XdHv9BaJV3bxx1iLDRBEiV7wMZFMRiWyQkVbrfCrhx7mptV9vH+8l2wTsRJcUQbFnqXy4hIEB4aIxxCMxWaoMuzYKTcY4Y9e92bG1ZiPnHwKDQE/HtDaQD0NJHdlZ8aXCsvgdgGQEQ5Gy2Y4ztoo8pNv+gA/fvNbWakNvW3JdoTmUht7VlN1AACAAElEQVRyTgpR21qyBR8zZ+P62wDWCxsmwzzzhFR892c/zjMdDP2YuLNNHrvFwFsiGIurG7RL4O3Vb39SVeAdVIYsEHMkZUWMxVU1OTWo8aj1qKtJ3pOcIRolaIbhCliPQsm4gGwt6oscGFWP2qLqkcSQF/rFBCAIVeNQzcQUSZQgibWImiIH1lhQJcSIWktlG2hTCS4HV2Gno3IVOQe6NKPC8URq+V033M5Ng4SqPb14vp7gprKQaMtgzBmDIapoVnprqZNA7Eim9GnVwNgqf/T2Wzi8s8V0ssNGDOCKGscwCbVr6AMX3cn9YiM5pVIhhuIWn/oeV1fYuqHbnuF9QxoN+Mjjj/COPTdz+8qIHTpGWKzKaQWcV/1sOoge5hikTVQ4OlfcHobJY1C6tuO37TvA119/K/duPcuRYy+wlxEzX3HV2zZcJCyD24WAq5n0G3z7gRv5X9/1DXz7DeuYqqj1J7H4qcV7gzUtUWeIdQQMKSecUZDX3pmJClM7ZTVnDuH4vrvv5nMnI5iKbKZIVeGSkkJHHlXFDmeSGPmalq7szK9ijLJiUkRCQCl9MGOL0WROAao5WTpU56A9ogGbFZcVq4KLARNjydYErDUYIMeSuTXRQliYlltQn0HaouVoIp3KQt8TishlIVtIFhzCeCcQJKNNMdVJEbTyGDH4kzt4v4c2JNQJNEIta7QnMmZo+Pb1PaiY8wpuAS0WPmLKWEBUrBEMgsHgNDJzluQclVhimpBtT2MdTe/5zutuZn+1hwe3NznRz2BYY4zQ9hHc1TAE3hGtMLAj6JTcGLIx6E5ABwOSznFzT1+v8vFTT/FVoxXe60f0UhiwZ3OKb/0U32Ua9VjvwEaMdhixRDX01mIqD9pyZzXkO264k20rfHLzKCqDK37zcKmwJJQAmjuca4htxlQVtrKE2QyTDAMzYOamOKkIKUMOiBMqsXQL1tjBdJzvv+u9fP9td3BjAqWn8waPw6ZiNLmLV7r4k0IvMIgdWJhKTZUXdHUbyWaCCes81MFfuv83+cixQzSjPeSo9JUi8eoOXlc9Omgaw9wFSB7XW2Ldcn074SPf+Ad4y2iLulsj+l0h7YDtB8wqcESqiyyvNqVnFB1PdHP+xpc+x8+/cJIw3AcGKiJ9o7A1R6oRjMdoG2jahHWJqeuQfGUPaqnpcdFQ+QGzdpvr6wE/8zUf5tuGBtw2xFV6W6rHTkFlTiJjUoVRfzbTB2gVbZRAoooJcsNOBT936hT/r3t/gwfjKhWWmsyOdiAG52skR0I7YcWsMzc9MqyI8x76zLBumNoALiD9lX3+Xy+WmRsgzpNDpB4MIAfizhZ2PESHvuzOogObaFwuEkvRkuYdB03H165Z/t3XfCu/47r9XF/0kUhOyDgU6HPEL8qOr7brjjHRRGirQjMetAbjQFxmM88YpDXu9/AXP/1RPnVqg2bPQWbTGeIX/m2XuTDyEq8N9R5JkUxA1NJkT6iUEDv2ZMu3XHc9EwNNFqYm4LWwPL0KQSLuIhvOVmrZtMKNUvEdt97GTuP59Mkn8YMxoY24mcMPKjJzdL6z0LsUgiaobSFCXcGoxBPanpASwz37mbZTPvX4l3jbW+7kDhmy46YM1WGMMJFM3YOhJllbRJfPcnuqE7pdS11TXCZq43jncMC333gXptvk8clxTrUdtlqjMhDCBMXiBvsI0pJMIOceKkPdDAgpk0PAuJoF5fWawzK4AZINxnlC6sr8ipRCXprNy+ySc2jfITFgjSGaxE2V8gO338pPvveD3K6Wkckk09MTsVmoFiJIzr52YAOwtqNzShN8UXs3IDZzCtijFQ93wp//1Ef5mOmJtqHfaHGrK2QE35VgusQVjMojfY+aQtWv1BCsIdnMoY1TfMv1b+KGxmIIdAJ1rohWsCkDqYw+XExkaOaZaSPMpOf3Dw/w/n038rFDj7CTEnb1evp2gkrHwFlG2dINHQwdzSSTrvDCQuoSfjCEuqLfnoDznKwiv/HkY7xr31t5+9CwYyIWpUkG9Q5RwQRl6hLVWdoCoiBdojIWEUNwiqZElYS9Sfimm/fxlsEaz6TIoX6LnGCIJSBkFTTPF33eIkWQ2jlZofIDJAjZXNls1teLZXADbFT8wBNnW2hTU7sG6TISDV4ciSnjakQfAjFt8103HeRn3v/b+EP7DuJzIjKn85GIUInHqYdIkW6SWGzpXxORVi1Yi8sQ8hS1BhcdT3TCD977m3x6Y4PoRki1AimTU0Qlk5eB7cpHBo+CE7JGXLaklKFq2OgDyWR+3/oBguzgtcaa0hMUuxBIfr0jAl/BAXa1QbrAijP0ruPt1ZhvvfFtPLF5gse2n8PVA4ZuhS4Lc3rIxbMQzJU/iuIcORVSUV1XhJ05ZrjCtjH82uFneWs95M61PVShzLiCZbvPSGPw2p9186ELL0JyGdcIYgjGgE2ozKmM5x0ra/z+Azez7j337hxnOyqrfkDHlOFonTSP2E7x2WArD9aWERXjueJT59eJZXADxBvCQjtPxBNmATNYxQ4aum7KSoJ52OLr11f5F+/5Bv7a7W9in8vshAmNHaDe4fDFRFMXgcxBbzItHTWvXfNW9VRiaVPE24QlYmLFA73hz37243zi1DGGB26g22qRlBiOKsJ8p9xIlqVN/ZWOmPDOEWyGHBFbQZewriaL57HJUX7nnhu4uR5i1dJawUfobcRgClHkYh6ezBZzWo6cBA+oyxinfNcNt3Fye4MHwoRZqKjcGkl6kJZxrmjTWflSlz/6Hr/SkKc7pNAx3reXbmNKXY04yYyPH3qON++9iXeMRtBOCb60OkyKVNmclQ09J6JWMLYwWa2WkRTBko3DJkuvgaYSPry6hz+w/mY285QvzF9gLRl2+gDViEGzynw+R5zgKktq55jRAE3L4HbNIjcW5nNGzYDYZxRPkkicb+AHkTfbMf+Pd76Pf/SOd/L2xtBrJhlH7WqM9EhyGJUybJkLS1JN2Y3XOZdZp1eBqiJRyBaabGinO7hmlV9rO77j136Bh9XRNCOmszl2NCDHjtDNGAwbYsog9vJX/V/iNWGzgjVFZEm1DI7HhMlFRHeuLcdNy3ftvZnshSBKhWKNpRXO7uR9njApMCfTii+2QsmCKGIiQ2v4fTffynwauXu6RZ8DPlvECV0tkIQrXLebVfXMux38oIakdBqhqmHW4QZDNu2Yn3/yXoarK3z93utwbcY7xWGgS6h76Ql4eYvC54RBSGJKFqdgAhC18FktBGsBIZjEgWHkD153Mx9cuYkH5tuc6nfo53NiMwBnyLMd1IKta1LK1+wkwTK4AaUi5JCQCCiyOoKdDX7LuOGP33Qzf/v9X8s3rI0YEtDckk2FlTJ8rSRUbJmzNRmslGHZtKgGqF3Uwl/h1y7mz3oEn6D3GakH/NsnDvGn7/11NkarECxGM+IdKQcQxdaWmBKaLZUZkK94Kva1DWsNIcWyCdIi4pxEyWREM7X3PDzd5KtXb+YtI4+XHjElyGRzVrex80aQitp46pQRI8xRMJZGHJM4oZaKb95zgP2155MbTyPBMOw8bTeHVYfEK3vzFRGMteSQqIZDYtuV2Uoyvu/RqiE3jo888yjarPDb9u0lTnvaurCqeRnh68v679EiKqQUixmtMYVY4srGIISW2jiSlFFWmzt6G7lxPOZ/vOkWrlsf029t89Tx4+jqCDNoyO0cYyw5KHKNEs6WwQ2gU9bqhsl0G5oKLNza9vyzD/8uvnfvdexnjhcl4LCmwQJGM5qk2M8YCNqRNS7KCeXijFYIVl5x8TlzsFo1YK0iWP7J4w/zNx67jx1dodaGLIFUCzZAHSBXkG1GE1gasjqK5fQSVyqMhRwD1g4KGSO0xUrbFRWRWoVuu+dZ3/Kn9t2Ip2VuBB8c7g2QHeyk7NuM7VFRjCnu4ZKhEU9SQ/A9X7u+wnuHB7j75AaHsjIer9G3m4hU538QlxDZWUbJkbLSx57VwR7SzpwkkTSyaN9SxRrnVvnVpx/gkMz5xptuY71VppV5xabEmQFuyyjGCt5arGQgo5JYyAngpCakDisJLwLUuFxRa0DTjK/1e/nQW97MA5tTnjx6hHp1TOoDmsFUA9Brc/O7DG6AVIY+JNQvMrCgdJXlr9z0ZvY3U1QGUFyWykVZdIzKjmjB9LXisOLZ9X0ubeXFiItCL5lMh8mJJI4gghOhjUpN4jmp+Mtfepi/99gjdCsrrJiKbjJDh2tIDEV5wwpo0TQUsajkZWC7CpAVxDiURJCMWItkg2RBEHoUUw15tj3BgUHNB1evw89AB4bADMvFnWPy7CYfbuE2Vq5ykfKHyZCMkFLP24YrfPD6de7feJInZx1Dcwuqm9SxGKwmBFevorOA5h5WLHKZ63qL5jKEbwUxlj4H1JW/kwRTj4hbGwxrSx6u8PlDx/jNyYw7Dh7kzmzpnBAl00lCJONCLMLV1tACYwQLiCqKQcQCFtl9CFjrFsSUMtCvUkxwMR7xPYPk+OfHnuWFkLFRieZMse1rsy55hVfDLww055JJqULWIqUUIxvz9KIfzflAOqpk8Llhx9S4BE0fmfYzBmL49S7xZz79q/xvhx/CjddoZspOnJP2DpC+vdSnZ4lLDZFiN7Pj+GcPP8rhHhgkIKB5eMnl1XpTZrSMrdmZbfP+4To/96Fv43ePR8zMU8RmRKwH9CmBhbR5jJWhLdY/0yufpp4m24z3rjPtW2KM2Ftu5eOHDvGXfukX+LftKZrQI1jGnaeaeNqqZuYNPT1NPuP9G3lRiWbxLT2nwGSYZpgu1oqiaGNA5JJfG5cSy+AGoAvhU/uizFHOcLSdonp+VC9VJWtmrkoPrM6B+YRYJXw15GcPP8Efv+dTfGRzBoP9iB/S5gA244yS+/mlPjtLXGIYVZJGVv0eHtuO/K0nHwKxbNNRL55zKRcxY4SmVWzI+NVVkvbcFuGff8OH+IN7R7C1ifc1LtfQBXSvZ7s7hQ8Zo82lPr3nj6amTQGxBlImbbewZz/3Dob8+U9+gp94+llCAupIanqaAKY3+E7ATMprvMIeuohan8PmWoTNCNuzGYgl7V4LC5eMaxXL4AaAliYuC41SEVDD4W76EkX2c3ol1Zc8ALIM6IziDcwHLTQeaSt+6JH7+VMPPcChkFmx+9g384TZFIYeiQbd6WD1PI0ql7jikQmklAi1g/V9/PTTD/CRU9usMb4sfCxdVrBlDEaBzhnmMuOWGPnf3/ctfM/Nb2J+7BnyyOHrUTFLtQaTlPwV3l+XJwwxJcQ7KuuRNlAlj6vXmeaaH3nkGf6H+z7LU9MZ1ikT09MYyN6D1q+ZnZ1b3chyJLTs9P2Cdbtwe7jo84+XN5bBDYqjMAqSkZRZdBR4erZFugBcNBeUsfS8wCYDrbh3kvng5z/KP3/0KbD7WMlDZrnjpJviHNSxsDfVuTIMvsS1DQcNlll/CqmK8/Nfffgh2hlks336aZdsl24iO3GGVsIgG4a9MLANZGWg8C/f9S6+9513kmfPE4xSzSqwY7qxh9Rd6rN7/ugBLBFBDVQSydMtmE2px6s46/jF50/woU9/hv/6zBZj6zjuJgQT0b7+siB05sb4XKAYDncTWgEjDsWgKaMC9kqfwzgPXLvv/GUwxhQargKmNHUPtZMLQ7I3HU4cN/br/D8feoyv+9zH+fykoq73sYKyM98h1RFWLWoznSqhsuA8dnIV3PxLnB/ELeSVIjrfYDRe44svzPixpx4nm0vfc2uJDAcNoY+Fu+AsJHCVZ5Yy3nf8k7e/l//x+tvw01NkAVKhyDf5yt+9DZwt2WhWglU6U4gyjBzddBMdKWO/xtGu4dsf+jR/7kv3UU/G1NmR/ZfTPV5S+TnHj/bwbJt42oFWkNO+TJdBan+JsAxugBhTbCVESpBzlozhyGxyXonT7gW6YRvuORX5fV+4hx87/DR9GGF6RcOMHZ0g+1YAAxs7pL6HQQUZctdTrVzZNOolLgCCp7WZuvJIGjBrM8Om4u8/9yU+tl22X5cywDktbL/KOfqc6A20JhJjGfI+JYbRySk/9b6v5XtvvQmfd8AZaDPxKpCG6rTDVKWVAQa7OiZqJM6nyHiF1MOkO4XWPePqAP/iscN86DOf5FeOz5gZig+gvhiEZOGafq7D1wl4frJdTGg1gzVYYwpx4BrGMrhxJlsyoykXE8eU2GjnzLuvoDzwKgvMzzz2FN9996/xC88fA7uGuEBuZvQjBakZnQj4CIzHUA+o54ZhaxAnzP0yc7vW4aIDIl3fUZs1htsw3ZeQLPydz973kudeiiDnYkWnSmugcpYqBhojRYIuB/ZmT7dvgNWOH333+/i2m2+B7W1qLPEq4JNkH8imuLBLm9FpxFHjzBA7zdguMByukmJmEuaY6/bxpW6LP3LPL/E/PfQlQig91cyL9H1Bzl0zVGGjnZe/pFSCG1LWsSWh5NpGbWqCzrDqaL2BMKOpah41wvOxLdMAIqhA0kw+owW8uzkKWnahIop0PSLCtjF87Mhh/srDD/AkAxg2eLZwKaFhBLGhMi3TkRINSFAkZnoTmFclZ5Tuami4L3E+SK5D8SADWnaYrnawo2SzysfSFn/j4cc4ZUB6ISMoHYmNwtyLX3kP5yuGN9RiaWBh2OoBj8NROU82Sh1hIwRuQPhXX/0ePnRA6MwOa5MVLBnt5tSVR2NEUy4KQEYWg8yXNyT6okZkFByn14kkieQSXgbMNCIo2ATdjLHWTN0aP/PE0/yDJx/HOI/JkSl9KXEmmBBI8sqb293szhiD0cwnUgJWGVqF2ZS2FmoF5dqt/CyDGy/udmVXXWQxH5JS5lT74sUlCEYMcgZBV6TUxa2c8V0jC6V32DccMXT+tGFp1hIkd898TtfuzmqJrwyvxn776ece5elnO5IHlURKFbZfZcMG7GVwhyvCzCl77JCoARcS//KDv5u3tcrWeEqsHdZ42hCw1uFViC6RrOAu8wHvc8Gu5YyIBbHkrCQxJCtgHAeapqwcqouMrfycFYN5jSV6d9OyHRPzrgUREnr6OlG5tOXqS43L4NK/9EiLxq2yqHNLJquSEzwz2y6q+7o7d1IeZwZEMuyGvGI4aFEtwe368SoH6qqoiZgSNCO6UDm5ti++JS4MTqrjLz76JU7NFWWOU2HuLQM8+TKg26asOCyZhENY9ZZ3KPzjr/ntrNspxBbvKshlcc5+sTiHhJgrP/NIUlodThaEjwTJClnAGsttq6vYTBGRYDG4LeAWCiUvx8sz8ee6lq1pizGGlPPpsSZVYUkoudYhGbAkXeReix2Q4nh8MgXKdaeJwl46Ix69NDQVZXddbJedwh7nuclVZMKihl6Uv+X0Ty4/giXOHa+YvQ338Ol2g7/15P34PKQ1ESvQqCHrpQ9ulQo5Z6L1EBJIJBnld1035IdveCumiwSr1GIhJ1JjadoMbSBUb4B45kVGNpTN865YhBqStWAyYwxvGq+efq5ByvPNQrovn319eKprmXTFSDmRsNjiTnJtj7ktV1ZYBKgilIdJu54TgjGex9pZoS7LQolrEZN2mUxS0jbQ3S+LRrBRcsrUwJvqGlKgqE2ahR5lXiiAX/k37xJvLL4swE2nrIzW+MlDT/KvDz9HYxJogBbc5TAknSGbIiDc10JHxJrEPEf+8pvfwf+w52aS7hC0bDIJCR8yVI5zHWO+nFFaEkrUDFrIHtkopMj1tubGZrBYV0oZMsNpzdqXjwK8UqXn8dm0OJMY8yIbYNH+uBw+/kuFZXADVHRxIQnmzKxMPE/MZ0QgF63kRQRblBVZsCwXwe+MVloRN9UEWXnbaA1IpbSpi+CXFTRe8yoCS7w+7BIKAFyItDqHtMpfefR+7olzqlLXegNcus8BHobANCciFbU6yIrXBAL/853vYL9XsrasuCF2lphLhnED3ZXfdJNcemml+6GFpi8ZtOeOwZAxZX1RKRLYVs5NUXK3PPnwzja4qqwpZuHflgUVQXRZlrzmIdgSoJSSpUGR4GqnbHcdPWWeRPny3VMCcs4le1vUzhWQhRTOW9b3YE3JCiUXJRRDqcPn5UewxHlARBjUDaFrGTc1p+bCX3joITZ6R2+VeNHd3s6OSCZtzhFjixZmMGAt3jhmOfLefRXfd/1bMTnSAXW2xEEpUVZXw6yWZvxuCiVQNsURcuTtq+tYKH14YxA1FEe/xft+leXhzDXoqZ1t8E1hbr/Eu025Zp1KWQY34MwLxZzuuUG5vDb7wNZsQhsjuz3fnDMstEtEhIy+ZAgz51yeaxSMcv14FWfltOsApwc0r90Lb4kLhx1JkCpCHfB+yGce2uYnnn6AKgaml/rgKJmlrg8YpcKE18ow08zMWobZkaXl+298O/ukoo9zxFelJLk1A38ZZJ7nCVU9rYBU7vkMGnEoN4zGi03uogJ0eknIqKZzMiU5MZuD9WVdEimsTDVXQ0X3vLAMboCIKZXG1DK3CZk7jCRE5rSp4pNtZOwMVYqYAGIhSoZsCAoewVu3qEsK1lqMKk4toob3NT03yphsM04i4GiMBdcTr2HttyUuDAatxQ093bwjW4V9Ff/osQf5qfkma1GZS0RzpDS/AilN6Vh4ir1KYvRy8e/zgq9K/lhsyhBgKI6BKuoV1Yrbx/BN160js0i7AtVkDrYiXA2Zh3d0fYI641JDLz1WIKdVvnatnOtaFptfA2WT7RCxp+OhAoE5SRSJQmcyRnoezJkHo8fHDqVDoqeTHjERoiGlqyDzfZ1YrqzngEPTCdWC5Vgk8XYZJpxTT2Poa24froCkkrHFTMypCK7KNdzxXeKCoPdKzD2mqjBZEWmww7381Ec+zq92HcNsaa2FeSBj6eyIOjuSAbpX9gt8I3vBXYpA5L37r8dVQpq3ZFdThvSufHkusxgVQs2CSOYwSTnoG/YNhmd/gTLT/eJgwOkM0HJkZ0LS0vtXXmo/edpY+RrFMridgcL1kAUZZNHUNYYHJhsQIasSLCyIjqdn484GazzvGq+BRhAPCK1kqqDYC2GGusQ1jeQBq+TYUalB55FkRzyQLX/zi/fxcDtjmA1qIJjd0jvIdLYwPX1lvFEBzjgHBD6wdz9NY0rVzjUL66krn1Di8iL7TFLmXa3BRHhzU3HDaPXsL5CVCAimTC3trtrZ8tjGJiml08PbL//MdmferkVcu+/8VfBlsUaEh6Y7pXxjpIzELmi7hf5/Dmm/wruGQ9COJII4hzrFZoNeBTvTJS4xVAvnO2cyCZMTdIHmzW/m1547xE88+EV6A2I9QmQQIM3ANEP6sywBb0SA8xjQxP5QGMQYVwaQc8ZeDWw/VdQKYMu8qzHEkLlrMGB8Ti+QSSyMS1MmGXAYEMMD25unNSlh6eF2JpbBjZdeELLQkNz9uzGGw13kSEi7dBNKvqa7I2tnRRZ463jIgESvgooBK2RjyUuFkiXOEy4A0WCaIfPUUQ8NpBntZAvZt4eff+4EP/r44/TOUHUBtMN66CyQL71ycQ4JjOfozoS2i6WaEUNhVMqlZ3ue9/sjkRcCDpkIouQMbxkNONemxO6o0q6KiSC0Ao/O5gu1IznNlHyJ7Fa+dteXZXBjd8bkZd87Q6H7VBQenm8jFEktNeWH1II9h+CUBW4fVRx0FpJCLPNv2Vmuhp7CEpcWToVKHdoXRfhkEmIFJhNG1tIP9/L3Hvki/+rwcyAD8IauCmgXijjxJd5giUJLzee6GYEKSRGTulIpSVd+TzpD2QirRzSAGpxx3LU+Qs7l/re6GOgwZCcspCo50iee6TrEmNPSfvmMdeyiC2Zf5lgGt13sDmOf+a0F+1Gj8MDsJMRMdcYF1EMJVGeBAAdqxy2DIWAhKzZokeC5dq+9JS4Qgs9lKLgD7wf0fcRYTzNaYbI9KyoV9So/fO/n+OVJYC6ejbRD4+xptuQl9YPzlmdiy3/ePA5+jJqMkTmQiPhLfXrPG1YUVPFRqFJhh4x9zVv3rGLOpewqUC3mb4OR0ncDDs12eL4PL2Zs6Gmbklfqv11rWAa3l+HlF4SIQBSeabchZSRBFkHUlP7buaT9GUZGOFgPMdbjMPgE2cg1XTZY4sIguUg/nzNuBog6wJFUaEPCDsbQTYAh2+P9/MBnPsLjs57r85DOBmx6cXN2qQKcCjxw6DCfeeFZsB7jLEYy5Ii6K184WRZ6tF4tNiUcloGvuaEZcy6NjXT6D0goLOj9J9oZk9CfJsBxxuen5toObMBlIF9wGUDyYlvEy9T+gZQSVJnfPGLo31rjCbjek6o5TajB16/8mmcGydSDrfim8e38/POfY5+5juP1jCr12Dhg7luWWOJ1I1kYWHaYlf/fvastJLqi4J3nOB3ylLH8md/8BP/hw9/MXWRm6SRDDiwYipnOZFw2pe9lMp1J1OeZPUUgxCmNM0g0kOpiZJoStVU+PvX83x95HIZroC1ukujWVyD0OJ0RzZW9Acy2htkObQ3W3kycH+UD+0asKXTiqM4o35wWVz4DNjpwgYAyzBWpirjk+NT2Ft6sE1O7WL3OcCbZDXTXcJBbBrdzgSjHuxknU88NVsgeMgZvdhX+z/bjLVGEO/cNwPds2hk4pdcIMkfild9XWOLyxVDWmHZTGCVWcsMX5zO+91c+wi99y+9g7PdxSKbs8wMGZKoMYssCmWKmlvNXumiBcR6RN2Z0e2pwmSolYuX5Utrmxz//aR6JHQz2YztLEkdOQFQGOmCSr+zNX6ozVEpKszLXanrev/82rELsdqB+bc5kJCO7M26mSAUmlCdnm4TYLUdlXwXL4HYuMHCon/Lg1hY37NlDEtAFd7IVOBvfzPghHYG3r65wo614PmVEVqlyoIsBcdfu7mqJi49ZF1hZG7Az3WAHgeEan9w4zvff8yn+2Xu/nlvSAIjMtcPbAaIZacFV7hV70V8pxjEQK48zQ2wIRJ8xueJUhh/4+K/z+TiFwQrEiOlbSoQFRIkaEXOFjwPMoPbD4oaQE0rig3tuAolU9dmXYLVlM10pBCmKSMdi5qHpFpiaZeP+lbEMbucAaxw70nP/xjbfvL6PmAPW+tK8PRer4+jITrgRy13jfTy/0eM7j609DCIS+kv9Fpe4ipEby6TtQCoYDBjPHGb/rfwfR55k//338/fe8S6aXDHA0GFQMdQ5FbUumzDnuUwkF5F2Tt8MsAiDvuZ+A9/38V/ni2kVO1xlEB066UEUsY6YElk9nXXIZWC4el7vvxqSvKK5J3bKsBpz+2CNTsEZh9HXnlMzYk733YKNeHUcbjuemc+w9Yicl+vHK2EZ3M4BFiE5y/1bUxCwMeGtB3IZpjwbIjgnWIX3re/h0yefwmxvkwYZakhan/01llji9aKao61C1eB3MrM0Ie9ETLXGTz7zGP1gmx9569dz09xhszKtwIwslUISPW/WWWRAXTlsP0PdgN9sJ3zfx3+Z+6wwjCNmHbQqJI3QODTOoYvgh2TtIHeX+gyeH3JHnMzAwZ5cc9fePdxYlX1xkdN67dS4eJiXT8HkBDge3N5i1keq+pxkJK5JLIPbOcCEAM7z4KylF7NQ+AdIi+D22rd/NAloQeAP33oTB1dGjGNxDOitoQrLsuQSFw/zPOWm6jp2ZoHtNGe43jCbbjGqV5gH5WQ4BnMW7s0ZwS6u6HxO8nJnQz2HSe0ZmxGSHY/uPMcfef/7+UEZMut2qIMnOIgVYBQ3jwyyo6oatkJHdaX3lGyFCTu0XvGt4brVEUOANEGlQsxZGKExgq1AoFnIaX1hZwtyXeS8lnhFLIPbOaAYknqe6OYcmm1yx3BMzGD9wp/tLFtbqRbLhTN80Na886YVRkTIGYkVVFd22WWJyx0GUnEBmPm9QGSYDjC3yiALcGOhNNZQGcHmhEvlerWaz7vnhoMx0DlHVvjuG99EF8F5kLC3qKWQ6VEMiTpbnHiQTIgd3l3hs269A7Of6ED64kBS7EUMnJMCi5wWbbcqTAW+uHUCbwYEuRDbj6sTy+B2DtidGTkaAi9MNrhjOKLP4IxSnYMlh4mGLA3RCm4O40aJZk6fE0NfXRUqDEtcvnBR2Kk9xk4ZBUfvGlKGwQx2ViIrGLbcnNpAowaXHXHho+aiO+9VQu0xerNKomGYgT5R+545wsA3ME8Yp4ydQ4IDIwQDs5gZ+wExXdmEiXmVGBOZEFl3I4gwM56BOqLK2S3rpIy5BWAcI1sYnphs4RgQrvB+5MXEMridA3qzw4rsZdbO+ehG5Ouu81Smw+V613nitWEXfQtVdLD7rTEDu2s7f6nf4RJXM7RSxgowQh14FBzoGMZaDNbWzOLCFODMeHYBVggx13G6q2xBGwM0DBaGvdqY071r9eV7Dlh19gyPsysXYzVAxRoVKopUUsqSIq85QXh6qN5a6gjGKr2v+NLRbV4IjlDXkLfhjLLmlb0NuLC4wi+bNwi2oY+BROaxrVOFubRw1k1LbcgllljiIiIhKBlNGYvh0Z0NuhyL8/YSr4pl5nYOEFsRQoba8cXpCbYDrHuLSiZZOWvidq1rvC1xaXG5i+de7ffH+Z5/oShFGC0GWZ/dOIqKYEQxuCVb8lWwzNzOBb0UB93a81QIPLGxg2JAz58mvcQSFxu7Irqv9rgUx3Ot4vW+dxEFsexEuHeyUeYIJCO6XIFeDcszcw7QkIp6d05Ms+HeU6cQIKd0mjS9xBJLnDsuZXC90t5r0VYvrNXHppEnuxasQTUV7dslXhHLlfkcYGWhkpACSMXd0w0SYI19iRL3EkssscSFhtHS4k/A57ZPMs8WjAMUkeUS/mpYnplzgbNgy87J0vDp2QY7CTD2rOoCSyyxxBLnA7tglXbAZ04eAWqsLZ3+ayHzfb1YBrdzQMqJSAJnMVl4ZLbB8e2OpJm4TNyWWGKJi4jd4lCXAo9snUCSgZRRjSy7/q+O5Zk5FzghawVxRmUisIdfP3USmxKSXrRzv9Zt3V8vXnLGsr74UC6LwZ2IEgsZ+/Tjjfyc4+Lxkt+ofNn5WV5/VykMQOTBaeTunQ47ULLOwQ/x3bLn9mpYBrdzQUgUgykhiEDI3H3yEJ1zLEve54+smcwZ5oq7D+H8pZ8uAM5UDxUEwxtLhHCLh/BiPMuixMVj95vXCkHjWkNIimbD/ZvHURFSNpAX98dS3OhVsZxzOwd4IBtDEk82NdjEr28d5RjKLVwWycUVDbvYIbz8POriO+YSR7jX+v2v5Jx8waGZhUslABnQMpzysudx+jl6+lt63ufvbNngMqBeXIhTlJpf3zwCvkIxGAU1keAzywj3yljmHecAMQaxAklICN7XPJF7Ht7ZLoK0S5wnMpDLcq3FzFFJGBRzOWwdXlYC3C3/5ZzfuDKglHODJowqlrLpsuWAXsLaPfOILoSs7oWak1uWTV8fjMCpAHdvnATrMeqxWcr1YJbn89WwDG7ngD7n0xeRxojLGUzDZw4fZblren14SY8yF2VYTaAqGCwGC2pAzUXvZ768Z/ryR9ZM1owuem27i7oxBmMuzvG95DVl8f9QhnazIikjKWMjp8u4u8e3+x+8/hv8Yp7zZYD7yiAk7t+c8dR0XsxcAZsNpLTMml8Dy+B2LhBBjWKMBU3E1IIO+czxk6hfnsKvFF+2uIksnBsNal6Wq71MP+9SLIxqDGJMOU6RksS9yuJ/IY7v5a+RTvckDRgpx7L7sGcklrJ4vCwon+/vP1vwfz2vucS5I2P51OYGWSuMKIiQDEjIpLgMbq+GZc/tXOA8KbVUOHoPIQeqvMI98ymPtFPuqoeX+givaMSFpUc6IzNyFOdyUbnknJJAfpFQcoZI/a7b0UXfPeeSKepikFdlt5BbHj6nF7PJxfGInhFQzvPwloHp0mIGfGzjKN4NiASyEZIx2F5J1lwWpKvLEcvgdi4QB10LWiPOoVZxQTgmPfefPMpdN77pUh/hFY1JzoQU6WIAwBvLwHpqY6mcXHIVmHnfIiJYMTgx5asxGCmO7HqR+4LWlNJ3VugVOk20MdLnSFC4wbuyITD29HNFeGmAOw8Y89rVidfzO94QIs5Vgo35nM+fOIqTESFtF/EI47DJkqoKYn+pD/GyxDK4nQOEHpUh+BptW2gqWr/D2lz5mR34Q1mY2ciwTUybmlEHWkc6lCb6q/4sK5mskShKHQz00I48PkSME3IuC3SZpggYC0fayH95boOPb7c8sn2Ck/Mpm7EnVZaBCPvV8rb1vbxl//V82/69vH/VMqRlpjUuC5VA7Cek2lMvXLHO7DItWlWIlBmxop0+J4eEsasA9ClhfMZFDyaDzcw0c//2jP9+7CSf3mg53Gc222N4FWrrWKtqbhx43rc65lv3Xcf719cR7Re755poIM0SdWVR7RFrFlJJr3LuVJGsTC2M1MA80A0dDQLzHnzFMwbuOXqcjx89whemUw6FwFbsSCnhnMUnuG444M5mzAdX1vjwDdfzztWGgekRWloGDPqKbCFYsDHjXC7R0mSy1gv2XTlXqZvTWMvHjh+jT9cxbzZPH+srwaUXM8ecy+t6MQxcRV1VvKkRBs2YBqFKQAs0gIUYI8lZ6ih0DuoMhJ5YG5wa5jkxsFe4E/dZ0ANVDqCWqAZrQXIPVsjB8stHe3rpmQ8b/OYAHWVS2CHnqrT8l5y2V4TIL390WXM4C5SMUYMznj72UBkkZerZnDv3X8dvfPAD1C7R5Ew0HpdAbclCRP1VXzaIKIJgYwJr6QRsn3DOEI0S6ZCup65XeBjD//KFe/jvR4+x6Txb2zswHpc0w7rySBHaGcRIgzAyyoevu53/221v5z3XOVo66i1wgxHzCgbkBXuxHI8x5nRWoApJMq4LJKt0rqEGbABsRrsZDMZsZ/jI8VP81NMP8GunjqPWMVJL6lraZr0sIDkvYmeHMYmb64ob6wE/+LZ384f37iPNZgydJ1aWKQavmUrMa+5tVMu5g1JuDNpRiWGjjbh6wN89+iw/d9/9bPY9GyrgGrDV6SF3YyB7A12EvgUb2V87Pjha50/fcBd/8JYDiMDcKIN5RxoUKrkLxRi014SIpYoduBoFOmAKfM/nP8LHDs+Y+dFL+mtnZlyqitrSB8IIpLzItAVjLN5Y9prEXa7hm/fs5Vtvuom37FujJuNJeBVmYhhmAx3EhWdqCD3eV7iyM7mq0QF1jmAMMRqcBSRAzvSm5i9+7gF++vhj0OyhmiqxziAR3xs67xFdDnK/EpbB7RygGnG20G+7lBd2EwnT9YxV+K+/7ev4upUx1maInt4tdmIi9OKozv8QLmtEQJJikzCtSgY1ThBtRto5toKJGfF/HnqGf/jwQzzcK/g1rMkkO8cEizUGiRTWpBGsh2SUkANQMWgNcz3KD7z5Rn7yrV+DdzXTkBk5U7KuhfWH5lxIF4sFOGWwzIk4sikZQEjKyApx1uKGDQ9OMn//0c/x754/DPUeareHvt1CdQu3aoj9KhIVr5YsEMmQI6hgjGN9a4Nv/Kpb+Wdv/WrW04TGWYLUVBjSPOEGr86oVVUkCdFBq4ExQiuOe144zp978B4enwnzqgKxYAyVsdhUxhCSRpKUzVcTHWPjaRvLxExhOmWvVLx/9UZ+4n3v4GsGFiEwDRNGbo0UDMmCtaWP53MpbUksH+C0ht/7pbv52HNTaidfRh4RkdP/n4UzNhOLAJhL2dGI0GWD957Q7QBzvvP6G/mhW97Gb9kzJrse1yp901AFg3qYA67LmLoEYa7uxI25wiBFojNINFgDajqkVV5oGr7lv3+EB20PdoWmhdZ14JQ6OLokiFsu4a8EK3/iT/3YpT6Iyx4mY40jhYixsih/Ka6qmPeB2waGb1o/iNqExgzWYlJZZJOYq35YQKFQ0p2QBQZdQJwwF6h7A9Lwo088wV977FFOdBWrfgx5Qogzhrmiz6mUxTJo1gU71RFQiBFkSBz2jAd7+dQL2/zykWN86E23sdcGXOzJaguDkBfJFHl3kTWCxER0NS5B7hO+yuhkTh4N+T9PneQPfO43eGRjigsezYZMwhtLhUdaQ/IRtCfnHmfSwoRdsWrw2bAzHvDw88/zSyee4gMHbuO6ekDTzYkh4l39qtMipwMBwkRaVsTSiuO/P/E8f/qRz/JEb4n4xciBYkwmpRkhtyTpyR6owKcEJjPLPV3sQAy4mlaEZ+OU+58/zLvXb2I1d4ybiqhKco56kYhKAiOZZAQjFvpIJYaPPH+CxyeGtupJomRRsoFsC1uvCGUoqkJWJauiu4xSI2QRIgqDTA4J31fUssZ93ZSfO/IIW23ktx+8GdtbtnzAW4PNQkxK48qgcnDxqreVSgIuZ1oj+CyIKEF6LAN+feMUP/30U8ThEHqo1BByD84gajAqLC3dXhnL03IuEEdWJWlelLwUUgLnoPb8yrEXSEBQJXpwCqghyuLvVzkMAUwJbHWIiBNyDowwTIee7/vsvfyvTzwO1FTNiNBP6OoE+4fMtEdqR6wNcWiJq444tASTYJH9Mogw3SGc2uK65lbupub3f+yXOTwNdD6jVkg5lawNys/kF0/8xDdUEUwb8U3GaY/4If/52A5/9Z572NYVtqsBs7FHRwlxcyJz5jbTDSqa5HBYMEpvAsG2JBeIvqd3PcPcsbZ+Cw9uVXzHJ36VLxzdpq1rpLbEc8g65lZZVUeP49cOn+SPP/pFXpiPGAz24tc9WTqSjSTfobVCLVhf46XCxoqgiX5oSWsG6gQaGcWM6wNhPuGzWz3f8elf4LlqBH3D1DhqAM2k3JYRTrH0CK2JUEXUw0RnzPstXK6wucLsPpIv/588Jlcg9YsPKpQKlRqVGkyD38lU1mKaDGaK84a5G/Dvj27wRz75EKdqw15qQu5QE6l2y2wpci1QJc6suooAZiEQYOFXDx+iFY9kiwmKs2XzgAoJSl16iVfE8sycAyRDzloGZXdLXkoxChThwWnLg7OIx5XykQLGEpFrR0DAFOUM0UxvlRyACD/x6IP8TDhO74RxntHbTeZrFcwaOJqQ0Qo2BGjb8uha6ObQtdQJVqWi3pqBGdCtVByzzzGYz3nkWOR777uXiY5QMWAtSV5U6niR4ZfxgHaJOFp0t/oBvxJm/IXPfYzneou0E1Ry+VxbJXY9yQeoU+lFzQ3SWTR5iA6Sh2Sx2WAVZrOTbHVTGB3gOKv8yYc+xWObLYsr4hVxZonPAWocj03m/Mn7f42+2Y8MDzCf7aCnTjDWhjp5CDWEGukb7Mxjtw1uUyEOMXOHnVT4MKLRhiCG0NSwZ508XOH5fXv5gU/9KkecMOiVPkzBJYwR1EEWQVDcopeXABkAI1Bmr/mw0mJpMTovjzzDpCmSyyOsNzg1hKjMvRKN4DrL5nSH/zJ7ir/62Oegg0FumKDgcknjrbna223AIrE3ikeQxViMVcdJgU+cPIkxHhvAaiRZRawDbBkJMV/5HOO1gmVZ8lyQBTUWRE/rlaoWzUFVZZ4Nt9SGD+3Zh1kM+UqZr0VUrnpCCQg5FsUOdbvqGDW/cGLKD33h0yQZ0PdzepPBVZA9A9swEovfaWmbRfPHO4z35e8iJJSORKo8o1gR4hwaIdkMK6t0J2Y8tTPjm2/Yh1lQ9As9v5Q2RZScEj5bUlPm6GzrOFQJ3/sbv8YTkhnX6/S+w/WKT4I2FbYZMAoW32c6TcTGkmsP3hXmo9rTIwBZwO/dQw5zUMUPBhyfTHjo5BH+9O13EFOHEfuatHeRTB8Mf+qRz/NQD3aWiDqFvQ2rwdOlRJ9iGWrDgvHgLakR8sjS4DCq5JhIAtlBjAnTZ0adoZUpLlY8Nd1kaEd884E9YIUoGSeeGYLViBOLSw7UIQL/8ZknefRUT64GFMEvCzgQj+LKiAwW0fJvgsViETUItpwnbClBC6ipcXlMlSrUC30VgZ57jxznZr+Hr9q/ihUlA07dQjxbLrm26EW/exSiybhUNs5BMg7D3Zst//jpx8huACmQvBIdaFKsuMU+7lrZPX/lWGZu54BdqaVdJl/WjHcOAZwYoOITxw4VJ/iYmQMdWuxwrokzbLDW0AGbgA+OmcKP3f8bdCv7qCRTu314dyukVehmhHycSTVhZ00xWFx2+DbjJgHXRmymEHecYKMwXQ1QDRlsDLGhgfkJTq4p/+bEcZ59/jkm3fy0UkfJqMuOtmRwHRCoZ4G+EX7sgYf4wiwwMOtM+k1W2gGpaWhXDVFb4mSHWQxMbYXWY0ya4tKEJvUM+kjTB1xMpVnlI2FDWTEVzI8Sui1Gg+v51MkZP3L0SapzKBuZTvj5yTb3PvICRmo6v0Plp7AzZVNq+mFC6wwWnFGa1EF7ijw7Rm6PMI+b9LYl1QH1HdkGqJXcwGSQkFqRNrDmr+Pffeke7k49jqLmmaJhKIvSmJb+T29hYiBVQ2w9xGnCasKSMbt/P+N72QSyiSSbSDaTbCaaRLYJNYlh2IuPnooOkQ3adJwQWyStUPUHYXA9P/7U53m0jVTBYcQVybEeroGdISw+C1lUY/scEDU8evQ4nWZwlqQZ9ZDpIQUkadlI67Vxfl4Proml93yhktEUkFRo04IQciJqJmqm0oaP9zMeS3NwmVEHgQQ6K3q3V7lgrCiQZqiJrOMgGH78yHPcF4e43NG7ng4tNO9wDMaGmIasTNfAjvBxSuwmpXeUA6HvF3qJFpIlmUizrdC3zPdmNHU4u0JQh7HKH39uk5V6gEvbJKBQQgwBUyyKsoNUE4eee4/t8P8+fBjrKuYrLfV8yMR1DPseQsBFQa2hrgfgM/SRHDqiVcJ8wryKtLWlkcWgFgYq2Olb7GAdoxVhZ0a/d5V//8D9PN76QvXXTIjzwrRMhUQyk4hohMrw0w98nul4jUG0IIber5TSp+lRcaz2NbU4okzpqk2++8A+fuS97+bvvult/NGD+2jsFrSR4fwAsAfiFj7ssJYatBsThoKYnmdXK372iYcheGoCnevKNY7HEogWnIGVDBKVpB3RQc6RSpVcWVQqvA5IlUNDvxAFjVgD3gguKTaW8RmMJbgeM430A09w02ITZVex6ujlFDUTDumIf/T0Y2DAI+wYEOmwXP33D0DFDDSXmTfjaZPhX28+j7NjNHWId0h0SKwQV5EkoZpK/3+JV8S1UNK+KDiTCp1cpt/u+MSpo7zl+luhgloNOE8XobrK6ZIqpWfjMCjKNoHPPfsUWQAx1FPIQ0fY2qQejDE7Hb1t2FyLcPIQt+3fw+8Z38Z7r7uVWZ34zeee5BePPMmxZGnqA7S5W4gm5sLtz7uCy4oxhqdPneIjzz/L7zl4XRnYtr4U0SKoy6i3GIWE4xdPPENMoJWFaUs3HCBkpilD51k1K5xq5sR+m1u2Z3z7/tt5y413YsXw/PFTfGLrKJ/qTzJdPYB9bkp1cD89GXUegxItJFt6f8f6nv9+6DBvuutmrJqXliZl10on89C05fl2TueGaI7gPMRcyAKq0AnZGbp8im8cHeQfvf/r+RpK688YkAif5b383d/8Tf7TzgnoBpi16wnzlu2tACsexLEpEULFZzYmHI+w348Yajm1rwURg1hDygo5kbMhxAjSs2Ycs74ozCQySmFcuqqmF4W2JYwM9f79VCe3Cc0A9YZBzMy7OaxbUq9gPV84fJjDb76DG6TCGsDo6WH8qxkhgXceRbGmaLR/sZvzzMYmUeqr/v1fLCyD23lgN8Bln2HH859fOMSfuuF2kkCVDMla1ESuducAVUjOFuKGCr853+SeY0dgeANZDJ4BE3qQnqCGSirIkSbO+bPveBc/cte7OZAhtwkxge9/53t44vZ38Xcfe4T/7ckHYH0v0biFhEbGLnqdSUsA2Ao9/+nIs/yeG26lB5oF4YdQ2kK9KD4Lx9vIzx1/iqQriDXIPKEjxUUh+hW0t+zMO0hTvmZg+Ynf+bv5hsEQA0x2ArzpBnreyd/9/Jf4yWOP4264jtm0L8mbEXLu0UpQZ3HiCMbz/z16mO++6ybWVYoPF4DmMkhN6eP+xsYxDvctWq/QhR6MRWKxWiL0IAOyBG4aDPif3vpu3rNoZc3iDtlWrMWau6rID//WD3LPr/w3jmtNOKXkpoImUU93GHjHprGM8wpfOnaMz5/a5FsOrmMF1C4GyV8lkkhUEPuiCLMFq8WR/LbVVf7abXcQRVEp5bOUlUDmxGSbI5sb/NzJw5wyUDNGsfhK0FOnYOTBerJGcBVfPPYsn56e5DtXb8AZSObS64q+IfePUZQyH+s0ItnwKxvHODbvYH0F0rXAGb3wWAa384SIQE744QqfOrXFk33ktspAMhjrcCZc9T1fI6BUpHaOawZ8evskU19hspBxTBoLqWNQOeYh0I4azOYWf/rGm/jHd70bCZlTvmc46GlE2MpT7ljdx19//zt53O/w8cPbxCqBFSQozlp6o5Bimatqaj41n9CmYuzIbnCT4gxnSIjCw+2UJ+ct3u0vJR01qAZCUCS02NEque55n1b8qw9/C+9KGfKcLiZWhjUTnbOvr/gH7/4q5g9k/vnzT8PwALR9ce3pI9QORKmCJ1YrfLGbc6yds14NX2RwLhhxDiGL4d6tbXotTFtjDOSIZEsyWgwTmprZ5Dg/uP8Ofv/6CnPTYYxhxVd0QBoUTuj7suNv3PZu/uyDn8fX+yG36LrSRUMfY8kG3SopVtzTHeN32nXm3Ta1XXntDzgXtehkAGOwIhgMNXDLcMQfPbhSguKue7oWtZLIPgJv5vdNvoq/8LFf4Ym9HvpMOLHJaKVCxzXdVku2hkot/XCF3zhxnD+8fgMpBsRVZf7xUl/gFxmV0ULQsYrGKSpj/n/PHYJqhLUL2bolvmIse24XAjEgvuJEq/zSC88thk5z6bddC8Jvmhc8OgMKD2xtw3AVn3ep+YqIoqHHmQZIvHXU8GPveA+uC4iL7MUxaGskN0QzBk3c0cGP33gH+6wvJUkpTgGLV3yRraPC013ihVMRj9LnRBTACxEpEk7AFyabkIeoEVKIUA8wXYJhQ50F0oR06ll+6G3v5l0ZUt/RiYOqgRhxMXG07sDA33zPe/gtg72QOvBlFEEWKiKSM7QBsuFEVJ6fTkAXxKSFf3am9CoDhmd3WjA1pMKhyV3A7VrsGKVOEVzkd998Gwh4a6knATqPCxY7UTyGfrLJn7nzdm7cM0YiuOSQjR1k5tHeQqqYmAxJ+LWjzwDgm8FLP8pX+HitFtWY3SdoTIQciO2cQdLC3DQQEbIaUkiEeQ8x41C+dVTxf/yeb2d1cgSkZ328zmbu6FLEZI9JlHM2XuP+zS1Q8KXWvXAhv8qhpW0pGrHO8cXNKZ87tQFNQ4rXwPpxkbAMbueAs6qXZyFrizFDfvHQc7SUXg9wzYiaSga8J6bM0XkP2WIklUUrJSoMOYFLRRD491x/KwcznPBTOgHpDUhNZzxjajQlqDMf2L+XN41WMZJLVpCVACRKSdJgESJtNBye7NCQCwEIFl5nixqeg0d3NqhSQ5KIppbsfBHyncxoVoek6Sm+8aab+L0HDxK6CbPBACe+6DDWAxrGrFGxmbbZk+HrV/Yi020gE8kIDpstaoSYQyHaxMSxdg6ZM4xzcglxGQLKkbbFqGBzKv+iimYBFGsts9kON5iad+9fY+ozczI0Q3YaQ/QO6o6awHy1Jif4lutvoW9b0nCV8eh6nIxBHCMjoB2NWo5vT5gmsK+gbbXL3ThTS1I1l4wsGTRBFkPMCZchqGMeLD0eNQ5bNfh6iJUKEx2TcIqvmSX+3B13UefEZjuHuoIuIFUN6ELOrOKF+Zw+JMQv5Nj0GriBshR7vhgINPzC0aNsq2EgCqG71Ed3xWIZ3M4RrxXg1DlEe4yr+PzOhIf6OWISyYCTwVfwW65MKFqCm4UgyjwKBEVsRrXHGoixx/uGFqGKgffuWfQSzCpztAwGGghdpFZI3rFFoFbLLdUQm4vjm0VIC6KKYJAMxiYkO06aYudtxZ62e6m0lP4SMJt22CSoi+AykoRkhWY8ZnO2yWi4Sh2EsYCtHJ4MPVhjilJGzjStsu6HzDO887ZbqBuHTWXoWMWgEbI1hIFFTcZqYrLI1k4z/s7IgtqYOKGFimEMJO0Qb4iai62Jgl0dceNolVWgBqoQwRQF/XoawQquNYyoSQS+ZbhGva7o5hF25qcIehLbvcD16QRfVUf+2K038d13vYPGgZxTO2eRgaviVDBJMN6Bswv9yExVA9KTiCQiKgmxuZznah2c8I17r8Ns7kBTQ7LgLUhRtInaQ8jMgjLPseiVCuRrQQVh4aLuLGwq/OeNE1DVuNSWVH6J14Vlz+0rwJkMyZf9A6KJkBMn1HLvked4/63Xs5mVfdJc9T2DLII10BHI1pGTgjjU9qWs5A0p51JmGlX02y0utzB0rHZQVZ45PVI5GhTiDGc8a6YmZhhj0D5AZTGmWvR2ijN1zpnkEhIMO5aiRen9aQq5ycLMFUqPTUrMCVs7khjMPBIqIW1tUO/dz/zkJtUNB5kJjNTS7EzQldWi2t7DrC46oT60NN5RdYm2nzKqh0ytIFhSSNCAOgEiJieStWVuSxUlI1JmJEvmlpiZIvIoXiAmTDUgz0rv0CRFpi1yw4DOwKjtcU1Fp4k6Cf0IWmpWHbgWpDG803quszM+vP9O9q543r7vOu70ia/et4+hMUgoc+AQSBXIWZYBa+2i9CwYLUzJhS0qMSm2F6xxVIuX0UWSzcJH02ZDbJQRNdft3cMzaiEoeMWnSKggxQTaEJISbWZGZNVUZCkqMFczVKCNHQObOXxqm8/PJuW8p65kuOkaKM1eBCyD2zngrDM2VUXeSNhxS1LLzz59nO+7+U72mQj56jdltFmIJlNphSjMTIWRLeY4JDdo6BGGTH3EdjMyQ5KMS7ZTFTWSgd/1TigjFLvn3Vro2SLbMWhNa7dRrXHJEW2HpgqTh2TbMc4Ter8fl0BMD6ZCRRlkIZtEUEtoFNcmTKjBd5ArqEfEWUt2lpV5x0ghGjCjVQwdXqGtLBaHTwaTPcRILwl0D3MBukiysQTeXgvTUQ29FUwofboqC60rQQFAK6iisJqFk1nocyy/eOBRyfgozD0M+gFbuol0CeMbTirsy7DjOlZyTYWCK5PYRpWvvn4fTx78fS9+PnLG7l91ofcFp29/kTKQngvtXEyCbIvtitakPAetEBxBOmQgaPIIHicBKiGlhNkddzALUg9AzjirOLUczJZTMYCJYBvqfk5rfTHbjCB2SrRD2gz7qEgmLhilV+f9c7rsq0IjDUngvzx9HxoNzahmM25Ta0PP7FIf6hWJZc57IdBHYuVLucbVPLp5ks9szyBZggmX+ujeUFyNw7aGGq9QFUZ8qQ06ZeRgZCBjy8yBWUhSiUPFIcaD8SXzgWLiqVAXcSpEobGeWoTKO0ilPCt9hARBEyYpc6ecmPacDImEsg9orSJ4SPqqc2q7BqKXO17uDwdXP0PyTJQJl44jwCdPHcEhtPM55AZNy57b68UyuF0A+NAXyT88Bs+x3POfTx4q1h/XxKTOS3HVBTgFmxySlIjS0pJST+47wnxCnTIuJtziq02JKiaqkLAp48SUACTFxkUyOFXImVrgYD0gG8FmA2LIMVErYFIpyTllo0t8ZrKDVYHcExE8BsxLeeKy0GLcDWxXQnADXuLBt6ADXTnHfp5IFDGeu3c2+fXZDrUUMlGtY/Sa8EW4OFgGtwuAMr5kUIQYE4zG/PLx5znVg+fqlw66WstGp6EAuShmoBgqrBlg6iH9cEBymewVdXr6a3KZ6DLZZXJMRTjYL3q2WhbwpBHIvGNtjT7sUImHbMhGcMYCQjZCoxlo+I8nDkGCjThjnCgmuPaVh6AM8uJ/8tqPS43d41CBtBgOv5ZgSBhx/NdnnqWvG9QkcBUp+1IaXuJ1YRncLgCCSzjx9FlBA5aaBzd2+I0Tx5FU+hrXgj7eme/xTBr5lQ5VyE6JJgOGKleQDfMIxI4kliy2fFVDViGVJQvFYEMofn8sTFRTKszKBWvya/fshX6KseDVgsvFiBQpKh0hgAz56PEjfHZnh1G9DgFyLvN+Ki8t450OXFx50lV5sRm8ligURi3PzRMfO/wcmCEzm6gSRE2Ea2HO7yJhGdwuADKJyjrICSxIULrs+a8njnyZmeDVHuBe8h6vkvcqFnqKpJRJQCwSI3WYc1AVP2txbYdvO3zXY9oOP+9wbYe0HftcVfgasBgDWCzexmGB966ssL9uSCkAGRR6k8r1lDORxMBWbLWZv3P4kfKzbkGTzy9eX1fq2T7znkgUVRlYnK+r5Bp6TQj86skNnu1ykYHxBu374mtnz8HtdolXxJIteSGQoaNYktQxEIwHv8JHN4/y4Owu3j5cXqBXNIpW1q6bWfnDZD5w3R5+9J1fzR5X5KvEmJJ15Iw1i/HyGLlzvaYGOhJ2UW4sgwwgWXjrsOF3HriNnztyAuMdts8kk8v8WjBEG1EbMaHmv508xc8fPsm33bjKXoQg7iU3cbH4ejEgXEmZs6KLcTq9YgP168Fm7PnZF54lVUMaIl02BBexRJIZlAH3Jb5iLIPbBUDlGvqux9Qet71DvzoAtTyxs8nnjjzH2998+0uer3r1jgdclZlpKiTICgO5uEAkptwxqPi/vPnNqOkXBq0liyo0ooXoryqdVEgs+ZosqO1CkVwiCY2Brz9wM//huSPooGJ9pmzUGYxlmA07TojS4qWh7Qx//75P8FsOfjN7c0Vw7rVv4oWD/OWMkssWqCp5EdyE3XvlUh/hxcULsx0+euoIxu3H5B3oDdQOM29J9RrXjMzRBcayLHkBEFORTMpdoB2vYEKPm22zXh/gR49vATNmIqR5cYdO/ZQWoIeo7aU+/PNHqbGV2S6z6AEJhS2qu4u+Qc4QnTfkxSD22XsKYha9vDMCpy7YhuX3F/sbb125oPPid6PnRnbZdYlkdwYto5oWB2uhhhoHOPBlbszrGNWquLNni2aHZoNmQ86WlA0xG6JaasqPDvCoCuoUr0WRRL2QzYTvvuUAv21tHd2YMhkOISYQw3bKqFTUrUW6Cezx3Fc5vv+eB3nO1QxDx1xZnNs5HXNEFOkEyYuZs7Nhd7NlhSqV0qAaGEUhixJry0LNE5fBaflcJWUcsqikGpIIPZBESHmhAWoMubeggW03xw8ypGE528aBneOzQ4fbjGdQy4idapXAZFHKdVd+vzp19FB4j6lYGU+BFkFy5MdfmHN966jzlJmv0ARV8gRT7f7UEq8Dy+B2ASAK4hzGuUUzXFEjzEPPqc0NPrq1wSgBQ9CccfXw9Lpp5Oqzw7miF6LXga+EjfhKGbvJDWsZfvCmW2n2Z3TeIjqAEHHrjkossRb61QrZahm0Iz559Ah/8VOf4AVfM6SjTwFlQNMOmNHTNwEyzC/ALW6TgrGoajHpFQVnyM4QrYBkNPdkDVgyjoyVjGiG2NNWgApV3zCbdjTGsRIz89hS0xQFjmDI3tKHGdJFBlhU09VhFmUcnsViazwpKjVFPu25GLnvyCFOpI7TXvKLa8RZi7nG7qULiWVwuwBIKSEiZIGshcgs3pGtsNPN+dnnj0KCRItocYm2QG9zGcS9SqBX6djDK72nM4OUEfOaj7PCOtJ0wh+94ya+f20/kTmDZhVaIfZT+tRCHxn6Bo0BdTXV+g384tGTfM9nP8fzYUZwHonQexhSUcXMto8XJjgEQcQtND2VbGShlJ2IxDK/52useIwKuY0wjxAFS4UwgeQ41EIbDTHMiTVgBQIkBHJFqh3eBFYwiJqrZiQgikFyQIqVLojHhYAR+KWTR3h05xRxUBV3CVOcJVIORVszL9mSrxfL4HYhcbpUpkXwtHJo5fjI0W0OBf7/7P15uCXnVZ8N3+sZqmoPZ+hJrVmyLFmWbFm25QmDMYNDDMkXCDEBEwghE2MIIW8IJBBDAhjiL2D4nDAE4/ACL4Q3EwZCTAh4lmdrsuZ57LnPsIeqeob1/VG7W62W1C1LavVUt659dZ/WOWfXrl37WbXWs9bvR9kGsKZrCQ96Vpz8F2Jv8VSZ1/pijvdI9qPYpZKcJ/zrq9/AV67uYDbfS+EdVfBQFKSYkVkLwwG1bWmnDd6v8L82dvOtN93AnvWu5jvXmogBSpanSsNzn5PS1JUds5jOqBTp7KMjmGwggGlSF+9E0KogDgtqL2w4WEoeAvznxx5G/JBIw3zY4kxBkxbBUgsaWnaOPVsrC2rRM0Q0OC5K3RBQBWMtualpDfzXBx4kWIcZjWBR4jUoKaXOyd70we3ZcmZcPScZ6123YIl0rf8ixJyIKSHOsmsm/O7e+4ABaeF9VgDuzLgxfdIw1cnK3l7oAHf0PNnTPY71swBeFlqOWuI8/Mq1b+DSNKW1NXm4StEIjEdMJWJSAjJNnlAXCuWYDx1IvOUj7+cT+zZYcRWb9Wb3xCPLUhMP71k92/el20sF6MqTLgOt4jAU4ml9JJSJbCJKS2qm5GaOy4kiR1pb8p/27uF3H7kLT4EpLYSIBAVvyA5QB/MJL1sZM/aAdKao8Qz4jJjDf1ryQkzaDEZ8ZrPm+oPrYB02d1ZQEgLWmG4PXwDb9/w9W/rg9jyQUupKk1kPBzdyRhclBWM8v/3AncTC0RzK2KxwRnxyj+JMm3E70YgIy0GJUTHiMcClFfzqG7+CC1NNW+8nxrYTIqlKco6MkzJcHZNcotw/gey5d2Ubf/nGD/Pb9z3CFr9EywRyonVHmZE+i/dF3KK4qZ3lkKSMUTDFgBmPD6wDGAyFLyh8iROLN4733H8n73j4FhrpBtJLhdG6I2RwksFmCFCmyOtWV7BAHQIWSGeA5Y0lo0kQLUhAalpm1vB7993JGq5To0kZkuKQzo3dmu4j1LtwP2v624LngyPEXuVQFUG6WzQRofCZW9Zn/Pc9m/y1bUtYAmDJ1iKaFmq8Pc+W06kk+bQUlhyhypmDLvE1K6v89DVfwj+78Xr2DktkMseOBqRywGRzCrGB0mPGo87lfBrZsEO+/Y5P81Cs+dHLXkyjkdaCf47xQTQt5hYykMlZUF/S+sD9szU++MiEaTNnrjW28DCo2MyJ+w/u5549u/joxkEesyUMtxJ1nZQy5+qIqUvdXpQFsuOK4TJfsf0cbIZGuu5a84RBgdMTS6I2BZWCSsaSuG+WeP/uR8CNUOkk2UxZoPaQl9+i2zXzzDpee55EH9yeB8Q7jHabv5q6FvJDSvBZlSANWoz4L/fexdvOeTUhzTFaEV2B17TQiD/9OVp6q+eZse6VMRmTMxSBFRLBKX975w5m17ye77n5k+jSMnYa8OKoBxXkRGEq5rHFGLAx4FxJXa3yL26/lX1N5udefgVL9X603PrcDjAG8A4Rg5FMFlBvQDL3bRzg6z7/MSBjrGCyoiGBLUjOdx5+OLbZneyv56RSQBOTbqaClOZY7RpvXrS6hZePtiIZvPOQInLYnuc0RgNYT24hFoHSOb5wz4M80M4xxSopT7rZGWfJmhdjIA4jnWtePO1PwMmhL0s+H6R8uKtJrEWMPTR6BQjSGhiN+MP993Lz+gxnlsAVlHqGvAGm2wS3GBqjzEk4MdjcqUMtGpyfpIEIi1G34/167X7W5s4exKdOpYiFruKhrjpvF/NYdqFRiHSl4hPI8xHIVyiwdA1IMEB0hFOPWuW7LjyH33jFl7A620MoE8G7Tv6rqmgnm4wocdGRS0eda8osmGLIzz/0BX7gtpsgbyOlKchisLzuevZmAHVDJD7BMudJ9jkCyZZIjKhkYrYkZyHMkQYOlmOsH+CKMd6NscUSfriKKwaUxlEtHLsPuH1d12QriGyhBYq5glshmlWWZA//5qqrGM7nRBMpFFDb7VueZg1Dh8/lYp8zi6OkM3CoMuy3np/ZfS+4JQppECwiBsnajRUZi4iSSQs9055nwxmxtp7qRKNQt2BKfu+hu8ki5BS7eaH+Leg5Dt9wwRbefc1XsiS2MwWVCM0arA6ZGqCy5FAjg4LURly0UC3xnx99kB994DZwY9bp7izqgaJNZBgSdVVCfO6LZzKJKJFGWxptqWlpJNBIoKYFu8KWesigFSBR5YiYmtbOoFmHjYd5x2Wv5erRkGawMKqNGZygZ8Cmk8Ew14wOwOaSD+zdxf2zCagh5NP/9Z2q9CvrC4HtHJKzHfDbex/jvnk30hKZcaZUhvtS5IljS2p4+8U7+OXLr6PyE7xGXC46zcFQ0zYNFAVa10TNFK6EPOBANvzsI/fyvgcfZYgwpaGkRUsDXa74tEanXwxiO2Waww8r4LqmCGzXUXkgbTIrLXZQMc+bNATOLYdA5m+9+DK++0UX4nOnx+EOLUt6qI3+NCc7Mol2IYr9O/fczropQYp+P+0E0ge3FwAjgrOGloKHsuUPHnoQAEktKKe/vNBTcKa9nheSo0twKgMkznnbpcv80ZWvY+iV5MZU64LYBEEpXdlFKpNpiRRtxsoypIIfv+nTXL9rzsiU5NQCCfVQzBRji+d8vK5NuJCxIWOSYhO41Cmb+Ki0eR/F6hAjBp0kSrMdsnBgvsGbxzv4+Ze+GlPB3AbGQIoRcQaS0p4BmRuAE6EEPri+nw/v2wejLYA+o7J8z7OjD24vAC51Q5ndEMCI33vwHvZnwdmKM16A4CwIcnqcx7PhSPmuaAzBecow4asv2MofvPItbA8TWCpRKXBVSTMPDAfLXft/nuB8xm5OWHIlu03JP73jo6y1MLOOol4EDCfPywKgWMCi4jqFaXHdv6lF1bBtBlonchCqWJHaADLn6y88l/e/4fWc02TWqfEIkqE5tE/qpHMkP82JOXeu6cHwq4/cxSQ7huohB0w+AzLTU5Q+uL0AWISUExgoYuYz9Tp//OgeAgPMEY2SZ0K2cya8hi/6NR/nv+eKCFSNQ90SKbe8aYvnz9/4VYxkHYCoETQj84g3JZSWma1pq8SmabGjFT473eSf3n0jJQNwFVK3aMHzcnMVbSY6JfvO1DWZRCKSJJEks39lSEjgnWU2mFIWE/7txS/nd6+8jrGfkG3NGIdrAGMwRUnMkShQptNfnq67Agy3zCN/uHcPZriFNF0HSWTtl+ATRX9mXwBaWSg7GEXyHArPf3roIR4LAPGsDAhnEkcqgDzV47nitO0+qUloxZLNlKuW4cOv/hquLFsGMUBhmTYNlZTgSkgZOxiCKqmZUo7O4TfuuYOP7WqpHWAj6XmyUjExYFLE5IjEAKHFxECVMyMAjRA22d7u5Xu3b+Oz1/1lfuillxGrhKLMyyFFdhAUxeDJREnPy43BqYCzQqPw3kfuYRpKjBS0zDA+k8zpH7xPVc6MboZTnEQCW2FiJFJjixF/sXc3964FXrTagh089yfpOWk8I3Hk50BNovKZGBTjPC1KlTIvXin4Py//Er76ppu4I0yx4yHzeYRZxrgBstZQDgY0MqNRYXu9lXfd93l+Y8fr2eYVS8bwTEyHjs1W6zDGoOaQxVHGiaGynsp5Xm8HvOWKV/PmbavsKMEaxUawydGWS90ilKEde4oEtmnQYYnLQuPoLINOZzSx3lp+5/5bKdwFtE0NZaQUQ72Qb+t5/umD2wuBWByB1mecWaaaGCaV4d/c8xHe9IavoshKLUIVO4nBVlg4N0MVFPxpcvkLRDVkFVTsojFCMdrNpfkEyXZlGrfw+3pe9nw0HZb17L7m8F2/qjx+/6/myc8oGdQuRCAXotcYRBYHKokkDgkR6xxTgZY5W2Jidzvi9/bNONeukTQfbgRRVexCYaNtW75s9Xwu3eqJ1Dj1JPHEPKfMnmzdwtYkHzYV7drf5fD8XsWAmBPOW3JKWPFgFJNadm4d8anXXsWbb/ocN+9KDFzB5vIcO2kIpSFKi8kFtp2xf0X5kwP7+W+7D/K927cQixoxCxUQzZ2izkKMALNobMkJK5loCnwSoqkREdRU0E745q3n8h+uu4acu1nPJ7glGIO1lvHRZqkqHLLHO9zOcujvFhgOuoXJnB6B7XFlIqUxC4+7JmLLggYoG8fP7bmTvThMmkMJEqpO9GU5wBlg6Xgq0ge3FwSLiQmcEkWJBhDHQ7OaP9l1kK/ftoVgEtYKHkOx8CF2OYE7M9RLXmgEed6KWhGorECEkYWhcWSjfGT3A/zUpz7JvqUt3ebVoYVdO41RUdC25b++tuS8redjcKSFfqRbNBKkBNHJwgRpIaq72Ic58p03i/t7sYacFYPBigEUN1rml1/1Fv7Wxz/CrskUNgOhqiijIaRuGHggliAZK44P3Hcr37n9jRRY4vNw7zTy7nD29xQz4E9qKjodB7KPhWqnRGTpPr/k1O17AsM6cY9YPnTXnVAWODxtnOPLAp0GngfThp6nod9zewEQNZjEIimIRKcglgeawPvuuxuAAkuQABoPGxS6IMTTcB04WaMNnUL/83/COpNJ6VbqRpE6Y0zB5rhk39hRFQXee1zRPWzhKb2nLDzOex7J8y5QBaHNdNHSOnCdGH4RG1xqcanFphYhgARUWpAAuct+O5eBRUYnCyfrCMPseHUFv3D1tcxYxxcjiIlsu05dfMZEwDkKKv5s7yNcP9nE4lGJh9+zZ31+csamhMsZD3jAqWJzxp4F+8lC6mb7BCRJJ8WHLvY0Lb+3ezc37DsArkQW7vMRxRgL4TT8gJ8m9MHtBUDp9iKMdFYWKhlnS5KU/PnaQT64vp8yg09KpuXwLog5/d6eM7E5xmomoDQOZgMhlbabLWst3o6oJROMEiUTjZIk00imIRMlMzaum/vS7iG5W9PWafBkkvMk60jWobZApQsRiifjusDa1Vq7cyzSTX9pZ6NCDQfSAf7ayjJ/8yVXEtqaylWE+QzjHThDCAHEk6xlVla8/9EHIS6Kn0e8Zc8mqTokcGwWKihd7O2+Fo7tTH4mIHSO4dHQqftbQ8qRQYT9PvH/3Hk7bDsHopLbAMaQY0Kt6bzxek4Ip9/qeToimWwsVhxkRXPsPLHciE2EX7n/VtoAXj0zEiraLTgWTH5+OtpeSE5W1vbU//7cf7fNBtVMSyYAKqbTPawTTBMueUzy2FRgksekApcLXPKQPKOFtVH0GX+41thdBxINtTa0uSHmSMoBtBvuNSqYBElAbbffJuRuGPrIomsJO6yDasK/vuAaKhKxacH7bsGNSnQW3yptbmG4yp/t30tqOk3QZ3oun/bcW8B0N20c+TB6hE3GmYxAytSAGiGR8Thcdvzmrvu49eA6g9E2aBWJ8fDgdjTmeVGI6Xlq+uD2QiBKst29LFHJOZFSoLQGjOeP9u7l4wdmgMWbioAlxkXpSU+fxeHomKaqz090+SI5EU9ZYBllKGK3QGENMq4IQ4/YGrE1auYg8+7PQw+Zk6wwM5EkSiKDJiqEFRnTJhjFAYM8oNQCwTND2KfwSE7cp4EJXYCThTWSOdRqIoCBuQWLpxblSgN/45xLiGkOZUlMTbeojobktgFabMzc17Y8XHcLwHO9F8kISSFp9/cjvz4r/OYFct35n6sTQmoxxvFIhPfefSeMR4TpHJM782KNGetLUg6L26WeE0HfUPICYMhkUZJ2xRucELTFY7GSmbox73vkDq7d8Sq2YKkRrAiHvE9PJ87EsmRMAWcsJhsGBjRlsgRmsYZ2Tiq3kkmHux3JmYjp9lesoTWeQhykhmgjWIdLlsbC//3Ifdw4aWlSZppa1nNkI0cOxoZJCNQp8OevfSMvWllmaICgiBe6XZ2uqOVipnUlLgk6gK9e3sLvbDwCTcCgGDUEFGzCiZJiYqbCrc2MixbBR1WfdYFMEKx5YuPTmVh+fDoigis9Q4VGMqV2zgvv2/0gt24k/NgT5nPEWVpZmNKmrrR8Fp2mF5w+uL0AGM2dzWPOWCyxBEIiSEuhhuRX+K+P3MX3vegyXjdeJpdQGkAzyZyebm/PZbE81ciFJ9Op8ScxiDcYhJE4lkzFPMWF8/rjr90aRbISYyS0iovAPJGWBrTO4BI8GuEX7v4Md+Xhogmn65o0xoEKGhM5G3atHeSileXul8cE3mEQMl0fg1eBLKybkpUI52xfgts2KaudNH5GIQWxnkNpGGVhgiHNIvfGGcLKc+4q1Zy791sWLtI83lQkImf8Cj7TyLJ1MIf5sKYUy1qbeN+9N2KLLYQ4xVeeoAliwBfLxFmN8QaxiZxOx0/4qc9plhecnqTFdjtkklWkUSQPkGAJRhhqZOqW+Kl77qIphSGRFBXRhVXGKS6s3FBjk2FDIpGEakPJarevSIP1DsI6Io5cDSFsMHARyZacDGSIOdEQSQTIAVJGc9eQYPISNk5IpqFqh0QnYBKiBSYJPisSFdwSNh1ABOYUWDKYQJZAwiPUmNgQrSUPAz4DuaRCSF4Ya0ETDTSQTUbNFMXjSJhoQRytZAwtOdQczFM2qwmlJLImjC3RRjHOkopMXHSRuKIEm5mMIxbDMAAa2Ong/JWLkOCpiiV0yWMGA1x2BGuoqopsAh+MNcuzrs1oMihgBok5hnnXSp67QSkjGfUt54pgS08TM/gxKdTgh5BL1kNCk1JlYdO1iB4qcT45AAndeEPEgmaC7zois0i3DykgoocD2tHZmjHmrMjglnHkDLMhrNaRZEv+w4N7uHfmMEVG8J3/aLaI8YQ4RwvtvAj7wHbC6IPbKcAs1JTFgOsPPMZHdx1E8Zgio5IZyKk/xuoWc1kVhso4RANRFIl0ASG0DKoRftbg5oorRjwWIkSovXLAKC5byuxocCQ8c2uY2C6gT0WRwoMxXZDP2g0dkzttTufIhcHEDLYki7L40a54Z7r2dGstah00GYKS6db0Wdsw8kPq6Rppi4UCsmaCWlJjMERqB41CFTJNm1E/Zqe7gNV9A5pD9x2SD2d1NIrkzlpGU9cU5A/1xnXDbFjgXFcQRbBZIBhyiETp5kY6E2vHzWv7mA1BJTKeZXCGKQ5pu8LLnnLQub/HhCTHgc05qSxg7KgObnazkjF081fOk3MmloZhkoVTds9zQWMmWxjkyKwq2D/J/OcHbsX5ihT7PbWTRR/cTgVECQ42anjXPbdTJ4hkos6wp0E/iRUHCUoMA/EMvCXZtGiAEDAOsmCsMkiJaCy31qFTDImbjDR3s18NlAgiMJgnlpOQNfJQOydbB2JILAKXCqqJLJmokCVQxQw4ak2H1eQTgqiiEUaDIWotkhwuWKIBITIeLjPdf4C46nlsYx9tA6VakApXQIOlyp1ahnhDKQUmw617drO+OiRhQIWUA1p2c1++VTwWjKPIETA47Qa4s+0cyh3w8sG4e10ZXLJIygSTgdQFcmv5zK793LPe0JKIwwDzGUNK1gvPrIBxA6w1DJyBaHgYgWmC0FD5TLICIXSB1VpQIRaZc+2gU2d5usvyLMi6nheMw5GZ5ZohFf/+sTu5dX2DVBa9pc1JpA9upwDWWnKaMypW+MDmOn+yd0IBXfPBaRDcwKAWcpMoRDh3VIE0mKLsjt9VzFNLXcLEBqhKrt+9m0ciLOuQqJGmiiAzUpqxXyI6sBDgI5MN7puuL9TTO1NML7JoYe/GJjKGisA5gzHg0UN6fbnbl0IVEdi5sgwpULoCUUu2BtXEpJ5QLC+BKbh570Fum0ckFVRNy6a2FDhooJXEY9RgCw4a+Iu1u1A7RcXjjQUNYBJZQIzpskTJrBYFKNhsOzULgYjigNdt3Q5OmJPwxnclQreQ48oJxLK7WuJ/7X6UQfKs503Siqesu2A7nLQMPbBimUwPgIf/deBRhJJx9qxVqctkWZS2xYIINre8aLAExj6pIqnPdfDtLOHwvqIxhNQycCWPTRK/sOtO/GArqDmltxPOdPrgdgqQJGGCsG4NyBLvvPfzhJnByOhkH9ozItDZeEXtyoRXLo2gnhBNJw9lmwDVgJAyaiLYgs/tPcC77ruFxntGqWTWzkg+UNhINTuIBNhdwc/ccxv7UgNiYDHzdWhomEODwVl5sbecv2JIGNyiBSe1nW9ZQsHCxUtjzLwmWyF2E9Bdh+PQ0k4bSrPK3I358ds+y0EP5IKBSaSkRNeQTeS8XEEw/M6uR/jgZC+FOkgLvy7JoBlFiKUn0FBo5JKlUVeKVIORLt7nxVD2y1dXOKf0aJ4TUbJZOFhrp9UIQmwyv/zQnexbT2zTFfahrOsUT4RhYJfJtDpjPNrC5+aR/7n7QWR5yCw03RuTM96abu4sCGji3BS5eHxIU7PnudJag2k8/+aeG9icKME7nGbyaTTKc6bRB7dTAVXGWpBNxjnDZ/ft47cefgSLpzkN+lmbnEBzp4YBvG5pC4MYaFMAFJo5FodJlqFx2M0Z7aDiV/c8wI/fcSt7PCwVy8RYEYNnqdrBXXP4sRtu5U/vfggKjxPfDcAbIebUXbjWIRi0nfP6wRIVMM9QkMF0OooWizGWTOYlgxGXekcbZ6goaCeQPAwZKkszmWNGO/nDg7v53ls+zx0eLAPEJJK3+GSYqOOXHnuYn/7cDSRdIrvVztJFcze3kS1WCrIF2hkvcQUXjgaogC7a5S10WaVGtleWNy0vg84JGlhEXKAL5EZBBhX3Oc+PP3gntfXs1IJRMcLgmBnl3GgoZgPuxfPjN36CSbZoaMmxxuq4EypeDFpL7PYqXztaYauHlANdQ2Mf5b4YjszI5jHiKbh9o+G9+x5mJFuQ1BLiDGdO/T3zM5XTYOk88zFqqZ3FGoh5Sukq3rPrft50ycVcWiZO9XsQa7qGBXGeDHzZlnO5cvQgN8SE85B9gBbUjRAN5DTHD7ZTJ+Fdt32BP3rsAb5x2xW8fHUH6zZwy8H7+IOH7+GhpmF5x8VsaI2PQkwJKksK2mlIGoEklChv3XkBoovMLiWSFawzWAySBTWRq8sBX3ruhdy7fzcUHlKnBTivG1gpYGyQzQ1YWub37r+HOx99jLdfcg0vW14lV5kHD+zjAxt7+YONg+AGbHNb2F8fBJsJC7FkEww+WVrbgga+dscFrJquDGntQhA5axcATcYS+eZzL+LP9t3Les6YVJBy50yQrHQBPawhdoVfeeA+5vWM973utbimS8KGxZjcwgNDzw/9xYf4n/M5TkeY2QxZHtDOM8Y6Al0WVyZLbSNvveCleKCRRMFTe4o93sbfl9aejs4BQmmBn37oZtowIjnHKDVMwpw0HEOan+zDPCvpg9spgE1K602XAaSaVA64dXPOHz/6KD940TbUFs/9SU7k8QM0DThPiomrx0tcsXU7N+zZwKlQV9IJ7xXCNBzEr1TEzZptLLF/xfNAmPPT934BirILRCHix0vY5WU2ZhtQuq7bjwzGH6G+DykldozHvOHCS2EhTUVSgs1YdZ1FDJacAqt4XnXBhfzW/gfxdoCERI6gO5cpd88QJ4Sxg8mcLaPz+Fxq+Nw9t3TPOVunKCzRFiBDlmTI/rWH4YICJo4YW8Bik+CCQpFZMoYv3XkBxEiyFsRicsRkwDgygpD46u1bOafwTFrBJUPKiojtej00M3CJOFXS4Fx+M+zi5uvfz9tWr2DLzh2wNuVj6xv80QNfYD2twOh8qo2aSblJkQOqDieGkEMX3MTSGMPrzr0YiKf6fdNpQYHl43t28fu77qHSS6l9JLjA6lxYs4qkk32EZyf9pX0KEBAGIXSlLR1h45hm5Pn5uz/H3W2JsNHNG9WdxxvzOTWwQeZU8MxQMvgBtoXgMlJP+JErL6dyezBphFUHaQ3iFCdLyNyhVWb/cIZvYI7DjJYwvsBUBXZpREJJbaTr9Rca5/FtwVJtSIUh5hYfOyHi/+/5WxBvicawlDIUDocj2YwV221yGQv1lO+4cAevHKwSJ5FceqJZw+xzNIMR9bgkpUhhLKFpGWgJjKg82OUtxGoL4pexxrOpMxgNYOIYtYLaEpIljBLroxnDaPlSGfPW85ZQ6ykwWD0UtCwqilUB9WyVhu++6o2MDgRaPwc5gLUKrQU3pNVlUpkQrbHzLXx+usq/uP9Bvvcj1/MD19/Ab9/7CBtyDqYcQbvGpJqDWyamIZZMcEqRSkaNpbFT/vqWFV4xEIgthgpJICmjhIXlnSUBWQVIVKkBjRQxk0yiyAFjWrxG4PEB7iM5o8qc2jWfRkBpIESCCDIXarNJ4ww/eucXaKvtKBFypLEl61WFS31kO1n0we0UQFxB0IUXigWfu/rao3XNr956M8gSDV1vQEGmHliqRDendAp0BBiUThE4UyA0VcXVoxH/+qLXMps8RAqWslxmVUs0NrTFHCQxnkVCbBA91GUBOWZSiJ3NizG4omA8h5w2CaMZm2mT0o6AitIkLl21vPbSK9hKZ4BK6BYTQbosTmBmu7trRo4S+OkrXo3adWJKVOUO7GCDsgjYVqEtaO2AiUbmccJgnKljJoVAjhGXEgMiYxSvGYktU18wii3CBLOZKOIQ18z5wa96M57pM7gASr5551auvthTVJaRnEfcqBlXDpNmpFSTNaA0iLQYUagKdOsKeec2tsoASZkU50CgCpFyc4q2M9JQoWlofcl0YBmGA/z4S19HC8CwKzgawNnOAy9nckjdjGJMkJTalmAGtFKRTUkrBcFUBArmcmpXFZ4XNDFcOB6pCjOXKQJsVJlhWuJ3H3iMe+dTiJ2yJpohZSxC1D64nSz64HaK0LVpZ8SBS4FCC1JZ8b699/Hhg3MqhdZO0BRIFBATTgTVk69wsDAhJlmh1K5Jv1L4gfMu5uuuuARyRGcNa6YhLVtKM2AQMhMXcMMCcte6bxbyTWYxrK0pk2OidZal4QiG3bBZDhkcjKcH+d2XvIFLi4KhAu2hMlt+wnEZA1GVCIzClK+9YIl/evEVkKbUs0BIc5rpOikGBrZgyZQMigGUlnm7gSuXsNUSeENjWiY6Z+IaQgladHNj80pYasAWA0K7wTuuupq3YJ6UVz+l7YvCBdrws9ddi93Yz3SeGJfnMGnWKXLbzaY5QaySc+gyriYik5Z8oOGAaUlOsN7hJNP6RBgbtLIQM6PhAJyBg7v5ly97Na9ccgy0m7fzOdICMXdHajBUrsAKFK7EuoJiMcdnFjJfPgs2gsnd+33GoyAmYxUMReexKDXOGPY0hl+57zb2xAxYDIqQMBmctc9dlbrnWXMWXJmnPppT90FAUCKNRCQrDFbY7yt+4e67ug+YJJJkRhkoLJjcZT0nmYxCArUC88QIw9REygH8zMtfwyuWR1A2gGJnFc0kM5eSwg+I0xnQ2WBF7exkshXUStdhKNCS2dREecCwOvUE07BtuskvveEtXLdSYEPsApvlsK20HtKjV6jIRARN3VB1kMi/uuzlfMe28zFpjZE9h8KvYr1jzpTN9gDzOGegFWW7Qlybkpq62+vzForOzcGkkioMsdKQ54bpyrmEtMn3nLPKD11xCcZnXD04fJ6ODGpPCHACWRJvKJf5j9d+OUW7l8lYGesStXeQPWBIRsleSUODGZX4QYWUHrYudc4Tk4YcOnulrAaio0gV7WwKcY23bb+I777wxTQSoW07+azkjhhlMwv3lk4aap4CKbZEqcHMyTIHapK0qKlR0yz+7QzHKA2xszlIMFLD3MwYJviVB+7lU7M5FCOMsSSXUEnkHBd6NP0Se7Loz/ypgCacc5hsIUXmLtGkQHeLWPH+xx7hdx99jEpHGFNC3XUFRk6NG8MyCrguU4ooRPAY5kXgWuP4T298E28KCQ4cYFQO8XYFFwvKYghDj/jFvFVO5NRCXswGWYO1htI6qrZE/RJrVWK1PcC7X/V63rZ9G1OXwQl6yAJaoI0JWXiiIRDaOZU6fHLUtsQA1SDySy99Fd92+Q6msxnel52MmFpkdbUbrJ5uUgwHMPY4ZygTFK1g2wIbPL5xmBkkrXG5JK2v8d3nnsvPvv71zNIM0QIr5mlNOg//u4HMENGCt1+yk/e8+lrGk91MTITGMoglRSyRUEBjkEmXCbehJkuLPLJOkS3V8jK2GOCCxccKY0paYyjXJrxpZcS/u+71lECBIZUBO5/R+K6rzC6y5Zwhme5B4aA0XQNM7gSaDZZCBYvQDWKc/MrBiSZKp2RDzmDAZsfALHHjwU3e+/CdqAywZoQkJVjt1KwRclLkVPiAnqVY+fbv+ImTfRBnPaJYTCeZqAJVCanbwS5j12j4hWYP37LzCkZOyESshYjBmpO/6ybJ0Fo6DcXSY41gQ8ZYQ6M154vy5ZdcyQz4xO77SIUhe2jbdagqTJLF3o+Cc93ikDKkhKZIHAlszgky54qVAe99zVfxjdtXyRbSbIotCrJ03mHd2DO4RSMKKGozJnWNwdlCi4A2jL3wutXtTI3h4V0PcCA0MFyGScaqxS9XzOtdUBTkNiBNRJKg3pMKQ6ogVIq1yrbpnHe9+Cre8YqrmTHHmSG+hrbiuMv/VBuq7DABZi5w7fKAlwzP5RPre7B1y8RHkgNjLWNTMMyCS52EVy4Ej0Fzpg2dgHMuLLlQTGxw9YS3v+gS3nndl7CDSFEYTBZis4GtKtbFdSVdTWBsZ7Ypncz3+x+5n5snNdZVJFNhKFCjYBxJBiTNXDVe5ZvO29FdB2eo03aLUqolO0ExiIKK5R/fdRMfP7iBMyOcMYRYo950Gb4aNCvGSD9IcZLog9spgBUlpIRxBZIEbwyJtLAHy5RFxa52wlArXrd1FesSZHCLMtJJX04EVBSJAWy362BmESkdKpYomRXr+Kod53DZaMzt8wc5UK+xlEuotevQ04wxBiuC5IQJkUIzlbG084OcYyM/fNU1/NKVr+JV4sDArJ7ih0OMgmZFjMUgWA6VeBPRZIy4runFCjZDaxKj5NklU87XEX/1nO28ZOc5PDJd48G1vQyqAUWbaDY3GC0t0arisDhXQukJEiFsQpgw1oY3G8u7//Jb+aaVLWRqCjOgDDAvwaU5xvjjnL9Om9N4KJqG7D2XLy/xtu0v4tGwh93NJnWYkOOc1mRqC42B7AQKQx4W5CZQIlRVSWjXcQd38ealiu972TV830uv5MWzTKoEGxNGBCsDgjUUgM2CmEwWAwgpBYoo/PF9d3PnRleGzCkhKaB5hsSWlBM0G7y4sLz94ou7l3GGBjergmCZS8ZLRNXyXx7b5Kceup3CDDqtTgJqMohBgsFa3w3IW9MHt5OEyJ/+n/7cn2SG1jBt5shwK+U0kPOc1maoHGSliELrC8r5Pm5909dx2ZIyExiGiuzTSS8NTYBxBog0saEsRtR0ZdNxACSjGone4HEcbOEPdu/m/31sF7cenPFInhFzQrUTDCYrhQir4yVWxyO+e+Uyvu6CLVxZKriWCQVllG4I2bSULDr2hG7jbmES2mgLxuHVoJJJBByKaRwUjlxnpgPDSOcYSmbZ8Gd7DvLbD97Dx2YT9mWhnQWwadGd0mlbFjlyReH4S+ecz5ftvJC/sXOZjTxB3ZCV1kCjtEstloxNg+OmbjlDNjOcGrQpEScgM+ZWGOQBn11L/Pmeh/jDfY9wU1uzrgbajGm78ZFsM2K6cYPtzvL6HTv4axdfyFu2rHKBCoQZOhgidSZWAZcstXEYgSLOwQ5QCSQsqgbRhEuWn73rVv7nXHmRtszwlGrIMkfUEExBU6/xN7afx7e/5EWHxwHOxOBGDbGCDWq2kqinI776pk/w8QMHGRRDGk1kp4DissPOFEYlTZohhYPQS3CdDPrgdhpg4iaD6kImecLXDw2//yVvoiBQY6lgMQx81JzR4k9NGbEneWtVuwYPVQUji9Fl7axXcuITa2ustQ0HQkMkM3SOC6sBLxotc241ojpq3+K5LqBHi9kmAXLu7tCNIQjsaxoe2dxgz2STG7zFxMhIEzt9yaXjJS4ajtjhC5wqR9uyPt/HJ6IkDJskdjcND08n7KprNnMmiLJNW1Z9yXmjJc6vltjqFpojCjkHxBxbq+Ho4/1ixX5P94B25Ks98pUcOg+tREosbTOjKMf869vv4B0PPcA4LzGxBxAdfFHP1/PC0Ae30wTdmLN83g7i3od432u+nL+5cwdTVzPU8glDtIc+kIcMJE8JjghuutAxzItjzTlTWEcCOhezbjDb5m4LDs2oO7HBIx1yGYhdaRQjtHTj8Q2wNdF1ES6U0IzlcSsT7UqyJ/L4yE90tNbE4WYZBKa2Sw4d3Xk71C+aRMmScccZFzlecDtesDulrrXnGVWlSRnnMq4Rbg7C/+fGD/HIYzPy8rjLmvvE7JTkzL0qzyCUEaZytBvrzJa28jM33cQ+B6NayKIYMYvcrRtcFpFTy2rjCGHeQ8dlF8dqraVODTEGXFIq7ZoescrcBWb+xCuwdDFCEGvIuZut8wmGClsykBvIDaYb7iJkZUZmosrkBdhRaa2hNkJDIpCJLpJ9INuWJDWjAFUAF1gstN1NhBGDwR0uFz7d43gcmj18useZyiGH8spaYgpgHO+8+zYe2GypxmOILYh/rk/Tc4I4c6/MM4qE9546B7AlN2rgXbfeDbaEXHffckQwO1SiVNVTbjPbHFH46XyqhcJaSidYkyFndDEKYLFP2k98PkpgT/odKaE5d1mls53lGRFJGUmZ2meCE6LJqCS8wBDDGGGsz29W+VS/o8zdUHyJxS0aiAJQizI1SisNjW0JLhMdJLPI8lQx6YtPK073MuPzwRM+N5qpdMj/u38v/3nXfSAjZuNBN5uaT778Xc9T0wsnnw7kKeDAeqSdo6OS/3jX7Xz1eRfwNSuWvPD+Eu3ussV0mRxyaum5H5kpHHlcNh+aZzCoUUQFSXRtItqpc5yIYzn8/Asrmox23m9isHaxk6ZQHdpTUV3cRCweIk/ISk/U8aXUiWVZBBHbdW7K429udLkr8wKZhFncQhil88F7js9/xnOoxHvEl08gRx5KBT92900442hNIG8EclVQ6pRWzwIJstOQPnM7HdAaaz0EgxYZP2nYGAz457dfz8Fcko1BnMO4RZZzKpUkebwU+QSFjiMeSSCI0AjMRagNREtnaWNegEV2YSh5aOtM6TKjVhMhR6J0g7xBhGQNyRqiNUSjtObEn+voHMk5ovMkazolmCNOoAuZImSKmCmT4DOdVJacCnMipwl69JfdfwkluIKffuBO7lybUNiCwi46ctvYNSP1nJL0we10wA0Jqe10GBuhkhLrDTccOMAv3r+bWkOn4i7dvtGR+22nXmHycVS7JhOrBq9CCVQ541PCpq5EyQugqp40kTUi0qluOLrBaC8eZ4vDWZBj0eyinUizS0IRT/z5LQMUUXBJsanbV8sKuZN6BOO6h7guUzuUHQtkOXXf/1OVQ81PadHw9D/2TnjfvbdQVVuZNILDYgaKi5Gow5N9uD1PQx/cTgsqoiaiiRgdURtPqw1DM+Ln7ryLfWsHmcf6lA1jT9WNpwt5LOl01Bf/Y7EPZwSxkCy0/gW4NbYWOdQYkUHi4pEXI3MaMcROgkm6dsRkIFqhdSd+xlC9Qd1Cb9OCmoyYiEpAJTCzUNvOIaezqsmHb2r0eUjdDr1fT/c4Y9AndoYeen3/7pYbSa2hdgYvS8xCxM8nyNBA6oPbqUo/CnAaIkd9CL98acz73/h6lpsapAITyK4lMgJavHYdXWfVPkpPzzOkBXw7QQoLqQSURmvUjfjBW2/mVx/ec/h7j/wMPVW5vefUoc/czgA+s3GQd912O7iKbBv2kTFxRNHUFH3PUE/PMREiFGO0HVBLRm2mdCV/sesgf/Tgwyf78HqeJX1wOwOYWsu/v/shbpi0RBspXUl0gLhDxi89PT1PR5iTgFqgNI51GkLt+Jf33MAj9dN3QvYZ26lNv/KdAVjjmcuQf3zTp8mMKIgI0Cz2YHp6ep4e7z0mw0BgSsNqHPIj99zC5zfmlOOlY/5sH+BOXfrgdgbgm5Y0gA8fnPFv77+fMjVos4YYR68M1NNzbGYUmAZSmjECPr53jXc/9iDWLBN1evj7+kB2etEHtzOA2kaCzjGjFX7qrlv51L4DODOiUHA5nuzD6+k5pVEM2IgtLQdiwXfc9UkGaQukTMrT5/4EPSeFPridCRQVS2rJMiE1jh948EHWgqc20LtJ9ZztHG+UYRThoG9QSn7kzpu5e5oRsaABfK8debrSB7czgKIt2YyRlRjIA8unHhX++b23UeXIzLQn+/B6ek5pNAW2yIDfePQ+fuu2e5ByBxMzBxvBdNJrfUny9KPvEz8NUeGwCgWAaxPtwLCeYGAGzMdzfu2eh/jSi3bwt0fbiW4/EraRPCQyAw2k2qADj0sB7Im9Oz2jBn17nndOdOCI0uDnFWkADS1DFUgeMoSixVvDDcHwz75wG82WFVZDy7qPJAmUraftA9tpST/EfYagGsA7aAVvKozMuXJykPd97dt4NS3TssCHRCGR1kIhJU0bKQtDn8D3nMnEGHHOQZOIpVJrYqwl0YCbTdgYjvm26z/I/zo4weQxjcvgM954bK3d1z2nHf2qdgagRnHeQ1vjUsa1kNyYmxrlZ265lTVbUAGFbzutRikJ2s301P0l0HOGo8YBEUyDIgykJJrEhAzlmF+69QH+cP8ufLVCChkKAwgpZfol8vSlf+fOAFyA6AHtfMZqF4ihYeniF/FfH7iL9zy2GxuBZoaWvpPvCi1opjnZB9/Tc4LxAiG2BO/xrcVqhjxhhPCHm5v87L234KudqFjiqHNDdFnIGml74enTlj64nQG4ZKDJ2OGI2iakAuKM+XwKy0PeffPn+cDafvDLkAUnUFgPJjN4AY5P+0f/OMbjhBNaWlcQ8ZAghwYH7KvhHbfcyHRUUjbCvJkgA4uf1URpoHJk04/SnK70we0MIBUW1xhSyLSFwbQBTCamKUNx7E/KP7v3Bu5VjxzqIYqJqXUUJ9hIuG8m6TkeJ/wakUCJo8qQBmBsSWtWeMftn+Xz+zfBVExoYOAYTlscAs4iSfsV8jSm75Y8A0iuM6mM8wBLA2KcId5jvaddrxktLXHzgf288wu38TOvuIotbcCVHiUfdsB+Pjh6kTr8dd9s1nMsDlkgHdWV+Hx1UdZ+QBUBycxpgYr37drPf3zoQVaGO5msz0jjAmMNISdyWUAyaAhdTbO/Pzst6bslzwDUBMiGMSNSVOZVhJQw04gZj4hpThWHNHEP//6KK/mey69k7mGgBpUWoXhuz3+UB9bRf8/96tBzDMzi7ucJTu1P8/dnQ1RAwLTrGCx/Uke+4SMfp61WqcIUlYJgM3kyg3NWYJ5Ymgj10BBMi/TNkqclfeZ2BiC5m1ObUoPrjDYBdOhIuYEcKZYH1AfH/NN7b2fnuefzjeMVZq5loB7qGTqokNBlcq1TWo2MGXR3rcdL7CQgGGoUkYwjYzGwqTRLFSUnuPbZc4pzbEPXRMbGxVJk54CDxnd/2Cklo2P/+gbwgMmQUxfNCoeSSdoiMsQ2cygLbmqU77rpE7SDEaNgmSZBigQKMhrAtBM9mCw8SPvAdvrSZ25nAWojTBOj0RZymHBxmPL7f/XrecU0k4cNQQaYJiLOIlawbYsWhhZLGeW4t0AxgUtwb1Pzf/Y8RMGQ7Vrx6BKszgORE+9W3XMqc+ymjOikk7synsl0jnfKSwYFb9qxvbO1OI7GQEt3/5Vj0/kXGosqzJua4bCi0UCZLG00vPXG/81nDyQ2GEKR8akhSi+xdSbSZ25nARVKLZlpqrE65A6f+KGPfow/+dIvxavQCCwXjijQZBhKgWSwJpMkYo+zujS2ewyakt+99y4+Mqnx1Qr12j703BI3LY/5833TyZmNmGMbL8VCYHOCY0BcGXP+ZIPf/8qv6LRRleMWzTMRh+Jsd52pQFIohhUR8NKCjPjJ++/hL/bMwG1hmA0zGoKNhysfPWcWfeZ2FuBzIqJkqxizTDYWNnfxTy+5lJ94xSsYRwgS8cYRYiB7TxkURGhcojxe5hUDCKQ2socBb7nxQ9y60bLFDjnophD6e6izGj12eDIusTLPTIZoLS4AADA2SURBVJ3i2xm/81V/ma/XBF5BKyiPt+cWutKk8aiHzRionMVjSDnhsLz3sYf5+7d8Dud2AlDFllmekkcOafqWyDORftU5C2jbAqkSYhO53aRMJSxv5d/dcwuXbD+ff3TuduJkEz8a4r1hA6V0AjWIO35Jceo8dVpjaeDZQuY3r/4y3vrJ/8n+DGZqoew3Ls5ujp255c2GerhMO3mYX3v1G/j6oWWTDHWLqTyj4y5TArb7ngYonVCEOSSDKwd8Yn/Lj971ecgFUVuGKVG7RJ5mvC4TmZzsE9RzAugzt7MA0SGZKWOFSZhSDMboLBCGhnOy4X3XXM3XnnseMp/SDCxCQaGGNiqFP36nWgJsA9HNyQrWDfiLPQ3feOOfM5cliL0OylmNHLuhKPsROdW884pX8SOXbCe2ayS3jLWGCFTH+fU1SpmFbGBOpCLiooApubdu+Tufv5GP7n+McnUb9WwKkqA00DgGcUxd9J5tZyJ95nYWUJWR2STS2AG+WqaNc8qBw0fDnpj4iVu/wPnnnsdLKDApUFhIMeOcQcnIcdolbd1p8LnpgOky2Nzw5Uued7/8dfzAZ/6CabX9ZJ+CnpPJcVoOq3qdb7z4Av75JduJGmjKVUYzQEBcBn/s6y+jpCRYAx6DtAnsiC9keM8dt/GR/bs5129hVw4s2ZJN5pANpnA0oQ9sZyp95nYWYMMGptxCawpMrWBrctHia4d3Q2Zpg2/wI37zK9/Ecsq0LlOog5CZFZHhcbb0J2xSsEQCyiaRywkOS2DMex9+mO+99faTfQp6TiZ67IaNv3veVn796mvAbDA3BUWsSAaK3NA4KDlOQxIZiQYyJBuwRtjIjp+/915+8tbPMV6+hEnYwLSJPDC4YBEnBCI4RULfzXsm0ge3s4BDQ7BPqyBSVLBxkO857yL+zWuvZStzQmuRosBRI6EEL2TtutdCzjTOUAFuGmDkn/r3LvjlOx/iB++5kTDcQtE0tNpSuGVi0yKDTA5PPFbtFU3OKIZ5wEwSJk9BGrJfQnPB0nzCN56/hfe9+rVP+P6jh7bjYphE1EEGTRlxplO+0UybE4WxEBowJTNn+MVdj/Ivbvw0S2k7k6Ivi5+N9G1CPQxmCTMc8st77+TXb7kTaQY01AgRSRXqulmivFhzvDF4TWQyDI7fRv33rryYn73iFbC5RuuGuGJIO9gkmxnM+sr4mc40T1DdII0LhroNSQ6Z7eGvXryVX7zudcf9eQtoBs25+6IwJANREzFHrPMcDJtQOjCGD+yZ8HOf+zRbWWLTzU/2y+85SfTBrQdfCDm1MD6Hd97zAO97eA9LxRhHIitESQQCTW7Q0ECmGw/ISnoGV5Cj4fsuv5ifveIqzPpBEgVmmrpOgfHx2gV6Tnfc0AMR3wqbVYkeXONbLj2PX7nqVayk4/+8JIMRh1hDomtgUgAD4hxZoSrHtNlw8yTyT278OOt5iQMhIWW/xJ2tWPn27/iJk30QPScHEUFEaOIMGS/BwUyzZZmPP3Y3Lx9v4YrxMjEnvBisGEQsxsghJUAQiCJP6ko6uqy0IcJYGl6/skIsLZ+49yGsX4XRmLS2H7HuiT/blyXPKPJ0yqAak7Ilr+/jLZefz3++8nWUrgGryBFzlE+pI5kFbBfU2pQQFCcGowKacTGSreehGr7l0x/g3ujI1QAKByki/QV1VtLf1vRgvUMnLYwMZrLGgarkuz/3aT7ZZLyP0ICdRwogG0OUBBqxmKdtNTkUOEWEVSzUBvWGH77iJfzQlZfRSkPaiCzb4cl++T0nmKIcUUdPbDf5ivPH/ME11yEFJEoE84Rr5SkxXaaWAStQiEUSSFJSE8EJszl8322f4rZ5JpZKYQLEGt8LCJy19MGth5F6yAouIz5gWmXX0jb+yfUf5FbN6MCALUjzroYUjSHQtXc/E6PiHGZgSiyeldzwr659Gf/wvK1Qr9FUfXA708nO4No5L1+u+K+v/0oGaYYRKDHE6TMQ1RZoUwQUb2ynrRUVrEEGFfPo+dHbP8P/fmwPYbTESm1o0zpCpoj9Ene20r/zPWzWEUoo6oaUEtk7tGm4fv0g/+azd3I7UBdgncdlwSAY0106OR1/0yR6jxZgp4ApGcYZ737ZK/muKy4mznaf7Jffc4Kp1je5ZofnQ6/5aoZpzqTw+La7K/KjZ+YFbwCDIkAKLdkKtcBe4Gfvvp//+9GH0GpIURvWJVOlEq0Map/Bpl7PGUkf3HrQ4RLkQHTCsm4hxURw6ywvn8PvP7DJb3zyz9h76JubhKdrxwbAPYNLqLEkImHUgkLthgwk8YsvewXfcskFJ/vl95xgLrvwHN7/iq9gq25SWkeJpy4T2TQ0PIPgoxmz8ATMOSLWkB0cBD58+03863tuIw+2QVSSyRRSUbsBVeuZVe3Jfvk9J4m+oaQH0dBt6quhNanb/8gFrWYoE5/YD9qs87oLdjBwQpMs1llMDjSmweA4ugvk0FcpRHxhMRgstpMBVAUxWOAbzzmPe+uaB/Y+Sl2W+NaiMSHjEp23VHZElHiof6XnFGSsFU1qsFVJnjQ4qXClZ2U64bKVkutffR0jm6GoMOKwdEoiYHEqPOGdlcfnJEUEBWqpcWqw2TETQ7AtlST+1z27+OZ77gZfkHIGERAlS0Y0k1BE+/v3s5X+ne85LsUAfuHRB/ml2+6mEUuRZliFqfFUoeiyOO1KRqiiOR9eoKw//ob+b7z8at7+4itws0BbWXSlIDcbUECqI6LPbG+v5+SwGVuwkdRuMBwPUevIm1NevHPIh9/4FXjrsNY+qWGk64wVUO0e8vi/H/peAapgMeqpU6YyDWMp+R8PbvL3H7iZwvQNIz1PTZ+59RyXWCikJT54YDerVvjSrTuptcEZh80GYw2PDwjI4bvvp+1+Owqrc9669QJ2kbhlbTd2mklGoCw6o8rcR7ZTFVXFOUOuPMwVjRlszWt3jPjfr3wzq2EKRYkRg0XQRXkRfXzsQ6HLzI+6Xh7P4BbKJMzAOj6yZ8K33vAp1nVEcpkjJW2e6TXXc+bTZ249z4CKkQUGY/6vL9zKr+/aSxUFQ83kKQRKhO7OO+fMU4WlJ8krmZLWB375qiv5kXMvgNwyYAvMIYeNw5lbn72dOqjq4eAT44zBpkOG24hhyluWDH/6mi9j5COpGmCPkN4W5Mnv4yKD06d5nsbAXDfxRcGn1hPfdPPHqbE4TWCWTvap6DlF6YNbz3HxdcOUGa4NsO18vutzH+eP1ye4uWCYkzWTcuo6Jw/dbS8CnPLUEenI2SbBUgEhb/Cvrn0F73jVdYSwnypm4ImjAn2AO/k8yTndDqhtYrC2h7/xkkv549f9JZbqdWqBKOYJ14Dw9NmVohx5OyTSdeUW8wm+GPH5Wvjbn/0o+0JBGFW41GLbXjey56npg1vPcQlFA2qIziCTdfLqKt95/Sf40Fqg1EA2BqzFONvd0efFDNwzLBFpjEhr8bJMAv6v88/jP7z0SnI5ASk5quWgD3AnkScFNgAt8OEg33T5Fn7/8msxBrRaYTQTksaurHxoT3bBkdfGob3aQ+VnPeKRAPHC3TPD2z75cR6eJ7x3xDZTDzzo5sk+JT2nKH1w6zkuxhYwrLBNRAlQK3v9gL99w0f5kz2JWWoOa/5h5AkL4FMuhkeRncJibs7ULV7nfOfll/HLV17Hajhw+PueKlT2DgInn52zNf7uZZfy6y//EoxrqVPqLNxKy1DSU97kPOG6eIqScwYCmZAjt6aKv/OZD/PQWkNTVdiYOwPcwmH6hpKep6EPbj3HxYQl5MA6blmw2XUuxyPlwdTyHV+4g31rB5m2M55tQmVCBAshtNSVY+4tLkb+1sUX8DvXvA7TZ2qnBE93o/K917yIX7z6lbhGCQLeCiG0YDMN2pWoj7g1ecrfI504gCBkIJGJMVKHlm/69Gf4wsED5JGwbJaYhwQlDEMkz3vh7Z6npvdz63nOjBU+8Nov4UtWYd4mfDnGKczTFOsUkz3OWKAzlKTTu+32V6zlaKvIoxe/D8wn/MBHr+euuTBYXiLkKTFGEMsgZigr3Byy8UxLBa2hDTjjyFWJhn6Q91hoZbCbLU6FpjJAxuEoMMxSxKQRxgZs3iBqhPH5pGnknHY/P/OqK/m7F17+pN/5hGxNOZx2d+XGx/dlD5EICBmlpNXMEMN9jfKdn/ggH2qP7eTdd0j2PBV9cOt5zgxTyzYLv/3yN/HG8wYkAkUqIUHraywOI4acEqqKtR5EOLRkHS+4SRBuI/Ntn/4zPrc/MXKrTN0UbELMEE3rkAtQ1zkri2GcDE1SWjLSGy0fE7URiYYCQ/a22zOdtmRV8tBTSEWre6FaYnk2YmN6gJXtkfdd/Sa+YeuWJ9UUv9hgM2fOYFJCaZi4wEiURxv4ls9+lNsOKvuPYxnYB7eep6IvS/Y8Z6YoDzaOv3XHZ/nMgRkWyKYBA4VWWFnsp1mLOkMQPRzYUn4mhl6By5jwx1/6NXzdzi1Mw37GucBlj07n4D22KqBU0ICGmpQWgrzumWkXns24RhjbggiE2YyYEnYwwIyGMKhow35c7SjjkA2Z85JlwwevfhNv2T7mi9ElPnzTcmTHSFYcAgNDDjBWy/5W+I7PXc+n90f2F/0S1fPs6K+cnueMd6vYgWP3bM433fhxPrUvomKYu5okQBY0KmAWUl1dacoAXp58CR59J578lFgMWc7wX17/Bv7+BTuY6BqxGFIVFX5D8JOEmymogdIxs5GkkUE+/vGf7RQJ2pxIXmBQgrUEzcQ2wMYmo8JSrJxDsznlNUXkg1/2Vl65dQtLs8icJ7biP2XzyJH/TzmsSHJIycZTMbEtZpg5kAxv/8z1fOpRJY23go1PHBt5ikdPz1PRK5T0PGeSKEttpLawngx/dvBhvmR8HhcPh0DEiCWEgIhgjenawrNixBxWNDmaIxcvg6XInmTAbWzydS+6jGAyH3vwPuJwTC4qFIuLBpshWaAQVAwmZXLfkXJMwtCRUgPGIK5C2gQxUBaewntmCqGe8Vcv3skfvvqNLJsGaxwUnrJNsJDWOlag6dr9u78fGgAXaxBjyHWkdPBQTnzDJz/EJ/Yr7XhI2UxItCB9R2TPF0+fufU8d3TKRqFgS7wVHpsqb7vx03z00RmWhArYokRVIINVOVyq5BmMCtTqoYWqhnp5iVRv8LMXXsGvXft6tm7UIFOSi8TKYfBQp24uoTS0Np7ss3PKYxDA4+bC4GBN0UYYFTTDzFw3GW3AP7z4Qn7v5deCB/Ul0WQgE5P7orMnEemU/UWIgHGOB6eZv/mJj/KpvZkwqkjlOjNZx+voZJ+entOUPrj1PGdGVFB6skSGAVrneHSufOsXPsKf7qk5mFqCAXHm8Vi2UC9Jz2QiW4AKUpVZmitVuQSF8g/Ou4D3vuE1XN1G3GQ/KW2iQ0dhB0i0EIHYB7fjMqkZiqdS0y0IlUe1hvUNdtTCO6+9hl996cuxZspooSHSaqYF4uCL6NY5JJBshCxCS6LWwG0JvvEzH+bTewOydQs+zGC2Adu3oaEvO/Y8O/puyZ7njDaeURmY6hzyAGeHRJ1QkknZ8rGXXcal51/IqvW4DGRFLGQRElAc5/dnZkgoEGOJNnV1RytMgTFrfHqyyjtv/BjvP7gHhiu46CEGpDBoTCTbL5DHQgUoLMyaTmlmWJL37ea6Yjv/+DVv5ht2NAwocbWCn9PaiqIxXZmxmgPHbtpR6PbYUj6ctQWUeWqZh5Y3fuwT7E0DNg1InmEkITIiBcAFerOjnmdDH9x6TjhVanjva9/A129bxSbFiyEKFAIEiL5TXrICuZ3hnacbEDA8SXtrwZHjAqIzdumIH7v5Zv7T/feRhiO8s+SYSRmoBOqM9xWBBDlTiSWlluATks7wPR1t8bYg1YmUlGI4Qq0SmhYvUJqCSbMJVYlxFXpwja/btspPvepaXjkAtUfpex5dhkwZMGAgZiXbhVByzDhjaM2cInoQx8SAyAYjDB+ZGr7zczdzz3zylIfdN4v0PBf6hpKeE44Pif9y3x28fPkCrh0OaPMGzpUYhSbPKNRjNXW2KM6SxNAKNBopxB73xn3DFBQG/vq5OxmK46Prj9CqQ5tMOShIoWUwGNCsb2BV8UVJE1ukKJGoZ3xiIMYSPWjhMCJQN8QcwUO2SqsAJd4XpPluvv2S83n3da/nwkFBMAVHj5k9qZvVCMkoKoIx4FQwCsYImYwTQ5MdRkBMwyCUfG6v8r03fJJbN3aDe7LKSB/Yep4r/Z5bzwlnNlzCjy7i7Z/8c/7dQ7dTyhjb1ETJqC9AMnVuu5m3KEiGhMEY00mZPAVHLn7FHEbALE/44ctfzO+/4svYXkUYCaaGLdEzP7CG2bFMWi5pU4MTR1qf4Y9bFD39UXGw0UKb0HFBHDsw4LEQtRM+HjrC/FHeednV/Oa1r2Gra3FAOT/+709A0NSNd6hA20JToySCAZLDOQg2UDSOPz8w46/c8DE+X2fKpdWTfXp6zlD6zK3nhGPSEqGYgRf+dNcjNOL56nN3Ai0mC8ZCaz1iLDYJEoWiW38xsQV77LKhVyWmwNAOmGvDy5aW+EtbzufGA4/x6HRGKBzJOzQFMAIxYyIMhgPmKSBn+i2eGAYJSrG0mqAJFFFwtiAWBuYzhmaN//aKN/F3z7+EVmsqKTCaMH5Rcjz0q54io7IKPoPNgFFwhtZ1zwvQJKHMDS47fmdjyts+/SE2ipKyGtDMAPPEG5g+a+t5PjjTP9Y9pwCZCX4+ZWAtpjyHn73vPr71tluYhxKnFqaKp2sLx9FdlVE7WS53/G68WGSKRVddYUvW601eNR7yh6/5Cr7hwjHtdIIbDbrOifXAsh0SC5jGKcad+VvOmhrCwDKXjKkzIxngXck8zGA24VXnGT75yq/jr5x7DtkFSipqIyRjAT3uwHQ8tOeWMylFGiCLxapQbLYMfST5kn//8P1820f+lLhyLiNb0Wyu0dkHPE4f2HqeL/rMreeEU5SRgEXmCgOHyoAvPLrBXWmTN21ZZWxKrAhNztRWESsIimi3wIrqUy56h/4t1UI9dNhUk9rEqBqCQvLKN5+7gzE7+MJjd7M5AF8MiJs1ufBglaKJJHuGi09qIIuiGZwrqKtMyAc5x1i+Y9uL+fVrXsqW5RFVhIRl7jNDIjlncnSY43SbBiOIgawR4yyCENtAgQPjWHeRd919Hz/8hZsphluopjVTp5iiwtmWrL3aSM/zT5+59Zxw0rSFbAhLBXY2Z5wDOnL86f2P8C2f/QSfJlBbGIuhVCWSu4qWKuEZSE+agWFUBxpnMZWHmRItDBFco/zwlTv5D298E6+Yt6SNA5TbliAmTJMpqvJkn54TjxEQh3UFQRPM1ji/MPzzyy/n3193JedIyUqG2tN1sS50+10r5OL4Acdr573WuE7p3yXDUEpqBw+X8CM33MxP3HIzZbETEWFaNPg2kXMiNLkPaj0nhD5z6znh5MEqEmqqNtMMB7RpStWuk4ZD7skD7tj1Wa7ecjEXS4FrE2IjNhvAwmLv7ekWwE6eKxCdp2wsxghtmVBt8eKIrmBD9nOt28pfv/Cl7E6Wz+x5CApPVVZM0wzhDM/cyBRSdPPsbc1fWjqH91zzZXzzeefQpv2EYokkUOU5jozNnmwsrTOUbYDjZLZSg/NCRrrOyo0aKs/dJvPz1/8J733M4oYDGj9HTcUwCLWdgTVY3YpK80xeRE/PF0U/59Zz0lEdcxVr/PQrr+avnHMhOSo2Cd4DpqGhxKQaayFgMRh86hZcPf6kACSYSmCkFrLhF++7mX/18J1s6DJ+voVUzMgagQDWUJJpQgRbIH7YuT6fwjgcWdqFE4IDqcAYnLTk2ToDewlTv0bBGt+/8yJ+9KWvYru3zOKUoRmAPU4BJ9F58EkCUTKOqAkRxaOkpsEVYxoFmpqysNzc1vzzG27lT/bOkEG/xPS88PTBreeko6kzyhzQ8DMvew3ff8H5ZDOnFU8OhqrJmJEDidAqGA+uW3NTbCjcsUuLB2Jkq3Ekk9loa5aLIR/fTPzQp/6cz2jLQFeZxzm+KogxoJIxrkTaQIo14k9t2xzVGrLHukEXpF1AQ4RWWFo9n835A1waDe+48jV822U7yUCgZUTBJEXGx+lGnZIYId25z0BlaYEiA3UiDi2Rlio2YJf4wLTmH330L7gr1KwMVtjoV5iek0Bfluw5+RQt2Y3AbOGP7r+VdZnytdsvwbWReeEwhcEmYNa5b+MN80W61tl9HTvzqIwhZ4XQ4sqSgHC5MXzdJS9mGvbxyf0Pc75ZIWxmgvdQejRMUW8YaEE81beEvGApSG3GOEXDnCpCNVpism8fX3NOwa996dfy1m1jZtMZQ2cpMDTAwNjjZr6ZhM0ZMZ7kDRrBzzMYIVWGABT1HGMG/Nb+XXzzpz/KPreNZR2wUW4i2T+DF9HT8/zSZ249Jx11QhUstWacCKk+wDefdyHvve61DIHaZLJGBmIQDHVUkrOUgEvpuHtC2iRELBSwn5oBlqF6cgiI9bxv90P83J13cufcQHaIbxi4TDvJxGoZkfpkn6JjUqQBTXsQBo4STxBDnm9ygVH+zjXX8YMXn8+oTgys0PpMIDOaJdCSODrksHcM2hotCuaLm4iBdubbajL7U8N241EcP33P/bzjls8wWNrJPGSyB99m4lkwbtFz6tEHt56TjlHIRIZtYuaHaDGC+X6+bNnxWy95PZduHVO7yJzIUhaclmAg0A0PH7cfJMdOyd4YLIJbpGJtbil8l5ndMlN+8rbP8Qdrj0FySDTIYIxpINpTO7hpMgydodZA9p281huXVvnxa67lqwZDnOvOcbd31jBzgsNQqCNr7pRgjkXd0FYlLTBqElIoU8kIMIwFuzXxY7ffzK/f8zDl8rnEyTq5iGAsLnmiewYtrz09zzN9WbLnpJOLmpE65mUF0SxULiL7Nud8YGMfl45GXD5aYhQcUVuCszgEO8+d+vJxy4aZxoCEQIFHHaQm4IuCA0apknC+Eb7l3PM5R+HGyRrruYC2JVUzRE+usLIez/POzQhi0SQszWb8oxddznte9UqutR6rLUksRkEdtMBAhbmBWqDKdKMCx8IaUhOpnAVnkGZOkS1iC26btPyDe27i/bffQd6yjZQVxWKNwVSGaBpEz/Ru1J5TkT649Zx85g1hZYhOEmiCYcbFRFMM2KOGP7vvLnYMd/KKLQOM9cwJlGIR01nmHG9trgWqaYurShqj5BjR0lOLspIFkxSKhJrIa1fO4auG57F3fpB78hq2UbI9tfUnlzM083WuGVX82qvexPeefx6jWKMlYD22SdSl6dr9jaExhgJDWTdo0ZV6j4VKwiaD2E7Q2hqDWM8f7pvxjz7zUa5/7CD54p0wnbJqPLVXNEVsULKLJ/3moOfspC9L9px0jBviJlNCBbmImCbhoiVRgqtIPsN0F//gRZfyb1/yalZDJpeJubUUCv544pAJGgsp1gyzgLdEURwWstCadQwroELKYG3DQQp+/d5HefcX7mFvdXINT4+budWJH7ziKn7oxRdxYRGoiXQDAh6rkKTFqwAG1HTlSSckAcsTtSOf+gBaailITWQUhDS2/P8euJOfuu029vtVCi1w0xnNEiStsY0wlIqpNRjjSNqe1PPXc3bSB7eeUx6TKsQLsd3LW1e38O6Xv4orl0rWc8OKjLtsIi623gQaItYaLId84o6TmbCobGZFVRFriMAsNWzOZ3zd7beyd/cGB6OlHg7BKYQaNGIrh20KWpNAHIPWYmOkKRKhUMjxuN2CajODYJBsmTk6vcWYKRCMFRqb0ajdPJpPkCLFLDFMFcOlFT5w1QXs3LKNLWXZmcHGDN6gAq0mSjl2WbDVgIiiCBmlRJDou0DvupPTygxP5tFc8q5b7ucXH34QBpalecPE992QPacefVmy5zSgJkliyYy4dd8B/sfabi4e7eTVfgnclDYnChSsJRnwxmCykHPGPgM/uG5Z71xRhYVztAhiDNYYfvC8y9BxxacnB5jVLVVyeGewRUlYm5MLg8lgVGltpi2VXDqMGnTeIseZI6ONRCtEEXxS1AuMC5LNxNkMgmFQOmgbfFuQ44DKCX/vJRfw+y+/hvFSxZIvD9m7dq2MLFRdRDDHOQEWixWLzRaHJajBWsHYzIF2QnaOQVty76bjH3zqw/w/++6nGI5IB2e0y9XR2sc9PacEfXDrOeVxIZJHjjZHXLWNtbnwkYcegAJesmUrK3UilZapaKcZOU+Itxi7KMEdp+qWVTsTz0OoYowgCN44RDNfOljimy48j8044YYDB2jSAJMdrHZKjNIERBX1QM5Imzv36/EICeGYz++LEdlZcEKVoagDYd4ACqOKFVsxCZFsSlKY8+Ztq/ynl7+Gf7BjB1KtMTBLWBYxTUCMkBelTPtMdBu7eW8awEewKmTJNDQsOYMEy3+fzvnOj1/PZ4Lgl1cI04OwOu5GJ3If3XpOPfqyZM8pj+aCoqlphwpW2CbLrE8OEttN3n7lK3j3ZVdgSmWrEUyOJNPNB9jsWCRkxySjXXajoDmTc9ceL4dkqTJk06J5A8wK/+3Rg/zUrXdwU24gJaQYYUPAWiEMbNde32Rco6SQyaPjlEVzV8pMJsPQg7WUreIaRTHM0pSiKNmRWr77iiv5/hdfykACkcQoWjCOlBLZgFtkiYoiushFj/P6p8BoEZ9UM2IMjcA0J7Zg+ckHbuM9n76J/VsugnIJ1h7DrTqyWvIUxPet/j2nHn1w6znl0WRYcUPWpwdhnMBl3Bwqu8qkzrxipeXdL30zX7nNE2SONwmwTJJlrAVqH7/En0qA+dCem6p2m3RHf58marW0ToDAiJY92fKeW+/nNx7axS4TwHoqBNpInQMMHFjPoO5sfI79+iLeFSBCyAFCxKoHZ0nOYFPkG1bH/NRLr+SloyHrVjEUjBJkm3GRbj+ui8+Pt4gsXo88hXbkE5tUhCAZN1/HDApqSkp13DGDf3njR/hvu3ZRbTuHOmRIESOWqk2otcy9RbQPbj2nHn1w6znlKapMM22oyh2M28C+tA/GJb6tEJZom32UruUdl1zFD19xOdZmqGswQ2YFDI7qNnzKAHfE9whPLFE2cRNXLJMTeAE0giQOmILb9m3wM7fewefm+9mVG3BDKimoDZ0WZk6Qjr3nZoyQY0CwjGxBYzMhz6lQzrcVP37Flbz1wgvYCUiOEA0xKe3AMkggkg7PQ2QUVcFIt9N2KAt9utd6+PU2NbNKqAlsjWP+YG2D7/v0h9ilHm+2UZtNsDPEearg0UaI3hBdQvrY1nMK0ge3nlMeLRoIHmaJ0lUYb5hrC05gXsNoBeIM8ibfvHoh77z8dVywFdZRdmjXLnIkT2efo09jipqAmFtKMRAXis0Fi/RoStQRv3HfffzKw3fw+aYGKkgOr4IVukB3DFxWvBqsGGoikU3OGVq+/4Kr+L6LrmCrCUTncCpQK8G1eG9g0YWZTcIgqCo5d3mbtfZwFnd0r+STg1vmgBhWVQgCP3r37fzC7TfgR+cRG4M6RzGfMXKRNZdQ6wAPTaJ0lpZ+Cek59eiDW88pT9GWIDVxlEkYaEyXDZkGV2R8a2itIQG0c64pKn7symv4mxeeQ5YposMn/L4nBbDDswDdXxU9HACMGCSCWiVJXJT8DFYtWWCmSsGEUpd4uIFfu+9hfvPBu3kw1riyxCI0xynblWJprEBsGanhW7ddxPdf+mJesWrBBJrgKX0G5iRTkPBkQFKktC2RAgGMHulm3Z0PhSdpRx4d3IIEilTw6c2Gn7zpk/z5gQO0oxWSCqjFmUjULjv0UhBjRJ3BeUvanELRjwL0nHr0wa3ntEeNgRwwWTHGE0NiTOJ7LrqEH33pSxn4hioAqSB6MDZjkoAxRAGrCiLk3DWUuENlPIGoCWeemPs8VVlvlmcMxCFacOPGOr94/+389717WEsGnKfTAVmUDnNGVcAIai1mJmA3+Yody/yTy17CX912HuRIzBlniuN2e1JnKAxp0RxqM9hFjAs54sUxNwlDpswCyZJFukpmTky95T/ecR/vuf9e7pEM3mFiRjOoVEhvJtpzGtIHt57THpcNURusZko7pDaeFCaMmPOyyvFLV381V++sKAiUJBoqgsI4QOtrjFQs9DvIQCKjKXfDz1melPocHdy0zRhniTazRmCZEp/h/bs3+dWHb+ZP9tf4qCQDubKdkWir5JDJJF6xxfNDF72Sb7tgBWPgoM4ZqqWSgiZDeRxpxkiXbeaUcMZgj4qGWTYw7RD1jqlAScQD6zj2Rfj+z/8FtxyY8XCjUA5xRihTIouhNZ7MsUcZenpORfrg1nPaIyJklyAGTOvwZtyV+cwMpGFLdvzE+S/hB664hMZnJrllm1S0kilSoE2KVbDWdx5lplMoEbrZMX90FfOo4FaLMMgsNrhyt8eXF62LFt736F5+6+G7+eDedXxeRlWJss51W0Z867mX8l2XX0KZFjYyNmFRRA2IoTXd9t6x2EAZIriupgqSSWRSSlgxWMlEUxIBolJZBTX8l917+Sd3fZKHawUqcONuoDtOydqQrEXFIblfInpOP/rg1nPao1FhaMFkqBNFHOCNJ5FQyTRpA2zmy5e28CtXvJGrVoQJE8bRQulIxnZNF4ekq1KCsiQaqIHxUz3nkd2VUZh5aHJgS6PgLa1TLIptFKyykQp+Y88efumRu5i3Dd+140X8vfPO56IlAyEzryyKMAxdbVFLYSaZMvOksujRhJjxxizSzpZUGOKiW9IDs2goTcDQYLRkVw0/+eAd/PoD9+JnBTIak1QQ62hpyXnW1TZNCVEQ6ZeIntOPPrj1nPZUyWNMpsmBKLHb41KDNBFSxgwdwVgIDZUL/Nxlr+IHzruAIC2+MLRRyN4ASoFi6sWkmLMc38kTmDakUUnT/dQiC0sEl9kgshLA+pKAYa2ZEWNkXA4Yuq4Ro6alwmAztCkTncOLoSBDCODLYz//IYGQHEmi6MK81WWBNkNhaUJDUZZ84MABfuDmj3HXtGE4vAizEZkVLTnGbpzAQ9fbb6iyx7eGSXlyhaN7ep4NfXDrOe3RwlE0Cm1LazNUXaBCwbsS2RCCa1EfqbIn1A1vPv883nXVtVw9FKqm21ebmoxdbLE5IMaMde64dnFTMqNIF0gGjlY6bWUBwiJeNGRcTrioIA71hnbxPCZlJCoUlo1FNXOYIj5qN+5wHG1KBeoUsIug5lWRsNhFNFDbg8zYwk/f8SA/f9fNUBRscQMO1lMoB+C6wXGMxVpLSovhb+xiPKJfInpOP/rg1nPao3YOuWKgBY3LZKNQN0jK4AuYO3RFKHOAWQZX0YQNdg6Vd1x+Hd944XlsMVBkiDGQCkvTtWgwwh83eQsh4ZzphqFzAjGoWYyCtxktEi0Gsj3srRoEsiZcziTrKZTOWjxmKA3tohLpU35KhZGjmWnEiMEDdh6hKKgtHASu31zjJz7yYW6eCavbL6VuNqnDOn5cEVLGRCVLAmMwODQoaiyUCjYjp7YReU/PU9IHt57THkPNKJW0yVAXAk4o29z5uHmBwsI8QoTSGxoXwCRcK8TNlrddlPm7L3sjXzvaDjOFMhMcSJtx+ON3dETAQJIIwmK+TPEYjFpS1k7AWCKtJFCl0ALyImi5TEbJC20UiyFnkEOykMdLHSMkSWAFm4FW0Er4bDPjv33h0/z8wwZXwdTWoAmbPb4VokZk0P29cZnkBLLFNTCwFnWRSZwitjrZb3FPzxdNH9x6zno0BXY44bsvvZx/+KLLONdCTHMqs8jZEt3gmCgRiBgUg0c6XccTbDQdI2QHkCly0wVFMSRjCWIwdPE3xRYrhmgdv/Hgvbzr3nu5e5aQ3m+t5yykD249Zz0uw7CNrOtBrj1nG//2sjfwNVvHRAcQaPDYmKjoGkyC5m48IGdAwZzg4JECJAXnaI3prGmASkETiI3UWlOZks9OW37s7tv5i4f2UoaStsxd9trTc5bRB7eeHtu5Vg/zgDyfEnWTv3fRpfzw5a9g+1io6LogNXZ+ZxhAlIYG9Y7qRKdu2qLiSJjHZ9kUUo6IhWBachzycw/fx0/fcytxYhj4JeYe8B4J05N9hnt6XnD64NZz1qM2s5RHbIYMThhaZba5i5cMPP/oxa/muy+8kGAi3hscmSa0ZD/EAj6AnOjEDR7XCImdWHEiY1LCBPijAxv8y7s/z03rieVyGxs6A2b40hPISLDP/sl7ek5T+uDWc9ZT1IlmYCAprs3EgYPS42ctaXPCX965xPdddR1v3b6CyQ2YjKiD6JkDlTu2X9yz4cgh8VqFqlWkUFoTyAmcLfnktOG9X/gUv7mvxYvSlBnUMQxDLMrEbaCsIbrjZJ/inp4XnD649Zz1GO+wszlCJgw7xX1mipEhfrxEs7GPwsx5+4UX8KOXXMWVVQmu6ZRNUtf2fyTPNcA9SZg5trTeYHPChooNgXfeezfvue92JuVCP8Vk0IRplUE0qDgaLyRvkNBrQ/acffTBradHM06FIBGsUGnBIDo2ciRZwA+xoSY16+xYdnz75VfyPedcxuUOIg1Wnjgr8HwHt4kklqJjAvzWwb28+9bPcd80Yast1HWA1TlyQBnFAfWyIdoZTGtcGhGrLQjrJ/sM9/S84PTBreesxyu0ouBKRq2lqWtikZESNDadIHOxhHEjYh1gtsarVwZ81xWX8/YLL2F8lILH85+5Cf/9wF5+8d5b+djegyQ7xLkCiZHCCal26JKj1hrqiC+WCIVAnOBzINLPqfWcffTBrafnOIhATgmswVgLMaFtZOgKVkZjfv2KC3j1jvPZuehinLturntAxKUaQkFTddldGbrvWS8SHsswdyY7rVECnvLQ7JyBNQP3r+3lH965mwf27uFAnKPjYTdsHTOS6dwHTP8R7uk5mj649fQch8PBzXQGp5IVDRFvLANXsLGxxtdfeAHff9klfNWWJYxmEEs2BTGDtyARCDUMXOdKE7r5uGTBdjrF5LiBsQIMuOlgzS89dB+/te9hRqliGppOksv7TrEkKaKCwZJNfi4vr6fnjKQPbj09x8EIpEMD2yIg0nmcZcUoJLcEZsJAN/hr28/jB1/0St4wGACZuvj/t3f3LHZUcQDGn/+Zt91oEiW+pIhgAmJtJ1YW9lZ+AzsrP4qtqI2VvR9CsFVRQRJMCAiihmyye2fOnGMxNy+awFpEgsfn1y3scqdZnntmzpz/dnbj0HdkMguFRGLaz+be7RYiKuOaYBz5MRc+uvotn/96g9tzx3hnYu6OYBwhdduL4xWosX1+xCMbWiQZN+lUQd2/N73/V4kg9iu4bUUHURJ1TbA7oesr7155hQ8uv8rbhxNzWZm6CfYTskstxFr3q7RCDfhmXvn46jU+u3aVu0siugMmMifDugV1GLaT+3cL3TAREeS8jaL5JwcrS/83xk06Tan3A1Lq/hZgSkQEtRRS6aEulFIYz52h73vu3rzBC3PmzSuX+fC113nj8DzPD7BLC0FlzCMnwHfLwqc//MSXN77n57ownX2Rfg6OCzD2xJpZI5MIyrxAgeFgogK5ZOg6J2VLj2HcpFNEZbs3CZR7tycB0ha8oRtZ5mO6OgOJtSYYz8DQwzLD8e+8d/ES71+6xDsXXyYRfHXrNp9cv84X169xFBPTMFHqwrKeQOqY5mAuhXrQE2ul248GSGl7r25Z83Yd40Bkn7lJf2fcpFNExF+259daoW7P3yKCYVmIMxO7ssIKqX8G8kqZ78AIfTpLvvsLz5Vj3rrwEkPX8/Wt37hZR6bxArt8CwocHpwnpZ47yxEMlZ7g3NHMH0NPrZWu60gpsayZWsoW3AicJSo9yrhJp4gISilE3VZO934uVFJKFLr98i7TLzCsiY7KPBaWPlNPEnFwSCVBTtumkMgQlZh3pGd72BXIdRt0Gh2koFCBAqmHvOwPbI7t7/ueIXXkebm/qpT0wL98nLn031dr3V7MDrbg1AoBwbaiC/L+TmWwdrB2974vJsgj0QN5eTBz9OH9H+NAmYHotjk22ycCdf/7sc21eXjTSOqg1O2Zm2GTHsttVpKk5hg3SVJzjJskqTnGTZLUHOMmSWqOcZMkNce4SZKaY9wkSc0xbpKk5hg3SVJzjJskqTnGTZLUHOMmSWqOcZMkNce4SZKaY9wkSc0xbpKk5hg3SVJzjJskqTnGTZLUHOMmSWqOcZMkNce4SZKaY9wkSc0xbpKk5hg3SVJzjJskqTnGTZLUHOMmSWqOcZMkNce4SZKaY9wkSc0xbpKk5hg3SVJzjJskqTnGTZLUHOMmSWqOcZMkNce4SZKaY9wkSc0xbpKk5hg3SVJzjJskqTnGTZLUHOMmSWqOcZMkNce4SZKaY9wkSc0xbpKk5hg3SVJzjJskqTnGTZLUHOMmSWqOcZMkNce4SZKak2qUp30NkiQ9UYkunvY1SJL0RCXS+rSvQZKkJyph2yRJjUnj6p4SSVJbUs0+c5MkteVPSm6or2YmSe0AAAAZdEVYdENvbW1lbnQAQ3JlYXRlZCB3aXRoIEdJTVBXgQ4XAAAAJXRFWHRkYXRlOmNyZWF0ZQAyMDE5LTAyLTE0VDE2OjUxOjMzKzAwOjAw7yl4kwAAACV0RVh0ZGF0ZTptb2RpZnkAMjAxOS0wMi0xNFQxNjo1MTozMyswMDowMJ50wC8AAAAASUVORK5CYII=;" vertex="1" parent="k2nyes9qOIdSVH-O3ABF-51">
          <mxGeometry x="17" y="19.5" width="59" height="59" as="geometry" />
        </mxCell>
        <mxCell id="k2nyes9qOIdSVH-O3ABF-45" value="Security Providers" style="text;html=1;strokeColor=none;fillColor=none;align=center;verticalAlign=middle;whiteSpace=wrap;rounded=0;" vertex="1" parent="k2nyes9qOIdSVH-O3ABF-51">
          <mxGeometry x="144" y="190" width="60" height="30" as="geometry" />
        </mxCell>
        <mxCell id="k2nyes9qOIdSVH-O3ABF-21" style="edgeStyle=orthogonalEdgeStyle;rounded=0;orthogonalLoop=1;jettySize=auto;html=1;entryX=0.5;entryY=1;entryDx=0;entryDy=0;fillColor=#dae8fc;strokeColor=#6c8ebf;strokeWidth=2;startArrow=none;startFill=0;endArrow=none;endFill=0;" edge="1" parent="k2nyes9qOIdSVH-O3ABF-51" source="k2nyes9qOIdSVH-O3ABF-17" target="k2nyes9qOIdSVH-O3ABF-18">
          <mxGeometry relative="1" as="geometry" />
        </mxCell>
      </root>
    </mxGraphModel>
  </diagram>
</mxfile>
